# Blender v2.76 (sub 0) OBJ File: 'BombGeneric.blend'
# www.blender.org
o Cylinder
v  0.1768 0.4268 -0.3750
v  0.1768 0.4268 0.3750
v  0.2310 0.3457 -0.3750
v  0.2310 0.3457 0.3750
v  0.2500 0.2500 -0.3750
v  0.2500 0.2500 0.3750
v  0.2310 0.1543 -0.3750
v  0.2310 0.1543 0.3750
v  0.1768 0.0732 -0.3750
v  0.1768 0.0732 0.3750
v  0.0957 0.0190 -0.3750
v  0.0957 0.0190 0.3750
v  0.0000 0.0000 -0.3750
v  0.0000 0.0000 0.3750
v  -0.0957 0.0190 -0.3750
v  -0.0957 0.0190 0.3750
v  -0.1768 0.0732 -0.3750
v  -0.1768 0.0732 0.3750
v  -0.2310 0.1543 -0.3750
v  -0.2310 0.1543 0.3750
v  -0.2500 0.2500 -0.3750
v  -0.2500 0.2500 0.3750
v  -0.2310 0.3457 -0.3750
v  -0.2310 0.3457 0.3750
v  -0.1768 0.4268 -0.3750
v  -0.1768 0.4268 0.3750
v  -0.0957 0.4810 -0.3750
v  -0.0957 0.4810 0.3750
v  0.0000 0.5000 -0.3750
v  0.0000 0.5000 0.3750
v  0.0957 0.4810 -0.3750
v  0.0957 0.4810 0.3750
v  0.0884 0.3384 0.5250
v  0.0478 0.3655 0.5250
v  0.0000 0.3750 0.5250
v  -0.0478 0.3655 0.5250
v  -0.0884 0.3384 0.5250
v  -0.1155 0.2978 0.5250
v  -0.1250 0.2500 0.5250
v  -0.1155 0.2022 0.5250
v  -0.0884 0.1616 0.5250
v  -0.0478 0.1345 0.5250
v  0.0000 0.1250 0.5250
v  0.0478 0.1345 0.5250
v  0.0884 0.1616 0.5250
v  0.1155 0.2022 0.5250
v  0.1250 0.2500 0.5250
v  0.1155 0.2978 0.5250
v  0.0884 0.3384 -0.6750
v  0.0478 0.3655 -0.6750
v  0.0000 0.3750 -0.6750
v  -0.0478 0.3655 -0.6750
v  -0.0884 0.3384 -0.6750
v  -0.1155 0.2978 -0.6750
v  -0.1250 0.2500 -0.6750
v  -0.1155 0.2022 -0.6750
v  -0.0884 0.1616 -0.6750
v  -0.0478 0.1345 -0.6750
v  0.0000 0.1250 -0.6750
v  0.0478 0.1345 -0.6750
v  0.0884 0.1616 -0.6750
v  0.1155 0.2022 -0.6750
v  0.1250 0.2500 -0.6750
v  0.1155 0.2978 -0.6750
v  0.0884 0.3384 -0.8750
v  0.0478 0.3655 -0.8750
v  0.0000 0.3750 -0.8750
v  -0.0478 0.3655 -0.8750
v  -0.0884 0.3384 -0.8750
v  -0.1155 0.2978 -0.8750
v  -0.1250 0.2500 -0.8750
v  -0.1155 0.2022 -0.8750
v  -0.0884 0.1616 -0.8750
v  -0.0478 0.1345 -0.8750
v  0.0000 0.1250 -0.8750
v  0.0478 0.1345 -0.8750
v  0.0884 0.1616 -0.8750
v  0.1155 0.2022 -0.8750
v  0.1250 0.2500 -0.8750
v  0.1155 0.2978 -0.8750
v  -0.2475 0.4975 -0.6740
v  0.2475 0.0025 -0.6740
v  -0.2475 0.4975 -0.8260
v  0.2475 0.0025 -0.8260
v  0.2475 0.4975 -0.6740
v  -0.2475 0.0025 -0.6740
v  0.2475 0.4975 -0.8260
v  -0.2475 0.0025 -0.8260
vn 0.7071 0.7071 0.0000
vn 0.9239 0.3827 -0.0000
vn 0.9239 0.3827 0.0000
vn 0.9239 0.3827 -0.0000
vn 1.0000 0.0000 -0.0000
vn 1.0000 0.0000 -0.0000
vn 1.0000 0.0000 -0.0000
vn 0.9239 -0.3827 -0.0000
vn 0.9239 -0.3827 0.0000
vn 0.9239 -0.3827 0.0000
vn 0.9239 -0.3827 -0.0000
vn 0.7071 -0.7071 0.0000
vn 0.7071 -0.7071 0.0000
vn 0.3827 -0.9239 -0.0000
vn 0.3827 -0.9239 0.0000
vn 0.3827 -0.9239 -0.0000
vn -0.0000 -1.0000 -0.0000
vn 0.0000 -1.0000 -0.0000
vn -0.0000 -1.0000 -0.0000
vn -0.3827 -0.9239 -0.0000
vn -0.3827 -0.9239 -0.0000
vn -0.3827 -0.9239 -0.0000
vn -0.7071 -0.7071 -0.0000
vn -0.7071 -0.7071 -0.0000
vn -0.7071 -0.7071 -0.0000
vn -0.9239 -0.3827 -0.0000
vn -0.9239 -0.3827 -0.0000
vn -0.9239 -0.3827 -0.0000
vn -1.0000 -0.0000 -0.0000
vn -1.0000 0.0000 -0.0000
vn -1.0000 -0.0000 -0.0000
vn -0.9239 0.3827 -0.0000
vn -0.9239 0.3827 -0.0000
vn -0.9239 0.3827 -0.0000
vn -0.7071 0.7071 -0.0000
vn -0.7071 0.7071 -0.0000
vn -0.7071 0.7071 -0.0000
vn -0.3827 0.9239 -0.0000
vn -0.3827 0.9239 -0.0000
vn -0.3827 0.9239 -0.0000
vn -0.3827 0.9239 -0.0000
vn -0.0000 1.0000 -0.0000
vn 0.3827 0.9239 0.0000
vn 0.7071 0.7071 0.0000
vn 0.7071 0.7071 0.0000
vn -0.0000 1.0000 -0.0000
vn 0.3827 0.9239 0.0000
vn 0.3827 0.9239 -0.0000
vn 0.5432 0.5432 0.6402
vn 0.5432 0.5432 0.6402
vn 0.7097 0.2940 0.6402
vn 0.7097 0.2940 0.6402
vn 0.7097 0.2940 0.6402
vn 0.7682 -0.0000 0.6402
vn 0.7682 -0.0000 0.6402
vn 0.7682 -0.0000 0.6402
vn 0.7097 -0.2940 0.6402
vn -0.0000 -0.0000 1.0000
vn -0.0000 -0.0000 1.0000
vn -0.0000 -0.0000 1.0000
vn 0.7097 -0.2940 0.6402
vn 0.7097 -0.2940 0.6402
vn 0.5432 -0.5432 0.6402
vn 0.5432 -0.5432 0.6402
vn 0.5432 -0.5432 0.6402
vn 0.2940 -0.7097 0.6402
vn 0.2940 -0.7097 0.6402
vn 0.2940 -0.7097 0.6402
vn 0.0000 -0.7682 0.6402
vn 0.0000 -0.7682 0.6402
vn 0.0000 -0.7682 0.6402
vn -0.2940 -0.7097 0.6402
vn -0.5432 -0.5432 0.6402
vn -0.2940 -0.7097 0.6402
vn -0.2940 -0.7097 0.6402
vn -0.7097 -0.2940 0.6402
vn -0.5432 -0.5432 0.6402
vn -0.5432 -0.5432 0.6402
vn -0.7682 -0.0000 0.6402
vn -0.7097 -0.2940 0.6402
vn -0.7097 -0.2940 0.6402
vn -0.7097 0.2940 0.6402
vn -0.7682 -0.0000 0.6402
vn -0.7682 -0.0000 0.6402
vn -0.5432 0.5432 0.6402
vn -0.7097 0.2940 0.6402
vn -0.7097 0.2940 0.6402
vn -0.2940 0.7097 0.6402
vn -0.5432 0.5432 0.6402
vn -0.5432 0.5432 0.6402
vn -0.0000 0.7682 0.6402
vn -0.2940 0.7097 0.6402
vn -0.2940 0.7097 0.6402
vn 0.2940 0.7097 0.6402
vn -0.0000 0.7682 0.6402
vn -0.0000 0.7682 0.6402
vn 0.2940 0.7097 0.6402
vn 0.2940 0.7097 0.6402
vn 0.5432 0.5432 0.6402
vn 0.0000 0.0000 -1.0000
vn 0.0000 0.0000 -1.0000
vn 0.0000 0.0000 -1.0000
vn 0.9239 0.3827 -0.0000
vn 0.7071 0.7071 -0.0000
vn 0.7071 0.7071 -0.0000
vn 1.0000 0.0000 -0.0000
vn 1.0000 0.0000 -0.0000
vn 0.9239 0.3827 -0.0000
vn 0.9239 -0.3827 -0.0000
vn 0.9239 -0.3827 -0.0000
vn 1.0000 0.0000 -0.0000
vn 0.7071 -0.7071 -0.0000
vn 0.9239 -0.3827 -0.0000
vn 0.9239 -0.3827 -0.0000
vn 0.3827 -0.9239 -0.0000
vn 0.3827 -0.9239 -0.0000
vn 0.7071 -0.7071 -0.0000
vn 0.0000 -1.0000 -0.0000
vn 0.0000 -1.0000 -0.0000
vn 0.3827 -0.9239 -0.0000
vn -0.3827 -0.9239 -0.0000
vn -0.3827 -0.9239 -0.0000
vn 0.0000 -1.0000 -0.0000
vn -0.7071 -0.7071 -0.0000
vn -0.3827 -0.9239 -0.0000
vn -0.3827 -0.9239 -0.0000
vn -0.9239 -0.3827 -0.0000
vn -0.9239 -0.3827 -0.0000
vn -0.7071 -0.7071 -0.0000
vn -1.0000 0.0000 -0.0000
vn -0.9239 -0.3827 -0.0000
vn -0.9239 -0.3827 -0.0000
vn -0.9239 0.3827 -0.0000
vn -1.0000 0.0000 -0.0000
vn -1.0000 0.0000 -0.0000
vn -0.7071 0.7071 -0.0000
vn -0.9239 0.3827 -0.0000
vn -0.9239 0.3827 -0.0000
vn -0.3827 0.9239 -0.0000
vn -0.7071 0.7071 -0.0000
vn -0.7071 0.7071 -0.0000
vn 0.7071 0.7071 -0.0000
vn 0.7071 0.7071 -0.0000
vn 0.3827 0.9239 -0.0000
vn 0.3827 0.9239 -0.0000
vn -0.0000 1.0000 -0.0000
vn 0.0000 1.0000 -0.0000
vn -0.0000 1.0000 -0.0000
vn -0.3827 0.9239 -0.0000
vn -0.3827 0.9239 -0.0000
vn 0.8528 0.3532 -0.3846
vn 0.6527 0.6527 -0.3846
vn 0.6527 0.6527 -0.3846
vn 0.6527 0.6527 -0.3846
vn 0.3532 0.8528 -0.3846
vn 0.3532 0.8528 -0.3846
vn 0.3532 0.8528 -0.3846
vn -0.0000 0.9231 -0.3846
vn -0.0000 0.9231 -0.3846
vn -0.0000 0.9231 -0.3846
vn -0.3532 0.8528 -0.3846
vn -0.3532 0.8528 -0.3846
vn -0.3532 0.8528 -0.3846
vn -0.6527 0.6527 -0.3846
vn -0.6527 0.6527 -0.3846
vn -0.6527 0.6527 -0.3846
vn -0.8528 0.3532 -0.3846
vn -0.8528 0.3532 -0.3846
vn -0.8528 0.3532 -0.3846
vn -0.9231 0.0000 -0.3846
vn -0.9231 0.0000 -0.3846
vn -0.9231 0.0000 -0.3846
vn -0.8528 -0.3532 -0.3846
vn -0.8528 -0.3533 -0.3846
vn -0.8528 -0.3533 -0.3846
vn -0.8528 -0.3532 -0.3846
vn -0.6527 -0.6527 -0.3846
vn -0.6527 -0.6527 -0.3846
vn -0.3533 -0.8528 -0.3846
vn -0.3533 -0.8528 -0.3846
vn -0.3533 -0.8528 -0.3846
vn -0.3533 -0.8528 -0.3846
vn 0.0000 -0.9231 -0.3846
vn 0.0000 -0.9231 -0.3846
vn 0.0000 -0.9231 -0.3846
vn 0.3532 -0.8528 -0.3846
vn 0.3532 -0.8528 -0.3846
vn 0.3532 -0.8528 -0.3846
vn 0.6527 -0.6527 -0.3846
vn 0.6527 -0.6527 -0.3846
vn 0.6527 -0.6527 -0.3846
vn 0.8528 -0.3532 -0.3846
vn 0.8528 -0.3532 -0.3846
vn 0.8528 -0.3532 -0.3846
vn 0.9231 0.0000 -0.3846
vn 0.9231 0.0000 -0.3846
vn 0.9231 0.0000 -0.3846
vn 0.8528 0.3532 -0.3846
vn 0.7071 0.7071 0.0000
vn 0.7071 0.7071 0.0000
vn 0.7071 0.7071 0.0000
vn -0.7071 0.7071 0.0000
vn -0.7071 0.7071 0.0000
vn -0.7071 0.7071 0.0000
vn 0.7071 0.7071 0.0000
vn 0.7071 0.7071 0.0000
vn 0.9239 0.3827 0.0000
vn 0.9239 0.3827 0.0000
vn 0.9239 0.3827 -0.0000
vn 1.0000 0.0000 -0.0000
vn 1.0000 0.0000 -0.0000
vn 1.0000 0.0000 -0.0000
vn 0.9239 -0.3827 0.0000
vn 0.7071 -0.7071 0.0000
vn 0.9239 -0.3827 0.0000
vn 0.7071 -0.7071 0.0000
vn 0.7071 -0.7071 0.0000
vn 0.7071 -0.7071 0.0000
vn 0.3827 -0.9239 0.0000
vn 0.3827 -0.9239 0.0000
vn 0.3827 -0.9239 -0.0000
vn 0.0000 -1.0000 -0.0000
vn 0.0000 -1.0000 -0.0000
vn -0.0000 -1.0000 -0.0000
vn -0.3827 -0.9239 -0.0000
vn -0.3827 -0.9239 -0.0000
vn -0.3827 -0.9239 -0.0000
vn -0.7071 -0.7071 -0.0000
vn -0.7071 -0.7071 -0.0000
vn -0.7071 -0.7071 -0.0000
vn -0.9239 -0.3827 -0.0000
vn -0.9239 -0.3827 -0.0000
vn -0.9239 -0.3827 -0.0000
vn -1.0000 0.0000 -0.0000
vn -1.0000 0.0000 -0.0000
vn -1.0000 -0.0000 -0.0000
vn -0.9239 0.3827 -0.0000
vn -0.9239 0.3827 -0.0000
vn -0.9239 0.3827 -0.0000
vn -0.7071 0.7071 -0.0000
vn -0.7071 0.7071 -0.0000
vn -0.7071 0.7071 -0.0000
vn -0.3827 0.9239 -0.0000
vn -0.0000 1.0000 -0.0000
vn -0.3827 0.9239 -0.0000
vn -0.0000 1.0000 -0.0000
vn 0.3827 0.9239 -0.0000
vn 0.3827 0.9239 0.0000
vn 0.7071 0.7071 0.0000
vn -0.0000 1.0000 -0.0000
vn -0.0000 1.0000 -0.0000
vn 0.3827 0.9239 -0.0000
vn 0.7097 0.2940 0.6402
vn 0.5432 0.5432 0.6402
vn 0.7097 0.2940 0.6402
vn 0.7682 -0.0000 0.6402
vn 0.7097 0.2940 0.6402
vn 0.7682 -0.0000 0.6402
vn 0.7097 -0.2940 0.6402
vn 0.7682 -0.0000 0.6402
vn 0.7097 -0.2940 0.6402
vn -0.0000 -0.0000 1.0000
vn -0.0000 -0.0000 1.0000
vn -0.0000 -0.0000 1.0000
vn -0.0000 -0.0000 1.0000
vn -0.0000 -0.0000 1.0000
vn -0.0000 -0.0000 1.0000
vn -0.0000 -0.0000 1.0000
vn -0.0000 -0.0000 1.0000
vn -0.0000 -0.0000 1.0000
vn -0.0000 -0.0000 1.0000
vn -0.0000 -0.0000 1.0000
vn -0.0000 -0.0000 1.0000
vn -0.0000 -0.0000 1.0000
vn -0.0000 -0.0000 1.0000
vn -0.0000 -0.0000 1.0000
vn -0.0000 -0.0000 1.0000
vn -0.0000 -0.0000 1.0000
vn -0.0000 -0.0000 1.0000
vn -0.0000 -0.0000 1.0000
vn -0.0000 -0.0000 1.0000
vn -0.0000 -0.0000 1.0000
vn -0.0000 -0.0000 1.0000
vn -0.0000 -0.0000 1.0000
vn -0.0000 -0.0000 1.0000
vn -0.0000 -0.0000 1.0000
vn -0.0000 -0.0000 1.0000
vn -0.0000 -0.0000 1.0000
vn -0.0000 -0.0000 1.0000
vn -0.0000 -0.0000 1.0000
vn -0.0000 -0.0000 1.0000
vn -0.0000 -0.0000 1.0000
vn -0.0000 -0.0000 1.0000
vn -0.0000 -0.0000 1.0000
vn -0.0000 -0.0000 1.0000
vn -0.0000 -0.0000 1.0000
vn -0.0000 -0.0000 1.0000
vn -0.0000 -0.0000 1.0000
vn -0.0000 -0.0000 1.0000
vn -0.0000 -0.0000 1.0000
vn 0.5432 -0.5432 0.6402
vn 0.7097 -0.2940 0.6402
vn 0.5432 -0.5432 0.6402
vn 0.2940 -0.7097 0.6402
vn 0.5432 -0.5432 0.6402
vn 0.2940 -0.7097 0.6402
vn 0.0000 -0.7682 0.6402
vn 0.2940 -0.7097 0.6402
vn 0.0000 -0.7682 0.6402
vn -0.2940 -0.7097 0.6402
vn 0.0000 -0.7682 0.6402
vn -0.2940 -0.7097 0.6402
vn -0.5432 -0.5432 0.6402
vn -0.5432 -0.5432 0.6402
vn -0.2940 -0.7097 0.6402
vn -0.7097 -0.2940 0.6402
vn -0.7097 -0.2940 0.6402
vn -0.5432 -0.5432 0.6402
vn -0.7682 -0.0000 0.6402
vn -0.7682 -0.0000 0.6402
vn -0.7097 -0.2940 0.6402
vn -0.7097 0.2940 0.6402
vn -0.7097 0.2940 0.6402
vn -0.7682 -0.0000 0.6402
vn -0.5432 0.5432 0.6402
vn -0.5432 0.5432 0.6402
vn -0.7097 0.2940 0.6402
vn -0.2940 0.7097 0.6402
vn -0.2940 0.7097 0.6402
vn -0.5432 0.5432 0.6402
vn -0.0000 0.7682 0.6402
vn -0.0000 0.7682 0.6402
vn -0.2940 0.7097 0.6402
vn 0.2940 0.7097 0.6402
vn 0.2940 0.7097 0.6402
vn -0.0000 0.7682 0.6402
vn 0.5432 0.5432 0.6402
vn 0.2940 0.7097 0.6402
vn 0.5432 0.5432 0.6402
vn 0.0000 0.0000 -1.0000
vn 0.0000 0.0000 -1.0000
vn 0.0000 0.0000 -1.0000
vn 0.0000 0.0000 -1.0000
vn 0.0000 0.0000 -1.0000
vn 0.0000 0.0000 -1.0000
vn 0.0000 0.0000 -1.0000
vn 0.0000 0.0000 -1.0000
vn 0.0000 0.0000 -1.0000
vn 0.0000 0.0000 -1.0000
vn 0.0000 0.0000 -1.0000
vn 0.0000 0.0000 -1.0000
vn 0.0000 0.0000 -1.0000
vn 0.0000 0.0000 -1.0000
vn 0.0000 0.0000 -1.0000
vn 0.0000 0.0000 -1.0000
vn 0.0000 0.0000 -1.0000
vn 0.0000 0.0000 -1.0000
vn 0.0000 0.0000 -1.0000
vn 0.0000 0.0000 -1.0000
vn 0.0000 0.0000 -1.0000
vn 0.0000 0.0000 -1.0000
vn 0.0000 0.0000 -1.0000
vn 0.0000 0.0000 -1.0000
vn 0.0000 0.0000 -1.0000
vn 0.0000 0.0000 -1.0000
vn 0.0000 0.0000 -1.0000
vn 0.0000 0.0000 -1.0000
vn 0.0000 0.0000 -1.0000
vn 0.0000 0.0000 -1.0000
vn 0.0000 0.0000 -1.0000
vn 0.0000 0.0000 -1.0000
vn 0.0000 0.0000 -1.0000
vn 0.0000 0.0000 -1.0000
vn 0.0000 0.0000 -1.0000
vn 0.0000 0.0000 -1.0000
vn 0.0000 0.0000 -1.0000
vn 0.0000 0.0000 -1.0000
vn 0.0000 0.0000 -1.0000
vn 0.9239 0.3827 -0.0000
vn 0.9239 0.3827 -0.0000
vn 0.7071 0.7071 -0.0000
vn 0.9239 0.3827 -0.0000
vn 1.0000 0.0000 -0.0000
vn 0.9239 0.3827 -0.0000
vn 1.0000 0.0000 -0.0000
vn 0.9239 -0.3827 -0.0000
vn 1.0000 0.0000 -0.0000
vn 0.7071 -0.7071 -0.0000
vn 0.7071 -0.7071 -0.0000
vn 0.9239 -0.3827 -0.0000
vn 0.7071 -0.7071 -0.0000
vn 0.3827 -0.9239 -0.0000
vn 0.7071 -0.7071 -0.0000
vn 0.3827 -0.9239 -0.0000
vn 0.0000 -1.0000 -0.0000
vn 0.3827 -0.9239 -0.0000
vn 0.0000 -1.0000 -0.0000
vn -0.3827 -0.9239 -0.0000
vn 0.0000 -1.0000 -0.0000
vn -0.7071 -0.7071 -0.0000
vn -0.7071 -0.7071 -0.0000
vn -0.3827 -0.9239 -0.0000
vn -0.7071 -0.7071 -0.0000
vn -0.9239 -0.3827 -0.0000
vn -0.7071 -0.7071 -0.0000
vn -1.0000 0.0000 -0.0000
vn -1.0000 0.0000 -0.0000
vn -0.9239 -0.3827 -0.0000
vn -0.9239 0.3827 -0.0000
vn -0.9239 0.3827 -0.0000
vn -1.0000 0.0000 -0.0000
vn -0.7071 0.7071 -0.0000
vn -0.7071 0.7071 -0.0000
vn -0.9239 0.3827 -0.0000
vn -0.3827 0.9239 -0.0000
vn -0.3827 0.9239 -0.0000
vn -0.7071 0.7071 -0.0000
vn 0.3827 0.9239 -0.0000
vn 0.7071 0.7071 -0.0000
vn 0.3827 0.9239 -0.0000
vn 0.3827 0.9239 -0.0000
vn 0.3827 0.9239 -0.0000
vn 0.0000 1.0000 -0.0000
vn 0.0000 1.0000 -0.0000
vn -0.0000 1.0000 -0.0000
vn -0.3827 0.9239 -0.0000
vn 0.8528 0.3532 -0.3846
vn 0.8528 0.3532 -0.3846
vn 0.6527 0.6527 -0.3846
vn 0.6527 0.6527 -0.3846
vn 0.6527 0.6527 -0.3846
vn 0.3532 0.8528 -0.3846
vn 0.3532 0.8528 -0.3846
vn 0.3532 0.8528 -0.3846
vn -0.0000 0.9231 -0.3846
vn -0.0000 0.9231 -0.3846
vn -0.0000 0.9231 -0.3846
vn -0.3532 0.8528 -0.3846
vn -0.3532 0.8528 -0.3846
vn -0.3532 0.8528 -0.3846
vn -0.6527 0.6527 -0.3846
vn -0.6527 0.6527 -0.3846
vn -0.6527 0.6527 -0.3846
vn -0.8528 0.3532 -0.3846
vn -0.8528 0.3532 -0.3846
vn -0.8528 0.3532 -0.3846
vn -0.9231 0.0000 -0.3846
vn -0.9231 0.0000 -0.3846
vn -0.9231 0.0000 -0.3846
vn -0.8528 -0.3533 -0.3846
vn -0.6527 -0.6527 -0.3846
vn -0.8528 -0.3533 -0.3846
vn -0.6527 -0.6527 -0.3846
vn -0.6527 -0.6527 -0.3846
vn -0.6527 -0.6527 -0.3846
vn -0.3533 -0.8528 -0.3846
vn 0.0000 -0.9231 -0.3846
vn -0.3533 -0.8528 -0.3846
vn 0.0000 -0.9231 -0.3846
vn 0.3532 -0.8528 -0.3846
vn 0.0000 -0.9231 -0.3846
vn 0.3532 -0.8528 -0.3846
vn 0.6527 -0.6527 -0.3846
vn 0.3532 -0.8528 -0.3846
vn 0.6527 -0.6527 -0.3846
vn 0.8528 -0.3532 -0.3846
vn 0.6527 -0.6527 -0.3846
vn 0.8528 -0.3532 -0.3846
vn 0.9231 0.0000 -0.3846
vn 0.8528 -0.3532 -0.3846
vn 0.9231 0.0000 -0.3846
vn 0.8528 0.3532 -0.3846
vn 0.9231 0.0000 -0.3846
vn 0.8528 0.3532 -0.3846
vn 0.7071 0.7071 0.0000
vn 0.7071 0.7071 0.0000
vn 0.7071 0.7071 0.0000
vn -0.7071 0.7071 0.0000
vn -0.7071 0.7071 0.0000
vn -0.7071 0.7071 0.0000
vt 0.3353 0.7095 0.0000
vt 0.2823 0.7095 0.0000
vt 0.2823 0.3021 0.0000
vt 0.2293 0.7095 0.0000
vt 0.2293 0.3021 0.0000
vt 0.1763 0.7095 0.0000
vt 0.1763 0.3021 0.0000
vt 0.1233 0.7095 0.0000
vt 0.0704 0.7095 0.0000
vt 0.0704 0.3021 0.0000
vt 0.0174 0.7095 0.0000
vt 0.0174 0.3021 0.0000
vt 0.8652 0.7095 0.0000
vt 0.8122 0.7095 0.0000
vt 0.8122 0.3021 0.0000
vt 0.7592 0.7095 0.0000
vt 0.7592 0.3021 0.0000
vt 0.7062 0.7095 0.0000
vt 0.7062 0.3021 0.0000
vt 0.6532 0.7095 0.0000
vt 0.6532 0.3021 0.0000
vt 0.6002 0.7095 0.0000
vt 0.6002 0.3021 0.0000
vt 0.5472 0.7095 0.0000
vt 0.5472 0.3021 0.0000
vt 0.4943 0.7095 0.0000
vt 0.4943 0.3021 0.0000
vt 0.4413 0.7095 0.0000
vt 0.3883 0.7095 0.0000
vt 0.3353 0.3021 0.0000
vt 0.3883 0.3021 0.0000
vt 0.3220 0.8147 0.0000
vt 0.2956 0.8147 0.0000
vt 0.2691 0.8147 0.0000
vt 0.2426 0.8147 0.0000
vt 0.2161 0.8147 0.0000
vt 0.1896 0.8147 0.0000
vt 0.6003 0.9028 0.0000
vt 0.6801 0.8494 0.0000
vt 0.6536 0.9826 0.0000
vt 0.1631 0.8147 0.0000
vt 0.1366 0.8147 0.0000
vt 0.1101 0.8147 0.0000
vt 0.0836 0.8147 0.0000
vt 0.0571 0.8147 0.0000
vt 0.0306 0.8147 0.0000
vt 0.8519 0.8147 0.0000
vt 0.8254 0.8147 0.0000
vt 0.7989 0.8147 0.0000
vt 0.7459 0.8147 0.0000
vt 0.6930 0.8147 0.0000
vt 0.6400 0.8147 0.0000
vt 0.5870 0.8147 0.0000
vt 0.5340 0.8147 0.0000
vt 0.4810 0.8147 0.0000
vt 0.4280 0.8147 0.0000
vt 0.3750 0.8147 0.0000
vt 0.3485 0.8147 0.0000
vt 0.5122 0.9826 0.0000
vt 0.4324 0.9293 0.0000
vt 0.4857 0.8494 0.0000
vt 0.2956 0.0174 0.0000
vt 0.3220 0.0174 0.0000
vt 0.3220 0.1260 0.0000
vt 0.2426 0.1260 0.0000
vt 0.2426 0.0174 0.0000
vt 0.2691 0.0174 0.0000
vt 0.1896 0.1260 0.0000
vt 0.1896 0.0174 0.0000
vt 0.2161 0.0174 0.0000
vt 0.1366 0.0174 0.0000
vt 0.1631 0.0174 0.0000
vt 0.1631 0.1260 0.0000
vt 0.0836 0.1260 0.0000
vt 0.0836 0.0174 0.0000
vt 0.1101 0.0174 0.0000
vt 0.0306 0.1260 0.0000
vt 0.0306 0.0174 0.0000
vt 0.0571 0.0174 0.0000
vt 0.8254 0.1260 0.0000
vt 0.8254 0.0174 0.0000
vt 0.8519 0.0174 0.0000
vt 0.7724 0.0174 0.0000
vt 0.7989 0.0174 0.0000
vt 0.7989 0.1260 0.0000
vt 0.7194 0.1260 0.0000
vt 0.7194 0.0174 0.0000
vt 0.7459 0.0174 0.0000
vt 0.6665 0.0174 0.0000
vt 0.6930 0.0174 0.0000
vt 0.6930 0.1260 0.0000
vt 0.6135 0.0174 0.0000
vt 0.6400 0.0174 0.0000
vt 0.6400 0.1260 0.0000
vt 0.5605 0.0174 0.0000
vt 0.5870 0.0174 0.0000
vt 0.5870 0.1260 0.0000
vt 0.5075 0.0174 0.0000
vt 0.5340 0.0174 0.0000
vt 0.5340 0.1260 0.0000
vt 0.3485 0.1260 0.0000
vt 0.3485 0.0174 0.0000
vt 0.3750 0.0174 0.0000
vt 0.4015 0.0174 0.0000
vt 0.4280 0.0174 0.0000
vt 0.4280 0.1260 0.0000
vt 0.4545 0.0174 0.0000
vt 0.4810 0.0174 0.0000
vt 0.4810 0.1260 0.0000
vt 0.2956 0.1260 0.0000
vt 0.3750 0.1260 0.0000
vt 0.4015 0.1260 0.0000
vt 0.4413 0.3021 0.0000
vt 0.4545 0.1260 0.0000
vt 0.5075 0.1260 0.0000
vt 0.5605 0.1260 0.0000
vt 0.6135 0.1260 0.0000
vt 0.6665 0.1260 0.0000
vt 0.7459 0.1260 0.0000
vt 0.7724 0.1260 0.0000
vt 0.8519 0.1260 0.0000
vt 0.0571 0.1260 0.0000
vt 0.1101 0.1260 0.0000
vt 0.1233 0.3021 0.0000
vt 0.1366 0.1260 0.0000
vt 0.2161 0.1260 0.0000
vt 0.2691 0.1260 0.0000
vt 0.9825 0.3976 0.0000
vt 0.8999 0.3976 0.0000
vt 0.8999 0.0174 0.0000
vt 0.3976 0.9320 0.0000
vt 0.0174 0.9320 0.0000
vt 0.0174 0.8494 0.0000
vt 0.8652 0.3021 0.0000
vt 0.7335 0.9293 0.0000
vt 0.7233 0.9538 0.0000
vt 0.7046 0.9725 0.0000
vt 0.6801 0.9826 0.0000
vt 0.6292 0.9725 0.0000
vt 0.6104 0.9538 0.0000
vt 0.6003 0.9293 0.0000
vt 0.6104 0.8783 0.0000
vt 0.6292 0.8596 0.0000
vt 0.6536 0.8494 0.0000
vt 0.7046 0.8596 0.0000
vt 0.7233 0.8783 0.0000
vt 0.7335 0.9028 0.0000
vt 0.7724 0.8147 0.0000
vt 0.7194 0.8147 0.0000
vt 0.6665 0.8147 0.0000
vt 0.6135 0.8147 0.0000
vt 0.5605 0.8147 0.0000
vt 0.5075 0.8147 0.0000
vt 0.4545 0.8147 0.0000
vt 0.4015 0.8147 0.0000
vt 0.5122 0.8494 0.0000
vt 0.5656 0.9028 0.0000
vt 0.5367 0.8596 0.0000
vt 0.5554 0.8783 0.0000
vt 0.5656 0.9293 0.0000
vt 0.5554 0.9538 0.0000
vt 0.5367 0.9725 0.0000
vt 0.4857 0.9826 0.0000
vt 0.4612 0.9725 0.0000
vt 0.4425 0.9538 0.0000
vt 0.4324 0.9028 0.0000
vt 0.4425 0.8783 0.0000
vt 0.4612 0.8596 0.0000
vt 0.9825 0.0174 0.0000
vt 0.3976 0.8494 0.0000
s off
f 2/1/1 4/2/2 3/3/3 
f 4/2/4 6/4/5 5/5/6 
f 6/4/7 8/6/8 7/7/9 
f 7/7/10 8/6/11 10/8/12 
f 10/8/13 12/9/14 11/10/15 
f 12/9/16 14/11/17 13/12/18 
f 14/13/19 16/14/20 15/15/21 
f 16/14/22 18/16/23 17/17/24 
f 18/16/25 20/18/26 19/19/27 
f 20/18/28 22/20/29 21/21/30 
f 22/20/31 24/22/32 23/23/33 
f 24/22/34 26/24/35 25/25/36 
f 26/24/37 28/26/38 27/27/39 
f 27/27/40 28/26/41 30/28/42 
f 32/29/43 2/1/44 1/30/45 
f 30/28/46 32/29/47 31/31/48 
f 2/1/49 33/32/50 48/33/51 
f 4/2/52 48/34/53 47/35/54 
f 6/4/55 47/36/56 46/37/57 
f 41/38/58 45/39/59 37/40/60 
f 8/6/61 46/41/62 45/42/63 
f 10/8/64 45/43/65 44/44/66 
f 12/9/67 44/45/68 43/46/69 
f 14/13/70 43/47/71 42/48/72 
f 18/16/73 16/14/74 42/49/75 
f 20/18/76 18/16/77 41/50/78 
f 22/20/79 20/18/80 40/51/81 
f 24/22/82 22/20/83 39/52/84 
f 26/24/85 24/22/86 38/53/87 
f 28/26/88 26/24/89 37/54/90 
f 30/28/91 28/26/92 36/55/93 
f 32/29/94 30/28/95 35/56/96 
f 32/29/97 34/57/98 33/58/99 
f 75/59/100 71/60/101 67/61/102 
f 80/62/103 65/63/104 49/64/105 
f 63/65/106 79/66/107 80/67/108 
f 62/68/109 78/69/110 79/70/111 
f 77/71/112 78/72/113 62/73/114 
f 60/74/115 76/75/116 77/76/117 
f 59/77/118 75/78/119 76/79/120 
f 58/80/121 74/81/122 75/82/123 
f 73/83/124 74/84/125 58/85/126 
f 56/86/127 72/87/128 73/88/129 
f 71/89/130 72/90/131 56/91/132 
f 70/92/133 71/93/134 55/94/135 
f 69/95/136 70/96/137 54/97/138 
f 68/98/139 69/99/140 53/100/141 
f 49/101/142 65/102/143 66/103/144 
f 66/104/145 67/105/146 51/106/147 
f 67/107/148 68/108/149 52/109/150 
f 64/110/151 49/64/152 1/30/153 
f 49/101/154 50/111/155 31/31/156 
f 50/112/157 51/106/158 29/113/159 
f 51/114/160 52/109/161 27/27/162 
f 52/115/163 53/100/164 25/25/165 
f 53/116/166 54/97/167 23/23/168 
f 54/117/169 55/94/170 21/21/171 
f 55/118/172 56/91/173 19/19/174 
f 19/19/175 56/86/176 57/119/177 
f 57/120/178 58/85/179 15/15/180 
f 15/15/181 58/80/182 59/121/183 
f 13/12/184 59/77/185 60/122/186 
f 11/10/187 60/74/188 61/123/189 
f 9/124/190 61/125/191 62/73/192 
f 7/7/193 62/68/194 63/126/195 
f 5/5/196 63/65/197 64/127/198 
f 82/128/199 84/129/200 83/130/201 
f 87/131/202 88/132/203 86/133/204 
f 1/30/205 2/1/206 3/3/207 
f 3/3/208 4/2/209 5/5/210 
f 5/5/211 6/4/212 7/7/213 
f 9/124/214 7/7/215 10/8/216 
f 9/124/217 10/8/218 11/10/219 
f 11/10/220 12/9/221 13/12/222 
f 13/134/223 14/13/224 15/15/225 
f 15/15/226 16/14/227 17/17/228 
f 17/17/229 18/16/230 19/19/231 
f 19/19/232 20/18/233 21/21/234 
f 21/21/235 22/20/236 23/23/237 
f 23/23/238 24/22/239 25/25/240 
f 25/25/241 26/24/242 27/27/243 
f 29/113/244 27/27/245 30/28/246 
f 31/31/247 32/29/248 1/30/249 
f 29/113/250 30/28/251 31/31/252 
f 4/2/253 2/1/254 48/33/255 
f 6/4/256 4/2/257 47/35/258 
f 8/6/259 6/4/260 46/37/261 
f 33/135/262 34/136/263 35/137/264 
f 35/137/265 36/138/266 33/135/267 
f 37/40/268 38/139/269 39/140/270 
f 39/140/271 40/141/272 37/40/273 
f 41/38/274 42/142/275 43/143/276 
f 43/143/277 44/144/278 41/38/279 
f 45/39/280 46/145/281 33/135/282 
f 47/146/283 48/147/284 33/135/285 
f 33/135/286 36/138/287 37/40/288 
f 37/40/289 40/141/290 41/38/291 
f 41/38/292 44/144/293 45/39/294 
f 46/145/295 47/146/296 33/135/297 
f 33/135/298 37/40/299 45/39/300 
f 10/8/301 8/6/302 45/42/303 
f 12/9/304 10/8/305 44/44/306 
f 14/11/307 12/9/308 43/46/309 
f 16/14/310 14/13/311 42/48/312 
f 41/148/313 18/16/314 42/49/315 
f 40/149/316 20/18/317 41/50/318 
f 39/150/319 22/20/320 40/51/321 
f 38/151/322 24/22/323 39/52/324 
f 37/152/325 26/24/326 38/53/327 
f 36/153/328 28/26/329 37/54/330 
f 35/154/331 30/28/332 36/55/333 
f 34/155/334 32/29/335 35/56/336 
f 2/1/337 32/29/338 33/58/339 
f 67/61/340 66/156/341 79/157/342 
f 65/158/343 80/159/344 79/157/345 
f 79/157/346 78/160/347 75/59/348 
f 77/161/349 76/162/350 75/59/351 
f 75/59/352 74/163/353 73/164/354 
f 73/164/355 72/165/356 75/59/357 
f 71/60/358 70/166/359 69/167/360 
f 69/167/361 68/168/362 71/60/363 
f 66/156/364 65/158/365 79/157/366 
f 78/160/367 77/161/368 75/59/369 
f 75/59/370 72/165/371 71/60/372 
f 71/60/373 68/168/374 67/61/375 
f 67/61/376 79/157/377 75/59/378 
f 64/110/379 80/62/380 49/64/381 
f 64/127/382 63/65/383 80/67/384 
f 63/126/385 62/68/386 79/70/387 
f 61/125/388 77/71/389 62/73/390 
f 61/123/391 60/74/392 77/76/393 
f 60/122/394 59/77/395 76/79/396 
f 59/121/397 58/80/398 75/82/399 
f 57/120/400 73/83/401 58/85/402 
f 57/119/403 56/86/404 73/88/405 
f 55/118/406 71/89/407 56/91/408 
f 54/117/409 70/92/410 55/94/411 
f 53/116/412 69/95/413 54/97/414 
f 52/115/415 68/98/416 53/100/417 
f 50/111/418 49/101/419 66/103/420 
f 50/112/421 66/104/422 51/106/423 
f 51/114/424 67/107/425 52/109/426 
f 3/3/427 64/110/428 1/30/429 
f 1/30/430 49/101/431 31/31/432 
f 31/31/433 50/112/434 29/113/435 
f 29/113/436 51/114/437 27/27/438 
f 27/27/439 52/115/440 25/25/441 
f 25/25/442 53/116/443 23/23/444 
f 23/23/445 54/117/446 21/21/447 
f 21/21/448 55/118/449 19/19/450 
f 17/17/451 19/19/452 57/119/453 
f 17/17/454 57/120/455 15/15/456 
f 13/134/457 15/15/458 59/121/459 
f 11/10/460 13/12/461 60/122/462 
f 9/124/463 11/10/464 61/123/465 
f 7/7/466 9/124/467 62/73/468 
f 5/5/469 7/7/470 63/126/471 
f 3/3/472 5/5/473 64/127/474 
f 81/169/475 82/128/476 83/130/477 
f 85/170/478 87/131/479 86/133/480 