# 3ds Max Wavefront OBJ Exporter v0.97b - (c)2007 guruware
# 创建的文件:08.11.2025 21:30:20

mtllib fatman.mtl

#
# object fatman_Cylinder
#

v  1.8744 0.9338 0.0605
v  1.8744 0.5614 0.0605
v  1.8744 0.6325 -0.1584
v  1.3883 1.1561 0.1354
v  1.3644 1.1267 0.0555
v  1.3644 1.1027 0.1133
v  1.5376 1.0604 0.0281
v  1.6193 1.0916 0.0410
v  1.5953 1.0383 0.0189
v  1.6193 1.0438 0.1565
v  1.5953 0.9665 0.1922
v  1.5953 0.9904 0.1344
v  1.5615 1.0420 0.2234
v  1.3644 1.0549 0.2288
v  1.5376 0.9886 0.2013
v  1.5376 1.0125 0.1436
v  1.6432 1.1211 0.1209
v  1.6193 1.0677 0.0988
v  1.3883 1.1083 0.2509
v  1.5854 1.0953 0.2455
v  1.5615 1.0898 0.1079
v  1.3883 1.1322 0.1931
v  1.5615 1.0659 0.1657
v  1.5376 1.0365 0.0858
v  1.5953 1.0144 0.0767
v  1.3644 1.0788 0.1710
v  1.5854 1.1432 0.1300
v  1.6432 1.0732 0.2364
v  1.6193 1.0199 0.2143
v  1.5615 1.1137 0.0502
v  1.5854 1.1192 0.1878
v  1.3883 1.1800 0.0776
v  1.5854 1.1671 0.0723
v  1.6432 1.0971 0.1786
v  1.6432 1.1450 0.0631
v  1.3883 1.1322 -0.1931
v  1.3644 1.0549 -0.2288
v  1.3644 1.0788 -0.1710
v  1.5376 0.9886 -0.2013
v  1.6193 1.0199 -0.2143
v  1.5953 0.9665 -0.1922
v  1.6193 1.0677 -0.0988
v  1.5953 1.0383 -0.0189
v  1.5953 1.0144 -0.0767
v  1.5615 1.1137 -0.0502
v  1.3644 1.1267 -0.0555
v  1.5376 1.0604 -0.0281
v  1.5376 1.0365 -0.0858
v  1.6432 1.0971 -0.1786
v  1.6193 1.0438 -0.1565
v  1.3883 1.1800 -0.0776
v  1.5854 1.1671 -0.0723
v  1.5615 1.0898 -0.1079
v  1.5615 1.0659 -0.1657
v  1.5376 1.0125 -0.1436
v  1.5953 0.9904 -0.1344
v  1.3883 1.1561 -0.1354
v  1.3644 1.1027 -0.1133
v  1.5854 1.1192 -0.1878
v  1.6193 1.0916 -0.0410
v  1.5615 1.0420 -0.2234
v  1.5854 1.1432 -0.1300
v  1.3883 1.1083 -0.2509
v  1.5854 1.0953 -0.2455
v  1.6432 1.1211 -0.1209
v  1.6432 1.0732 -0.2364
v  1.6432 1.1450 -0.0631
v  1.3644 0.8609 -0.3552
v  1.3883 0.8252 -0.4324
v  1.3644 0.8031 -0.3791
v  1.5376 0.7757 -0.3128
v  1.6193 0.7886 -0.3440
v  1.5953 0.7665 -0.2907
v  1.6193 0.9041 -0.2962
v  1.5953 0.9398 -0.2189
v  1.5953 0.8820 -0.2429
v  1.5615 0.9710 -0.2944
v  1.3644 0.9764 -0.3073
v  1.5376 0.9489 -0.2410
v  1.5376 0.8912 -0.2649
v  1.6432 0.8685 -0.3735
v  1.6193 0.8464 -0.3201
v  1.3883 0.9985 -0.3607
v  1.5854 0.9931 -0.3477
v  1.3883 0.8830 -0.4085
v  1.5615 0.9133 -0.3183
v  1.5615 0.8555 -0.3422
v  1.5953 0.8243 -0.2668
v  1.5376 0.8334 -0.2889
v  1.3644 0.9186 -0.3312
v  1.3883 0.9407 -0.3846
v  1.5854 0.9354 -0.3716
v  1.5854 0.8776 -0.3956
v  1.6432 0.9839 -0.3256
v  1.6193 0.9618 -0.2723
v  1.5615 0.7978 -0.3661
v  1.5854 0.8199 -0.4195
v  1.6432 0.9262 -0.3495
v  1.6432 0.8107 -0.3974
v  1.3644 0.5766 -0.3312
v  1.3883 0.4967 -0.3607
v  1.3644 0.5188 -0.3073
v  1.5376 0.5463 -0.2410
v  1.6193 0.5333 -0.2723
v  1.5953 0.5554 -0.2189
v  1.6193 0.6488 -0.3201
v  1.5953 0.7287 -0.2907
v  1.5953 0.6709 -0.2668
v  1.5615 0.6974 -0.3661
v  1.3644 0.6920 -0.3791
v  1.5376 0.7195 -0.3128
v  1.5376 0.6618 -0.2889
v  1.6193 0.5911 -0.2962
v  1.6432 0.5112 -0.3256
v  1.6432 0.5690 -0.3495
v  1.3883 0.6700 -0.4324
v  1.5854 0.6753 -0.4195
v  1.3883 0.5545 -0.3846
v  1.5615 0.6397 -0.3422
v  1.5615 0.5819 -0.3183
v  1.5953 0.6132 -0.2429
v  1.5376 0.6040 -0.2649
v  1.3644 0.6343 -0.3552
v  1.3883 0.6122 -0.4085
v  1.5854 0.5598 -0.3716
v  1.6432 0.6845 -0.3974
v  1.6193 0.7066 -0.3440
v  1.5615 0.5242 -0.2944
v  1.5854 0.6176 -0.3956
v  1.5854 0.5021 -0.3477
v  1.6432 0.6267 -0.3735
v  1.3644 0.3924 -0.1133
v  1.3883 0.3152 -0.0776
v  1.3644 0.3685 -0.0555
v  1.5376 0.4348 -0.0281
v  1.6193 0.4036 -0.0410
v  1.5953 0.4569 -0.0189
v  1.6193 0.4514 -0.1565
v  1.5953 0.5287 -0.1922
v  1.5953 0.5047 -0.1344
v  1.5615 0.4532 -0.2234
v  1.3644 0.4403 -0.2288
v  1.5376 0.5066 -0.2013
v  1.5376 0.4826 -0.1436
v  1.6432 0.3741 -0.1209
v  1.6193 0.4275 -0.0988
v  1.3883 0.3869 -0.2509
v  1.5854 0.3999 -0.2455
v  1.3883 0.3391 -0.1354
v  1.5615 0.4293 -0.1657
v  1.5615 0.4054 -0.1079
v  1.5376 0.4587 -0.0858
v  1.5953 0.4808 -0.0767
v  1.3644 0.4164 -0.1710
v  1.5854 0.3520 -0.1300
v  1.6432 0.4220 -0.2364
v  1.6193 0.4753 -0.2143
v  1.5615 0.3815 -0.0502
v  1.3883 0.3630 -0.1931
v  1.5854 0.3760 -0.1878
v  1.5854 0.3281 -0.0723
v  1.6432 0.3980 -0.1786
v  1.6432 0.3502 -0.0631
v  1.3644 0.4164 0.1710
v  1.3883 0.3869 0.2509
v  1.3644 0.4403 0.2288
v  1.5376 0.5066 0.2013
v  1.6193 0.4753 0.2143
v  1.5953 0.5287 0.1922
v  1.6193 0.4275 0.0988
v  1.5953 0.4569 0.0189
v  1.5953 0.4808 0.0767
v  1.5615 0.3815 0.0502
v  1.3644 0.3685 0.0555
v  1.5376 0.4348 0.0281
v  1.5376 0.4587 0.0858
v  1.6432 0.3980 0.1786
v  1.6193 0.4514 0.1565
v  1.3883 0.3152 0.0776
v  1.5854 0.3281 0.0723
v  1.5615 0.4293 0.1657
v  1.3883 0.3391 0.1354
v  1.5615 0.4054 0.1079
v  1.5376 0.4826 0.1436
v  1.5953 0.5047 0.1344
v  1.3644 0.3924 0.1133
v  1.5854 0.3760 0.1878
v  1.6432 0.3502 0.0631
v  1.6193 0.4036 0.0410
v  1.5615 0.4532 0.2234
v  1.5854 0.3520 0.1300
v  1.5854 0.3999 0.2455
v  1.6432 0.3741 0.1209
v  1.6432 0.4220 0.2364
v  1.3883 0.3630 0.1931
v  1.3644 0.6343 0.3552
v  1.3883 0.6700 0.4324
v  1.3644 0.6920 0.3791
v  1.5376 0.7195 0.3128
v  1.6193 0.7066 0.3440
v  1.5953 0.7287 0.2907
v  1.6193 0.5911 0.2962
v  1.5953 0.5554 0.2189
v  1.5953 0.6132 0.2429
v  1.5615 0.5242 0.2944
v  1.3644 0.5188 0.3073
v  1.5376 0.5463 0.2410
v  1.5376 0.6040 0.2649
v  1.6193 0.6488 0.3201
v  1.6432 0.6845 0.3974
v  1.6432 0.6267 0.3735
v  1.3883 0.4967 0.3607
v  1.5854 0.5021 0.3477
v  1.5615 0.6397 0.3422
v  1.3883 0.5545 0.3846
v  1.5615 0.5819 0.3183
v  1.5953 0.6709 0.2668
v  1.5376 0.6618 0.2889
v  1.3644 0.5766 0.3312
v  1.3883 0.6122 0.4085
v  1.5854 0.6176 0.3956
v  1.6432 0.5112 0.3256
v  1.6193 0.5333 0.2723
v  1.5615 0.6974 0.3661
v  1.5854 0.5598 0.3716
v  1.5854 0.6753 0.4195
v  1.6432 0.5690 0.3495
v  1.3644 0.9186 0.3312
v  1.3883 0.9985 0.3607
v  1.3644 0.9764 0.3073
v  1.5376 0.9489 0.2410
v  1.6193 0.9618 0.2723
v  1.5953 0.9398 0.2189
v  1.6193 0.8464 0.3201
v  1.5953 0.7665 0.2907
v  1.5953 0.8243 0.2668
v  1.5615 0.7978 0.3661
v  1.3644 0.8031 0.3791
v  1.5376 0.7757 0.3128
v  1.5376 0.8334 0.2889
v  1.6432 0.9262 0.3495
v  1.6193 0.9041 0.2962
v  1.3883 0.8252 0.4324
v  1.5854 0.8199 0.4195
v  1.5615 0.9133 0.3183
v  1.3883 0.8830 0.4085
v  1.5615 0.8555 0.3422
v  1.5376 0.8912 0.2649
v  1.5953 0.8820 0.2429
v  1.3644 0.8609 0.3552
v  1.3883 0.9407 0.3846
v  1.5854 0.8776 0.3956
v  1.5854 0.9354 0.3716
v  1.6432 0.8107 0.3974
v  1.6193 0.7886 0.3440
v  1.5615 0.9710 0.2944
v  1.5854 0.9931 0.3477
v  1.6432 0.8685 0.3735
v  1.6432 0.9839 0.3256
v  -0.1859 1.3049 0.4693
v  -0.1859 1.2607 0.6018
v  -0.1859 1.3491 0.5135
v  0.0641 1.3491 0.5135
v  0.0641 1.2607 0.6018
v  0.0641 1.3049 0.4693
v  0.0641 1.2165 0.5577
v  -0.1530 1.3025 0.5549
v  0.0331 1.3905 0.6429
v  -0.1530 1.3905 0.6429
v  -0.1859 0.2807 0.5549
v  -0.1859 0.1482 0.5107
v  -0.1859 0.2365 0.5991
v  0.0641 0.2365 0.5991
v  0.0641 0.1482 0.5107
v  0.0641 0.2807 0.5549
v  0.0641 0.1923 0.4665
v  0.0331 0.1951 0.5525
v  -0.1530 0.1071 0.6405
v  -0.1530 0.1951 0.5525
v  -0.1859 0.1951 -0.4693
v  -0.1859 0.2393 -0.6018
v  -0.1859 0.1509 -0.5135
v  0.0641 0.1509 -0.5135
v  0.0641 0.2393 -0.6018
v  0.0641 0.1951 -0.4693
v  0.0641 0.2835 -0.5577
v  0.0331 0.1975 -0.5549
v  -0.1530 0.1095 -0.6429
v  -0.1530 0.1975 -0.5549
v  -0.1859 1.2193 -0.5549
v  -0.1859 1.3518 -0.5107
v  -0.1859 1.2635 -0.5991
v  0.0641 1.3518 -0.5107
v  0.0641 1.2635 -0.5991
v  0.0641 1.2193 -0.5549
v  0.0641 1.3077 -0.4665
v  0.0331 1.3049 -0.5525
v  -0.1530 1.3929 -0.6405
v  -0.1530 1.3049 -0.5525
v  -1.0775 1.0476 0.3625
v  -1.0775 1.0918 0.3442
v  -1.0775 1.0034 0.2558
v  -1.0775 0.4058 0.3418
v  -1.0775 0.4942 0.3418
v  -1.0775 0.4942 0.2534
v  -1.0775 0.4082 -0.3442
v  -1.0775 0.4082 -0.2558
v  -1.0775 0.4966 -0.2558
v  -1.0775 1.0942 -0.3418
v  -1.0775 1.0058 -0.3418
v  -1.0775 1.0058 -0.2534
v  -0.0313 1.5865 -0.0313
v  0.0313 1.5240 -0.0313
v  -0.0313 1.5240 -0.0313
v  0.0313 1.5240 0.0312
v  -0.0313 1.5865 0.0312
v  -0.0313 1.5240 0.0312
v  0.0313 1.5865 0.0312
v  0.0313 1.5865 -0.0313
v  -0.0938 1.5553 0.0312
v  -0.0938 1.5240 -0.0313
v  -0.0938 1.5240 0.0312
v  -0.0938 1.5553 -0.0313
v  0.0938 1.5240 -0.0313
v  0.0938 1.5553 0.0312
v  0.0938 1.5240 0.0312
v  0.0938 1.5553 -0.0313
v  -0.0313 1.4451 0.4664
v  0.0313 1.3945 0.4297
v  -0.0313 1.3945 0.4297
v  0.0313 1.4084 0.5170
v  -0.0313 1.3578 0.4802
v  0.0313 1.3578 0.4802
v  0.0313 1.4451 0.4664
v  -0.0313 1.4084 0.5170
v  -0.0938 1.3831 0.4986
v  -0.0938 1.3945 0.4297
v  -0.0938 1.3578 0.4802
v  -0.0938 1.4198 0.4480
v  0.0938 1.3945 0.4297
v  0.0938 1.3831 0.4986
v  0.0938 1.3578 0.4802
v  0.0938 1.4198 0.4480
v  -0.0313 1.0382 0.7859
v  0.0313 1.0189 0.7265
v  -0.0313 1.0189 0.7265
v  0.0313 0.9788 0.8052
v  -0.0313 0.9595 0.7458
v  0.0313 0.9595 0.7458
v  0.0313 1.0382 0.7859
v  -0.0938 0.9691 0.7755
v  -0.0938 1.0189 0.7265
v  -0.0938 0.9595 0.7458
v  -0.0313 0.9788 0.8052
v  -0.0938 1.0286 0.7562
v  0.0938 1.0189 0.7265
v  0.0938 0.9691 0.7755
v  0.0938 0.9595 0.7458
v  0.0938 1.0286 0.7562
v  -0.0313 0.5212 0.8052
v  0.0313 0.5405 0.7458
v  -0.0313 0.5405 0.7458
v  0.0313 0.4811 0.7265
v  -0.0313 0.4618 0.7859
v  -0.0313 0.4811 0.7265
v  0.0313 0.4618 0.7859
v  0.0313 0.5212 0.8052
v  -0.0938 0.4714 0.7562
v  -0.0938 0.5405 0.7458
v  -0.0938 0.4811 0.7265
v  -0.0938 0.5309 0.7755
v  0.0938 0.5309 0.7755
v  0.0938 0.4811 0.7265
v  0.0938 0.5405 0.7458
v  0.0938 0.4714 0.7562
v  -0.0313 0.0916 0.5170
v  0.0313 0.1422 0.4802
v  -0.0313 0.1422 0.4802
v  0.0313 0.0549 0.4664
v  -0.0313 0.1055 0.4297
v  0.0313 0.1055 0.4297
v  0.0313 0.0916 0.5170
v  -0.0313 0.0549 0.4664
v  -0.0938 0.1055 0.4297
v  -0.0938 0.1169 0.4986
v  -0.0938 0.1422 0.4802
v  -0.0938 0.0802 0.4480
v  0.0938 0.1169 0.4986
v  0.0938 0.1055 0.4297
v  0.0938 0.1422 0.4802
v  0.0938 0.0802 0.4480
v  -0.0313 -0.0865 0.0313
v  0.0313 -0.0240 0.0313
v  -0.0313 -0.0240 0.0313
v  0.0313 -0.0240 -0.0312
v  -0.0313 -0.0865 -0.0312
v  -0.0313 -0.0240 -0.0312
v  0.0313 -0.0865 -0.0312
v  0.0313 -0.0865 0.0313
v  -0.0938 -0.0553 -0.0312
v  -0.0938 -0.0240 0.0313
v  -0.0938 -0.0240 -0.0312
v  -0.0938 -0.0553 0.0313
v  0.0938 -0.0553 0.0313
v  0.0938 -0.0240 -0.0312
v  0.0938 -0.0240 0.0313
v  0.0938 -0.0553 -0.0312
v  -0.0313 0.0549 -0.4664
v  0.0313 0.1054 -0.4297
v  -0.0313 0.1054 -0.4297
v  0.0313 0.0916 -0.5170
v  -0.0313 0.1422 -0.4802
v  0.0313 0.1422 -0.4802
v  0.0313 0.0549 -0.4664
v  -0.0938 0.1422 -0.4802
v  -0.0938 0.0802 -0.4480
v  -0.0938 0.1054 -0.4297
v  -0.0938 0.1169 -0.4986
v  -0.0313 0.0916 -0.5170
v  0.0938 0.0802 -0.4480
v  0.0938 0.1422 -0.4802
v  0.0938 0.1054 -0.4297
v  0.0938 0.1169 -0.4986
v  -0.0313 0.4618 -0.7859
v  0.0313 0.4811 -0.7265
v  -0.0313 0.4811 -0.7265
v  0.0313 0.5212 -0.8052
v  -0.0313 0.5405 -0.7458
v  0.0313 0.5405 -0.7458
v  0.0313 0.4618 -0.7859
v  -0.0938 0.5405 -0.7458
v  -0.0938 0.4714 -0.7562
v  -0.0938 0.4811 -0.7265
v  -0.0938 0.5309 -0.7755
v  -0.0313 0.5212 -0.8052
v  0.0938 0.4714 -0.7562
v  0.0938 0.5405 -0.7458
v  0.0938 0.4811 -0.7265
v  0.0938 0.5309 -0.7755
v  -0.0313 0.9788 -0.8052
v  0.0313 0.9595 -0.7458
v  -0.0313 0.9595 -0.7458
v  0.0313 1.0382 -0.7859
v  -0.0313 1.0189 -0.7265
v  0.0313 1.0189 -0.7265
v  0.0313 0.9788 -0.8052
v  -0.0313 1.0382 -0.7859
v  -0.0938 1.0189 -0.7265
v  -0.0938 0.9691 -0.7755
v  -0.0938 0.9595 -0.7458
v  -0.0938 1.0286 -0.7562
v  0.0938 0.9691 -0.7755
v  0.0938 1.0189 -0.7265
v  0.0938 0.9595 -0.7458
v  0.0938 1.0286 -0.7562
v  -0.0313 1.4084 -0.5170
v  0.0313 1.3578 -0.4802
v  -0.0313 1.3578 -0.4802
v  0.0313 1.3945 -0.4297
v  -0.0313 1.4451 -0.4664
v  -0.0313 1.3945 -0.4297
v  0.0313 1.4451 -0.4664
v  0.0313 1.4084 -0.5170
v  -0.0938 1.3945 -0.4297
v  -0.0938 1.3831 -0.4986
v  -0.0938 1.3578 -0.4802
v  -0.0938 1.4198 -0.4480
v  0.0938 1.3831 -0.4986
v  0.0938 1.3945 -0.4297
v  0.0938 1.3578 -0.4802
v  0.0938 1.4198 -0.4480
v  1.8602 0.4733 0.2767
v  1.8193 0.9798 0.2303
v  1.8602 1.0267 0.2767
v  1.8602 0.4733 -0.2767
v  1.5552 1.4837 -0.7337
v  1.8602 1.0267 -0.2767
v  1.5552 0.0163 -0.7337
v  1.5552 1.4837 0.7337
v  1.5552 0.0163 0.7337
v  1.8193 0.5166 0.2303
v  1.4941 0.0163 -0.7337
v  1.4941 0.0163 0.7337
v  1.4941 1.4837 0.7337
v  1.4941 1.4837 -0.7337
v  1.8193 0.9798 -0.2329
v  1.8193 0.5166 -0.2329
v  1.8693 0.5567 0.0156
v  1.4943 0.0069 0.0156
v  1.9943 0.0069 0.0156
v  0.6674 0.5567 0.0156
v  1.4943 0.0069 -0.0156
v  1.8693 0.5567 -0.0156
v  1.9943 0.0069 -0.0156
v  1.8693 0.7632 0.1909
v  1.4943 0.7632 0.7384
v  1.9943 0.7632 0.7384
v  0.6674 0.7632 0.1909
v  1.4943 0.7320 0.7384
v  1.8693 0.7320 0.1909
v  1.9943 0.7320 0.7384
v  1.8693 0.9385 -0.0156
v  1.4943 1.4860 -0.0156
v  1.9943 1.4860 -0.0156
v  0.6674 0.9385 -0.0156
v  1.4943 1.4860 0.0156
v  1.8693 0.9385 0.0156
v  1.9943 1.4860 0.0156
v  1.8693 0.7320 -0.1909
v  1.4943 0.7320 -0.7407
v  1.9943 0.7320 -0.7407
v  0.6674 0.7320 -0.1909
v  1.4943 0.7632 -0.7407
v  1.8693 0.7632 -0.1909
v  1.9943 0.7632 -0.7407
v  2.0333 1.4375 -0.6875
v  1.4708 0.0625 -0.6875
v  2.0333 0.0625 -0.6875
v  1.4708 1.5000 -0.7500
v  2.0333 0.0000 -0.7500
v  1.4708 0.0000 -0.7500
v  1.4708 0.0625 0.6875
v  2.0333 0.0625 0.6875
v  2.0333 1.5000 0.7500
v  1.4708 0.0000 0.7500
v  2.0333 0.0000 0.7500
v  2.0333 1.5000 -0.7500
v  2.0333 1.4375 0.6875
v  1.4708 1.5000 0.7500
v  1.4708 1.4375 0.6875
v  1.4708 1.4375 -0.6875
v  1.8694 0.6274 0.1443
v  1.4989 0.0310 0.7407
v  1.9929 0.0310 0.7407
v  0.6720 0.6056 0.1225
v  1.4989 0.0092 0.7189
v  1.8694 0.6056 0.1225
v  1.9929 0.0092 0.7189
v  1.8694 0.8919 0.1202
v  1.4989 1.4883 0.7165
v  1.9929 1.4883 0.7165
v  0.6720 0.8701 0.1420
v  1.4989 1.4664 0.7384
v  1.8694 0.8701 0.1420
v  1.9929 1.4664 0.7384
v  1.8694 0.8678 -0.1443
v  1.4989 1.4641 -0.7407
v  1.9929 1.4641 -0.7407
v  0.6720 0.8678 -0.1443
v  1.4989 1.4860 -0.7188
v  1.8694 0.8896 -0.1225
v  1.9929 1.4860 -0.7188
v  1.8694 0.6033 -0.1202
v  1.4989 0.0069 -0.7165
v  1.9929 0.0069 -0.7165
v  0.6720 0.6033 -0.1202
v  1.4989 0.0287 -0.7384
v  1.8694 0.6251 -0.1420
v  1.9929 0.0287 -0.7384
v  1.8744 0.6871 -0.1862
v  1.8744 0.8627 -0.1584
v  1.8744 0.7476 -0.1958
v  1.8744 0.8081 -0.1862
v  1.8744 0.9060 -0.1151
v  1.8744 0.9338 -0.0605
v  1.8744 0.9434 -0.0000
v  1.8744 0.9060 0.1151
v  1.8744 0.8627 0.1584
v  1.8744 0.8081 0.1862
v  1.8744 0.7476 0.1958
v  1.8744 0.6871 0.1862
v  1.8744 0.6325 0.1584
v  1.8744 0.5892 0.1151
v  1.8744 0.5518 0.0000
v  1.8744 0.5614 -0.0605
v  1.8744 0.5892 -0.1151
v  -0.1859 1.2165 0.5577
v  0.0331 1.3025 0.5549
v  -0.1859 0.1923 0.4665
v  0.0331 0.1071 0.6405
v  -0.1859 0.2835 -0.5577
v  0.0331 0.1095 -0.6429
v  -0.1859 1.3077 -0.4665
v  0.0331 1.3929 -0.6405
v  -1.0775 1.1101 0.3000
v  -1.0775 1.0918 0.2558
v  -1.0775 1.0476 0.2375
v  -1.0775 0.9851 0.3000
v  -1.0775 1.0034 0.3442
v  -1.0775 0.4500 0.3601
v  -1.0775 0.5125 0.2976
v  -1.0775 0.4500 0.2351
v  -1.0775 0.4058 0.2534
v  -1.0775 0.3875 0.2976
v  -1.0775 0.3899 -0.3000
v  -1.0775 0.4524 -0.2375
v  -1.0775 0.5149 -0.3000
v  -1.0775 0.4966 -0.3442
v  -1.0775 0.4524 -0.3625
v  -1.0775 1.0500 -0.3601
v  -1.0775 0.9875 -0.2976
v  -1.0775 1.0500 -0.2351
v  -1.0775 1.0942 -0.2534
v  -1.0775 1.1125 -0.2976
v  0.6674 0.5567 -0.0156
v  0.6674 0.7320 0.1909
v  0.6674 0.9385 0.0156
v  0.6674 0.7632 -0.1909
v  0.6720 0.6274 0.1443
v  0.6720 0.8919 0.1202
v  0.6720 0.8896 -0.1225
v  0.6720 0.6251 -0.1420
v  0.2287 0.7476 -0.7829
v  -0.1540 0.5057 -0.7446
v  -0.1540 0.7476 -0.7829
v  0.2287 0.5057 -0.7446
v  -0.1540 0.2874 -0.6334
v  0.2287 0.2874 -0.6334
v  -0.1540 0.1142 -0.4602
v  0.2287 0.1142 -0.4602
v  -0.1540 0.0030 -0.2419
v  0.2287 0.0030 -0.2419
v  -0.1540 -0.0353 -0.0000
v  0.2287 -0.0353 -0.0000
v  -0.1540 0.0030 0.2419
v  0.2287 0.1142 0.4602
v  -0.1540 0.1142 0.4602
v  0.2287 0.2874 0.6334
v  -0.1540 0.2874 0.6334
v  0.2287 0.5057 0.7446
v  -0.1540 0.5057 0.7446
v  -0.1540 0.7476 0.7829
v  0.2287 0.9895 0.7446
v  -0.1540 0.9895 0.7446
v  0.2287 1.2078 0.6334
v  -0.1540 1.2078 0.6334
v  0.2287 1.3810 0.4602
v  -0.1540 1.3810 0.4602
v  0.2287 1.4922 0.2419
v  -0.1540 1.4922 0.2419
v  0.2287 1.5305 -0.0000
v  -0.1540 1.5305 -0.0000
v  -0.1540 1.4922 -0.2419
v  0.2287 1.4921 -0.2419
v  -0.1540 1.3810 -0.4602
v  0.2287 1.3810 -0.4602
v  -0.1540 1.2078 -0.6334
v  0.2287 1.2078 -0.6334
v  -0.1540 0.9895 -0.7446
v  0.2287 0.9895 -0.7446
v  -0.5249 0.0504 0.0000
v  -0.8035 0.2148 0.1731
v  -0.8035 0.1874 -0.0000
v  -0.5249 1.4447 -0.0000
v  -0.5249 1.4106 0.2154
v  -0.5249 0.9630 -0.6630
v  -0.5249 0.3378 -0.5640
v  -0.5249 0.3378 0.5640
v  -0.5249 0.1836 0.4098
v  -0.5249 0.7476 -0.6972
v  -0.5249 1.3116 0.4098
v  -0.5249 1.1574 0.5640
v  -0.5249 1.3116 -0.4098
v  -0.5249 0.9630 0.6630
v  -0.5249 0.7476 0.6972
v  -0.5249 1.4106 -0.2154
v  -0.5249 0.1836 -0.4098
v  -0.5249 0.5322 0.6630
v  -0.5249 1.1574 -0.5640
v  -0.5249 0.5322 -0.6630
v  -0.5249 0.0846 0.2154
v  -0.5249 0.0846 -0.2154
v  -0.8035 0.4183 0.4532
v  -1.0578 0.6304 0.3606
v  -1.0578 0.5247 0.3067
v  -0.8035 1.2008 0.3293
v  -0.8035 1.2803 0.1731
v  -0.8035 0.2944 0.3293
v  -0.8035 0.5745 -0.5327
v  -0.8035 0.7476 -0.5602
v  -0.8035 1.3078 -0.0000
v  -0.8035 0.4183 -0.4532
v  -0.8035 1.2008 -0.3293
v  -0.8035 1.2803 -0.1731
v  -0.8035 0.2944 -0.3293
v  -0.8035 1.0768 -0.4532
v  -0.8035 0.7476 0.5602
v  -0.8035 0.2148 -0.1731
v  -0.8035 0.9207 -0.5327
v  -0.8035 0.9207 0.5327
v  -0.8035 1.0768 0.4532
v  -1.0578 0.3870 -0.1172
v  -1.1683 0.5306 -0.1576
v  -1.0578 0.4409 -0.2229
v  -1.0578 0.6304 -0.3606
v  -1.0578 1.1082 -0.1172
v  -1.0578 0.5247 -0.3067
v  -1.0578 1.0543 -0.2229
v  -1.0578 0.8648 0.3606
v  -1.0578 0.7476 0.3791
v  -1.0578 0.9704 -0.3067
v  -1.0578 0.9704 0.3067
v  -1.0578 0.8648 -0.3606
v  -1.0578 1.0543 0.2229
v  -1.0578 0.3685 -0.0000
v  -1.0578 1.1082 0.1172
v  -1.0578 0.4409 0.2229
v  -1.0578 0.3870 0.1172
v  -1.0578 1.1267 -0.0000
v  -1.0578 0.7476 -0.3791
v  -1.1683 1.0026 0.0829
v  -1.2214 0.8427 0.0691
v  -1.1683 0.9645 0.1576
v  -1.1683 0.8305 -0.2550
v  -1.1683 0.9052 -0.2169
v  -1.1683 0.9052 0.2169
v  -1.1683 0.8305 0.2550
v  -1.1683 0.4926 -0.0829
v  -1.1683 0.7476 -0.2682
v  -1.1683 0.4794 0.0000
v  -0.8035 0.5745 0.5327
v  -1.1683 0.4926 0.0829
v  -1.1683 1.0158 0.0000
v  -1.1683 0.5306 0.1576
v  -1.1683 0.6647 -0.2550
v  -1.1683 1.0026 -0.0829
v  -1.1683 0.5900 0.2169
v  -1.1683 0.9645 -0.1576
v  -1.1683 0.5900 -0.2169
v  -1.1683 0.7476 0.2682
v  -1.2214 0.7476 -0.1176
v  -1.2214 0.6358 -0.0363
v  -1.2214 0.6785 0.0951
v  -1.2214 0.6525 0.0691
v  -1.2214 0.6358 0.0363
v  -1.2214 0.8594 0.0363
v  -1.2214 0.8652 0.0000
v  -1.2214 0.7113 0.1118
v  -1.2214 0.7113 -0.1118
v  -1.2214 0.8594 -0.0363
v  -1.1683 0.6647 0.2550
v  -1.2214 0.6785 -0.0951
v  -1.2214 0.8427 -0.0691
v  -1.2214 0.7839 0.1118
v  -1.2214 0.7476 0.1176
v  -1.2214 0.6525 -0.0691
v  -1.2214 0.8167 -0.0951
v  -1.2214 0.8167 0.0951
v  -1.2214 0.6300 0.0000
v  -1.2214 0.7839 -0.1118
v  1.1107 0.2479 0.1623
v  1.1107 0.3226 0.3088
v  1.1107 0.4388 -0.4250
v  1.1107 0.3226 -0.3088
v  1.1107 1.0564 -0.4250
v  0.2287 0.7476 0.7829
v  1.1107 0.9099 0.4996
v  1.1107 0.2479 -0.1623
v  1.1107 0.9099 -0.4996
v  1.1107 1.0564 0.4250
v  1.1107 0.2222 0.0000
v  1.1107 0.7476 -0.5254
v  1.1107 1.1726 0.3088
v  0.2287 0.0030 0.2419
v  1.1107 1.2472 0.1623
v  1.1107 1.2729 -0.0000
v  1.1107 0.4388 0.4250
v  1.1107 0.5852 -0.4996
v  1.1107 1.2472 -0.1623
v  1.1107 0.5852 0.4996
v  1.1107 1.1726 -0.3088
v  1.1107 0.7476 0.5254
v  -0.8275 1.1101 0.3000
v  -0.8275 1.0918 0.2558
v  -0.8275 1.0476 0.2375
v  -0.8275 1.0034 0.2558
v  -0.8275 1.0034 0.3442
v  -0.8275 1.0476 0.3625
v  -0.8275 1.0918 0.3442
v  -0.8275 0.4500 0.3601
v  -0.8275 0.4942 0.3418
v  -0.8275 0.5125 0.2976
v  -0.8275 0.4942 0.2534
v  -0.8275 0.4500 0.2351
v  -0.8275 0.4058 0.2534
v  -0.8275 0.3875 0.2976
v  -0.8275 0.4058 0.3418
v  -0.8275 0.3899 -0.3000
v  -0.8275 0.4524 -0.2375
v  -0.8275 0.5149 -0.3000
v  -0.8275 0.4966 -0.3442
v  -0.8275 0.4524 -0.3625
v  -0.8275 0.4082 -0.3442
v  -0.8275 1.0058 -0.3418
v  -0.8275 0.9875 -0.2976
v  -0.8275 1.0500 -0.2351
v  -0.8275 1.0942 -0.2534
v  -0.8275 1.1125 -0.2976
v  -0.8275 1.0942 -0.3418
v  -0.8275 0.9851 0.3000
v  -0.8275 0.4082 -0.2558
v  -0.8275 0.4966 -0.2558
v  -0.8275 1.0500 -0.3601
v  -0.8275 1.0058 -0.2534
# 804 vertices

vn 1.0000 0.0000 -0.0000
vn -0.9239 0.3536 0.1464
vn 0.0000 0.3827 -0.9239
vn 0.9239 -0.3536 -0.1464
vn 0.0000 -0.3827 0.9239
vn -0.3827 -0.8536 -0.3536
vn 0.3827 0.8536 0.3536
vn 0.0709 0.9216 0.3817
vn -0.9239 0.3536 -0.1464
vn 0.0000 -0.3827 -0.9239
vn 0.9239 -0.3536 0.1464
vn 0.0000 0.3827 0.9239
vn -0.3827 -0.8536 0.3536
vn 0.3827 0.8536 -0.3536
vn 0.9239 -0.3535 0.1464
vn 0.0709 0.9216 -0.3817
vn -0.9239 0.1464 -0.3536
vn 0.0000 -0.9239 -0.3827
vn 0.9239 -0.1464 0.3536
vn 0.0000 0.9239 0.3827
vn -0.3827 -0.3536 0.8536
vn 0.3827 0.3536 -0.8536
vn 0.0709 0.3817 -0.9216
vn -0.9239 -0.1464 -0.3536
vn 0.0000 -0.9239 0.3827
vn 0.9239 0.1464 0.3536
vn 0.0000 0.9239 -0.3827
vn -0.3827 0.3536 0.8536
vn 0.3827 -0.3536 -0.8536
vn -0.9239 -0.1465 -0.3536
vn 0.0709 -0.3817 -0.9216
vn -0.9239 -0.3536 -0.1464
vn 0.9239 0.3536 0.1464
vn -0.3827 0.8536 0.3536
vn 0.3827 -0.8536 -0.3536
vn -0.9239 -0.3535 -0.1464
vn 0.0709 -0.9216 -0.3817
vn -0.9239 -0.3536 0.1464
vn 0.9239 0.3536 -0.1464
vn -0.3827 0.8536 -0.3536
vn 0.3827 -0.8536 0.3536
vn 0.0709 -0.9216 0.3817
vn -0.9239 -0.1464 0.3536
vn 0.9239 0.1464 -0.3536
vn -0.3827 0.3536 -0.8536
vn 0.3827 -0.3536 0.8536
vn -0.9239 -0.1465 0.3536
vn 0.0709 -0.3817 0.9216
vn 0.9239 0.1465 -0.3536
vn -0.9239 0.1464 0.3536
vn 0.9239 -0.1464 -0.3536
vn -0.3827 -0.3536 -0.8536
vn 0.3827 0.3536 0.8536
vn 0.0709 0.3817 0.9216
vn -1.0000 0.0000 -0.0000
vn 0.0000 0.7071 0.7071
vn 0.0000 0.7071 -0.7071
vn 0.0000 -0.7071 0.7071
vn 0.0000 -0.7071 -0.7071
vn 0.0000 0.0000 -1.0000
vn 0.0000 0.0000 1.0000
vn 0.0000 1.0000 -0.0000
vn -0.4472 0.8944 -0.0000
vn 0.4472 0.8944 -0.0000
vn 0.0000 0.5878 -0.8090
vn 0.0000 -0.5878 0.8090
vn 0.0000 0.8090 0.5878
vn -0.4472 0.7236 0.5257
vn 0.4472 0.7236 0.5257
vn 0.0000 0.9511 -0.3090
vn 0.0000 -0.9511 0.3090
vn 0.0000 0.3090 0.9511
vn -0.4472 0.2764 0.8507
vn 0.4472 0.2764 0.8507
vn 0.0000 0.9511 0.3090
vn 0.0000 -0.9511 -0.3090
vn 0.0000 -0.3090 0.9511
vn -0.4472 -0.2764 0.8507
vn 0.4472 -0.2764 0.8507
vn 0.0000 0.5878 0.8090
vn 0.0000 -0.5878 -0.8090
vn 0.0000 -0.8090 0.5878
vn -0.4472 -0.7236 0.5257
vn 0.4472 -0.7236 0.5257
vn 0.0000 -1.0000 -0.0000
vn -0.4472 -0.8944 -0.0000
vn 0.4472 -0.8944 -0.0000
vn 0.0000 -0.8090 -0.5878
vn -0.4472 -0.7236 -0.5257
vn 0.4472 -0.7236 -0.5257
vn 0.0000 -0.3090 -0.9511
vn -0.4472 -0.2764 -0.8507
vn 0.4472 -0.2764 -0.8507
vn 0.0000 0.3090 -0.9511
vn -0.4472 0.2764 -0.8507
vn 0.4472 0.2764 -0.8507
vn 0.0000 0.8090 -0.5878
vn -0.4472 0.7236 -0.5257
vn 0.4472 0.7236 -0.5257
vn 0.7501 0.0000 -0.6614
vn 0.8318 0.0000 -0.5550
vn 0.8318 -0.5550 -0.0000
vn 0.8318 0.5550 -0.0000
vn 0.8318 0.0000 0.5550
vn -0.8384 0.5450 -0.0000
vn -0.8400 0.0000 -0.5426
vn -0.8402 -0.5422 -0.0000
vn -0.8387 0.0000 0.5446
vn 0.7308 0.0000 0.6826
vn 0.7537 -0.6572 -0.0000
vn 0.7267 0.6869 -0.0000
vn 0.9701 0.2425 -0.0000
vn 0.9701 0.0000 -0.2425
vn 0.9701 -0.2425 -0.0000
vn 0.9701 0.0000 0.2425
vn 0.9894 0.1025 -0.1025
vn 0.9894 -0.1025 -0.1025
vn 0.9894 -0.1025 0.1025
vn 0.9894 0.1025 0.1025
vn -0.9239 0.1465 -0.3536
vn 0.9239 -0.1465 0.3536
vn -0.9239 -0.3535 0.1464
vn 0.9239 0.3535 -0.1464
vn 0.4472 -0.2764 -0.8506
vn 0.1396 0.0000 -0.9902
vn -0.1120 -0.3070 -0.9450
vn -0.1120 0.0000 -0.9937
vn 0.1396 -0.3060 -0.9417
vn -0.1120 -0.5841 -0.8039
vn 0.1396 -0.5820 -0.8011
vn -0.1120 -0.8039 -0.5841
vn 0.1396 -0.8011 -0.5820
vn -0.1120 -0.9450 -0.3070
vn 0.1396 -0.9417 -0.3060
vn -0.1120 -0.9937 -0.0000
vn 0.1396 -0.9902 -0.0000
vn -0.1120 -0.9450 0.3070
vn 0.1396 -0.8011 0.5820
vn -0.1120 -0.8039 0.5841
vn 0.1396 -0.5820 0.8011
vn -0.1120 -0.5841 0.8039
vn 0.1396 -0.3060 0.9417
vn -0.1120 -0.3070 0.9450
vn -0.1120 0.0000 0.9937
vn 0.1396 0.3060 0.9417
vn -0.1120 0.3070 0.9450
vn 0.1396 0.5820 0.8011
vn -0.1120 0.5841 0.8039
vn 0.1396 0.8011 0.5820
vn -0.1120 0.8039 0.5841
vn 0.1396 0.9417 0.3060
vn -0.1120 0.9450 0.3070
vn 0.1396 0.9902 -0.0000
vn -0.1120 0.9937 -0.0000
vn -0.1120 0.9450 -0.3070
vn 0.1396 0.9417 -0.3060
vn -0.1120 0.8039 -0.5841
vn 0.1396 0.8011 -0.5820
vn -0.1120 0.5841 -0.8039
vn 0.1396 0.5820 -0.8011
vn -0.1120 0.3070 -0.9450
vn 0.1396 0.3060 -0.9417
vn -0.3319 -0.9433 -0.0000
vn -0.5087 -0.8188 0.2660
vn -0.5087 -0.8609 -0.0000
vn -0.3319 0.9433 -0.0000
vn -0.3319 0.8971 0.2915
vn -0.3319 0.2915 -0.8971
vn -0.3319 -0.5545 -0.7631
vn -0.3319 -0.5545 0.7631
vn -0.3319 -0.7631 0.5545
vn -0.3319 0.0000 -0.9433
vn -0.3319 0.7631 0.5545
vn -0.3319 0.5545 0.7631
vn -0.3319 0.7631 -0.5545
vn -0.3319 0.2915 0.8971
vn -0.3319 0.0000 0.9433
vn -0.3319 0.8971 -0.2915
vn -0.3319 -0.7631 -0.5545
vn -0.3319 -0.2915 0.8971
vn -0.3319 0.5545 -0.7631
vn -0.3319 -0.2915 -0.8971
vn -0.3319 -0.8971 0.2915
vn -0.3319 -0.8971 -0.2915
vn -0.5087 -0.5060 0.6965
vn -0.6424 -0.2368 0.7289
vn -0.6424 -0.4505 0.6200
vn -0.5087 0.6965 0.5060
vn -0.5087 0.8188 0.2660
vn -0.5087 -0.6965 0.5060
vn -0.5087 -0.2660 -0.8188
vn -0.5087 0.0000 -0.8609
vn -0.5087 0.8609 -0.0000
vn -0.5087 -0.5060 -0.6965
vn -0.5087 0.6965 -0.5060
vn -0.5087 0.8188 -0.2660
vn -0.5087 -0.6965 -0.5060
vn -0.5087 0.5060 -0.6965
vn -0.5087 0.0000 0.8609
vn -0.5087 -0.8188 -0.2660
vn -0.5087 0.2660 -0.8188
vn -0.5087 0.2660 0.8188
vn -0.5087 0.5060 0.6965
vn -0.6424 -0.7288 -0.2368
vn -0.8368 -0.4429 -0.3218
vn -0.6424 -0.6200 -0.4505
vn -0.6424 -0.2368 -0.7288
vn -0.6424 0.7288 -0.2368
vn -0.6424 -0.4505 -0.6200
vn -0.6424 0.6200 -0.4505
vn -0.6424 0.2368 0.7289
vn -0.6424 0.0000 0.7664
vn -0.6424 0.4505 -0.6200
vn -0.6424 0.4505 0.6200
vn -0.6424 0.2368 -0.7288
vn -0.6424 0.6200 0.4505
vn -0.6424 -0.7664 -0.0000
vn -0.6424 0.7288 0.2368
vn -0.6424 -0.6200 0.4505
vn -0.6424 -0.7289 0.2368
vn -0.6424 0.7664 -0.0000
vn -0.6424 0.0000 -0.7664
vn -0.8368 0.5207 0.1692
vn -0.9828 0.1496 0.1086
vn -0.8368 0.4429 0.3218
vn -0.8368 0.1692 -0.5207
vn -0.8368 0.3218 -0.4429
vn -0.8368 0.3218 0.4429
vn -0.8368 0.1692 0.5207
vn -0.8368 -0.5207 -0.1692
vn -0.8368 0.0000 -0.5475
vn -0.8368 -0.5475 -0.0000
vn -0.5087 -0.2660 0.8188
vn -0.8368 -0.5207 0.1692
vn -0.8368 0.5475 -0.0000
vn -0.8368 -0.4429 0.3218
vn -0.8368 -0.1692 -0.5207
vn -0.8368 0.5207 -0.1692
vn -0.8368 -0.3218 0.4429
vn -0.8368 0.4429 -0.3218
vn -0.8368 -0.3218 -0.4429
vn -0.8368 0.0000 0.5475
vn -0.9828 0.0000 -0.1849
vn -0.9828 -0.1758 -0.0571
vn -0.9828 -0.1086 0.1495
vn -0.9828 -0.1495 0.1086
vn -0.9828 -0.1758 0.0571
vn -0.9828 0.1758 0.0571
vn -0.9828 0.1849 -0.0000
vn -0.9828 -0.0571 0.1758
vn -0.9828 -0.0571 -0.1758
vn -0.9828 0.1758 -0.0571
vn -0.8368 -0.1692 0.5207
vn -0.9828 -0.1086 -0.1496
vn -0.9828 0.1496 -0.1086
vn -0.9828 0.0571 0.1758
vn -0.9828 0.0000 0.1849
vn -0.9828 -0.1496 -0.1086
vn -0.9828 0.1086 -0.1495
vn -0.9828 0.1086 0.1495
vn -0.9828 -0.1849 -0.0000
vn -0.9828 0.0571 -0.1758
vn 0.3369 -0.8954 0.2909
vn 0.8106 -0.4737 0.3442
vn 0.3369 -0.7617 0.5534
vn 0.3369 -0.5534 -0.7617
vn 0.3369 -0.7617 -0.5534
vn 0.3369 0.5534 -0.7617
vn 0.1396 0.0000 0.9902
vn 0.3369 0.2909 0.8954
vn 0.3369 -0.8954 -0.2909
vn 0.3369 0.2909 -0.8954
vn 0.3369 0.5534 0.7617
vn 0.3369 -0.9415 -0.0000
vn 0.3369 0.0000 -0.9415
vn 0.3369 0.7617 0.5534
vn 0.1396 -0.9417 0.3060
vn 0.3369 0.8954 0.2909
vn 0.3369 0.9415 -0.0000
vn 0.3369 -0.5534 0.7617
vn 0.3369 -0.2909 -0.8954
vn 0.3369 0.8954 -0.2909
vn 0.3369 -0.2909 0.8954
vn 0.3369 0.7617 -0.5534
vn 0.8106 0.5569 0.1809
vn 0.8106 0.5855 -0.0000
vn 0.8106 -0.3442 0.4737
vn 0.8106 -0.1809 -0.5569
vn 0.8106 0.5569 -0.1809
vn 0.8106 -0.1809 0.5569
vn 0.8106 -0.3442 -0.4737
vn 0.8106 0.4737 -0.3442
vn 0.8106 -0.4737 -0.3442
vn 0.8106 0.3442 -0.4737
vn 0.8106 0.0000 0.5855
vn 0.8106 0.1809 0.5569
vn 0.8106 -0.5569 -0.1809
vn 0.8106 0.1809 -0.5569
vn 0.8106 0.3442 0.4737
vn 0.8106 -0.5855 -0.0000
vn 0.8106 0.0000 -0.5855
vn 0.8106 0.4737 0.3442
vn 0.8106 -0.5569 0.1809
vn 0.3369 0.0000 0.9415
vn -0.6302 0.5490 -0.5490
vn -0.6302 0.7764 -0.0000
vn -0.6302 0.0000 -0.7764
vn -0.6302 -0.5490 -0.5490
vn -0.6302 -0.7764 -0.0000
vn -0.6302 -0.5490 0.5490
vn -0.6302 0.0000 0.7764
vn -0.6302 0.5490 0.5490
# 312 vertex normals

vt 0.9762 0.9177 0.0000
vt 0.9758 0.9649 0.0000
vt 0.9375 0.9557 0.0000
vt 0.0581 0.2689 0.0000
vt 0.0698 0.2773 0.0000
vt 0.0581 0.2773 0.0000
vt 0.1163 0.3109 0.0000
vt 0.1047 0.3193 0.0000
vt 0.1047 0.3109 0.0000
vt 0.0814 0.3193 0.0000
vt 0.0698 0.3109 0.0000
vt 0.0814 0.3109 0.0000
vt 0.0581 0.3193 0.0000
vt 0.0233 0.3109 0.0000
vt 0.0581 0.3109 0.0000
vt 0.0465 0.3025 0.0000
vt 0.0349 0.3109 0.0000
vt 0.0349 0.3025 0.0000
vt 0.0930 0.3277 0.0000
vt 0.0930 0.3193 0.0000
vt 0.0233 0.3193 0.0000
vt 0.0581 0.3277 0.0000
vt 0.0814 0.2773 0.0000
vt 0.0930 0.2521 0.0000
vt 0.0930 0.2773 0.0000
vt 0.0581 0.3025 0.0000
vt 0.0698 0.3025 0.0000
vt 0.0930 0.3109 0.0000
vt 0.0349 0.2773 0.0000
vt 0.0465 0.2689 0.0000
vt 0.0465 0.2773 0.0000
vt 0.0814 0.2857 0.0000
vt 0.0698 0.3277 0.0000
vt 0.0698 0.3193 0.0000
vt 0.1512 0.3109 0.0000
vt 0.1163 0.3193 0.0000
vt 0.1047 0.3025 0.0000
vt 0.0930 0.3025 0.0000
vt 0.0814 0.3025 0.0000
vt 0.0814 0.3277 0.0000
vt 0.0814 0.2521 0.0000
vt 0.1047 0.3277 0.0000
vt 0.1512 0.3193 0.0000
vt 0.1163 0.3277 0.0000
vt 0.1047 0.2773 0.0000
vt 0.0465 0.3109 0.0000
vt 0.0698 0.2689 0.0000
vt 0.0349 0.2689 0.0000
vt 0.0930 0.2857 0.0000
vt 0.1512 0.5210 0.0000
vt 0.1628 0.5042 0.0000
vt 0.1628 0.5210 0.0000
vt 0.2093 0.5210 0.0000
vt 0.2093 0.5042 0.0000
vt 0.2209 0.5210 0.0000
vt 0.2093 0.5294 0.0000
vt 0.1628 0.5294 0.0000
vt 0.2093 0.4958 0.0000
vt 0.2209 0.5126 0.0000
vt 0.2558 0.5294 0.0000
vt 0.2209 0.5294 0.0000
vt 0.2558 0.5126 0.0000
vt 0.0228 0.5042 0.0000
vt 0.0195 0.5100 0.0000
vt 0.0036 0.4985 0.0000
vt 0.0195 0.4985 0.0000
vt 0.0036 0.5100 0.0000
vt 0.1163 0.5210 0.0000
vt 0.1279 0.5294 0.0000
vt 0.1163 0.5294 0.0000
vt 0.1279 0.5042 0.0000
vt 0.1163 0.5126 0.0000
vt 0.1163 0.5042 0.0000
vt 0.1279 0.5126 0.0000
vt 0.1279 0.5210 0.0000
vt 0.1047 0.5126 0.0000
vt 0.0930 0.5210 0.0000
vt 0.0930 0.5126 0.0000
vt 0.1047 0.5210 0.0000
vt 0.1395 0.5126 0.0000
vt 0.1512 0.5126 0.0000
vt 0.1395 0.5210 0.0000
vt 0.8837 0.2773 0.0000
vt 0.8721 0.2017 0.0000
vt 0.8837 0.2017 0.0000
vt 0.3488 0.0756 0.0000
vt 0.5349 0.0000 0.0000
vt 0.4535 0.0756 0.0000
vt 0.8837 0.3950 0.0000
vt 0.9884 0.5294 0.0000
vt 0.8837 0.4706 0.0000
vt 0.1860 0.0840 0.0000
vt -0.0000 0.1597 0.0000
vt 0.0814 0.0840 0.0000
vt 0.9884 0.3361 0.0000
vt 0.8721 0.3950 0.0000
vt 0.7674 0.5294 0.0000
vt 0.7674 0.3361 0.0000
vt 0.7674 0.1429 0.0000
vt 0.0814 0.0756 0.0000
vt 0.2674 0.0000 0.0000
vt 0.1860 0.0756 0.0000
vt 0.4535 0.0840 0.0000
vt 0.2674 0.1597 0.0000
vt 0.3488 0.0840 0.0000
vt 0.7326 0.5294 0.0000
vt 0.6628 0.4622 0.0000
vt 0.7558 0.4622 0.0000
vt 0.6628 0.5294 0.0000
vt 0.6512 0.4622 0.0000
vt 0.5814 0.5294 0.0000
vt 0.5581 0.4622 0.0000
vt 0.7674 0.4622 0.0000
vt 0.2674 0.2521 0.0000
vt 0.0116 0.3277 0.0000
vt 0.0116 0.2521 0.0000
vt 0.2791 0.1681 0.0000
vt -0.0000 0.2437 0.0000
vt 0.0000 0.1681 0.0000
vt 0.5465 0.4202 0.0000
vt 0.2907 0.4958 0.0000
vt 0.2907 0.4202 0.0000
vt 0.0000 0.4118 0.0000
vt 0.2791 0.3361 0.0000
vt 0.2791 0.4118 0.0000
vt 0.5581 0.4118 0.0000
vt 0.5581 0.3361 0.0000
vt 0.5581 0.2437 0.0000
vt 0.2791 0.2437 0.0000
vt 0.2907 0.2521 0.0000
vt 0.5465 0.2521 0.0000
vt 0.0116 0.4202 0.0000
vt 0.2674 0.4202 0.0000
vt 0.5581 0.3277 0.0000
vt 0.2791 0.3277 0.0000
vt -0.0000 0.3361 0.0000
vt -0.0000 0.3277 0.0000
vt 0.5581 0.1597 0.0000
vt 0.2791 0.1597 0.0000
vt 0.2907 0.3277 0.0000
vt 0.0116 0.4958 0.0000
vt 0.7326 0.4622 0.0000
vt 0.6628 0.3445 0.0000
vt 0.7558 0.3445 0.0000
vt 0.6512 0.3445 0.0000
vt 0.5814 0.4622 0.0000
vt 0.5581 0.3445 0.0000
vt 0.7674 0.3445 0.0000
vt 0.9327 0.9488 0.0000
vt 0.9377 0.9265 0.0000
vt 0.9311 0.9411 0.0000
vt 0.9328 0.9334 0.0000
vt 0.9454 0.9211 0.0000
vt 0.9550 0.9176 0.0000
vt 0.9656 0.9164 0.0000
vt 0.9857 0.9213 0.0000
vt 0.9933 0.9268 0.0000
vt 0.9981 0.9337 0.0000
vt 0.9997 0.9414 0.0000
vt 0.9980 0.9491 0.0000
vt 0.9931 0.9559 0.0000
vt 0.9854 0.9614 0.0000
vt 0.9652 0.9661 0.0000
vt 0.9546 0.9648 0.0000
vt 0.9450 0.9612 0.0000
vt 0.1512 0.5042 0.0000
vt 0.2209 0.5042 0.0000
vt 0.1628 0.4958 0.0000
vt 0.0116 0.5123 0.0000
vt 0.0003 0.5042 0.0000
vt 0.0116 0.4961 0.0000
vt 0.1047 0.5042 0.0000
vt 0.1047 0.5294 0.0000
vt 0.1395 0.5294 0.0000
vt 0.1395 0.5042 0.0000
vt 0.8721 0.2773 0.0000
vt 0.9884 0.1429 0.0000
vt 0.8721 0.4706 0.0000
vt -0.0000 -0.0000 0.0000
vt 0.5349 0.1597 0.0000
vt 0.6512 0.5294 0.0000
vt 0.7558 0.5294 0.0000
vt 0.2674 0.3277 0.0000
vt 0.5465 0.4958 0.0000
vt 0.5581 0.1681 0.0000
vt 0.5465 0.3277 0.0000
vt 0.2674 0.4958 0.0000
vt 0.6977 0.7647 0.0000
vt 0.7442 0.8151 0.0000
vt 0.6977 0.8151 0.0000
vt 0.7442 0.7647 0.0000
vt 0.7907 0.8151 0.0000
vt 0.7907 0.7647 0.0000
vt 0.8372 0.8151 0.0000
vt 0.8372 0.7647 0.0000
vt 0.8837 0.8151 0.0000
vt 0.8837 0.7647 0.0000
vt 0.9302 0.8151 0.0000
vt -0.0000 0.7647 0.0000
vt 0.0465 0.8151 0.0000
vt -0.0000 0.8151 0.0000
vt 0.0930 0.7647 0.0000
vt 0.0930 0.8151 0.0000
vt 0.1395 0.7647 0.0000
vt 0.1395 0.8151 0.0000
vt 0.1860 0.7647 0.0000
vt 0.1860 0.8151 0.0000
vt 0.2326 0.8151 0.0000
vt 0.2791 0.7647 0.0000
vt 0.2791 0.8151 0.0000
vt 0.3256 0.7647 0.0000
vt 0.3256 0.8151 0.0000
vt 0.3721 0.7647 0.0000
vt 0.3721 0.8151 0.0000
vt 0.4186 0.7647 0.0000
vt 0.4186 0.8151 0.0000
vt 0.4651 0.7647 0.0000
vt 0.4651 0.8151 0.0000
vt 0.5116 0.8151 0.0000
vt 0.5116 0.7647 0.0000
vt 0.5581 0.8151 0.0000
vt 0.5581 0.7647 0.0000
vt 0.6047 0.8151 0.0000
vt 0.6047 0.7647 0.0000
vt 0.6512 0.8151 0.0000
vt 0.6512 0.7647 0.0000
vt 0.0000 0.8655 0.0000
vt 0.0407 0.9076 0.0000
vt 0.0058 0.9076 0.0000
vt 0.4651 0.8655 0.0000
vt 0.4186 0.8655 0.0000
vt 0.6512 0.8655 0.0000
vt 0.7907 0.8655 0.0000
vt 0.1395 0.8655 0.0000
vt 0.0930 0.8655 0.0000
vt 0.6977 0.8655 0.0000
vt 0.3721 0.8655 0.0000
vt 0.3256 0.8655 0.0000
vt 0.5581 0.8655 0.0000
vt 0.2791 0.8655 0.0000
vt 0.2326 0.8655 0.0000
vt 0.5116 0.8655 0.0000
vt 0.8372 0.8655 0.0000
vt 0.1860 0.8655 0.0000
vt 0.6047 0.8655 0.0000
vt 0.7442 0.8655 0.0000
vt 0.0465 0.8655 0.0000
vt 0.8837 0.8655 0.0000
vt 0.1453 0.9076 0.0000
vt 0.1744 0.9496 0.0000
vt 0.1512 0.9496 0.0000
vt 0.3779 0.9076 0.0000
vt 0.0523 0.9076 0.0000
vt 0.4244 0.9076 0.0000
vt 0.0988 0.9076 0.0000
vt 0.7384 0.9076 0.0000
vt 0.7035 0.9076 0.0000
vt 0.4709 0.9076 0.0000
vt 0.7849 0.9076 0.0000
vt 0.7500 0.9076 0.0000
vt 0.5523 0.9076 0.0000
vt 0.5174 0.9076 0.0000
vt 0.8314 0.9076 0.0000
vt 0.7965 0.9076 0.0000
vt 0.5988 0.9076 0.0000
vt 0.5640 0.9076 0.0000
vt 0.2384 0.9076 0.0000
vt 0.8779 0.9076 0.0000
vt 0.8430 0.9076 0.0000
vt 0.6453 0.9076 0.0000
vt 0.6105 0.9076 0.0000
vt 0.2849 0.9076 0.0000
vt 0.9244 0.9076 0.0000
vt 0.8895 0.9076 0.0000
vt 0.6919 0.9076 0.0000
vt 0.6570 0.9076 0.0000
vt 0.3314 0.9076 0.0000
vt 0.8721 0.9496 0.0000
vt 0.8488 0.9748 0.0000
vt 0.8488 0.9496 0.0000
vt 0.7558 0.9496 0.0000
vt 0.5233 0.9496 0.0000
vt 0.8023 0.9496 0.0000
vt 0.5698 0.9496 0.0000
vt 0.2674 0.9496 0.0000
vt 0.2442 0.9496 0.0000
vt 0.6163 0.9496 0.0000
vt 0.3140 0.9496 0.0000
vt 0.2907 0.9496 0.0000
vt 0.8953 0.9496 0.0000
vt 0.6628 0.9496 0.0000
vt 0.3605 0.9496 0.0000
vt 0.3372 0.9496 0.0000
vt 0.0116 0.9496 0.0000
vt 0.4070 0.9496 0.0000
vt 0.3837 0.9496 0.0000
vt 0.0814 0.9496 0.0000
vt 0.0581 0.9496 0.0000
vt 0.4535 0.9496 0.0000
vt 0.4302 0.9496 0.0000
vt 0.1279 0.9496 0.0000
vt 0.1047 0.9496 0.0000
vt 0.7093 0.9496 0.0000
vt 0.5000 0.9496 0.0000
vt 0.4767 0.9496 0.0000
vt 0.4070 0.9748 0.0000
vt 0.3895 1.0000 0.0000
vt 0.3837 0.9748 0.0000
vt 0.6395 0.9748 0.0000
vt 0.6163 0.9748 0.0000
vt 0.3140 0.9748 0.0000
vt 0.2907 0.9748 0.0000
vt 0.9186 0.9496 0.0000
vt 0.8953 0.9748 0.0000
vt 0.6860 0.9748 0.0000
vt 0.6628 0.9748 0.0000
vt 0.3605 0.9748 0.0000
vt 0.3372 0.9748 0.0000
vt 0.0349 0.9496 0.0000
vt 0.0116 0.9748 0.0000
vt 0.1919 0.9076 0.0000
vt 0.2267 0.9076 0.0000
vt 0.0581 0.9748 0.0000
vt 0.4535 0.9748 0.0000
vt 0.4302 0.9748 0.0000
vt 0.1047 0.9748 0.0000
vt 0.7326 0.9748 0.0000
vt 0.7093 0.9748 0.0000
vt 0.5000 0.9748 0.0000
vt 0.4767 0.9748 0.0000
vt 0.1512 0.9748 0.0000
vt 0.7791 0.9496 0.0000
vt 0.7558 0.9748 0.0000
vt 0.5465 0.9748 0.0000
vt 0.5233 0.9748 0.0000
vt 0.2209 0.9496 0.0000
vt 0.1977 0.9496 0.0000
vt 0.8256 0.9496 0.0000
vt 0.8023 0.9748 0.0000
vt 0.5930 0.9748 0.0000
vt 0.5698 0.9748 0.0000
vt 0.2442 0.9748 0.0000
vt 0.9766 0.9833 0.0000
vt 0.9607 0.9991 0.0000
vt 0.9349 0.9931 0.0000
vt 0.0756 1.0000 0.0000
vt 0.0640 1.0000 0.0000
vt 0.4360 1.0000 0.0000
vt 0.1221 1.0000 0.0000
vt 0.1105 1.0000 0.0000
vt 0.7151 1.0000 0.0000
vt 0.4826 1.0000 0.0000
vt 0.1686 1.0000 0.0000
vt 0.1570 1.0000 0.0000
vt 0.7791 0.9748 0.0000
vt 0.7616 1.0000 0.0000
vt 0.5291 1.0000 0.0000
vt 0.1977 0.9748 0.0000
vt 0.8256 0.9748 0.0000
vt 0.8081 1.0000 0.0000
vt 0.5756 1.0000 0.0000
vt 0.2616 1.0000 0.0000
vt 0.2500 1.0000 0.0000
vt 0.8663 1.0000 0.0000
vt 0.8547 1.0000 0.0000
vt 0.6221 1.0000 0.0000
vt 0.3081 1.0000 0.0000
vt 0.2965 1.0000 0.0000
vt 0.9128 1.0000 0.0000
vt 0.9012 1.0000 0.0000
vt 0.6686 1.0000 0.0000
vt 0.3547 1.0000 0.0000
vt 0.3430 1.0000 0.0000
vt 0.0291 1.0000 0.0000
vt 0.0174 1.0000 0.0000
vt 0.2151 1.0000 0.0000
vt 0.2209 0.9748 0.0000
vt 0.0523 0.6387 0.0000
vt 0.0756 0.5294 0.0000
vt 0.0872 0.6387 0.0000
vt 0.7965 0.6387 0.0000
vt 0.8314 0.6387 0.0000
vt 0.5988 0.6387 0.0000
vt 0.2326 0.7647 0.0000
vt 0.2733 0.6387 0.0000
vt 0.8430 0.6387 0.0000
vt 0.8779 0.6387 0.0000
vt 0.6453 0.6387 0.0000
vt 0.3198 0.6387 0.0000
vt 0.9302 0.7647 0.0000
vt 0.8895 0.6387 0.0000
vt 0.9244 0.6387 0.0000
vt 0.6570 0.6387 0.0000
vt 0.6919 0.6387 0.0000
vt 0.3663 0.6387 0.0000
vt 0.0465 0.7647 0.0000
vt 0.0058 0.6387 0.0000
vt 0.0407 0.6387 0.0000
vt 0.4128 0.6387 0.0000
vt 0.4593 0.6387 0.0000
vt 0.1337 0.6387 0.0000
vt 0.7035 0.6387 0.0000
vt 0.7384 0.6387 0.0000
vt 0.5058 0.6387 0.0000
vt 0.1453 0.6387 0.0000
vt 0.1802 0.6387 0.0000
vt 0.7500 0.6387 0.0000
vt 0.7849 0.6387 0.0000
vt 0.5640 0.6387 0.0000
vt 0.4360 0.5294 0.0000
vt 0.4477 0.5294 0.0000
vt 0.0988 0.6387 0.0000
vt 0.1221 0.5294 0.0000
vt 0.7267 0.5294 0.0000
vt 0.4709 0.6387 0.0000
vt 0.4942 0.5294 0.0000
vt 0.1686 0.5294 0.0000
vt 0.7733 0.5294 0.0000
vt 0.5174 0.6387 0.0000
vt 0.5407 0.5294 0.0000
vt 0.5523 0.6387 0.0000
vt 0.8198 0.5294 0.0000
vt 0.5872 0.5294 0.0000
vt 0.2500 0.5294 0.0000
vt 0.2616 0.5294 0.0000
vt 0.8663 0.5294 0.0000
vt 0.6105 0.6387 0.0000
vt 0.6337 0.5294 0.0000
vt 0.2965 0.5294 0.0000
vt 0.3081 0.5294 0.0000
vt 0.9128 0.5294 0.0000
vt 0.6802 0.5294 0.0000
vt 0.3314 0.6387 0.0000
vt 0.3547 0.5294 0.0000
vt 0.0174 0.5294 0.0000
vt 0.0291 0.5294 0.0000
vt 0.3895 0.5294 0.0000
vt 0.4012 0.5294 0.0000
vt 0.2267 0.6387 0.0000
vt 0.1919 0.6387 0.0000
vt 0.2035 0.5294 0.0000
vt 0.2151 0.5294 0.0000
vt 0.0465 0.5294 0.0000
vt 0.0349 0.5126 0.0000
vt 0.0465 0.5126 0.0000
vt 0.0349 0.5294 0.0000
vt 0.0233 0.5126 0.0000
vt 0.0233 0.5294 0.0000
vt 0.0116 0.5126 0.0000
vt 0.0116 0.5294 0.0000
vt 0.0000 0.5126 0.0000
vt 0.0814 0.5294 0.0000
vt 0.0814 0.5126 0.0000
vt 0.0698 0.5126 0.0000
vt 0.0698 0.5294 0.0000
vt 0.0581 0.5126 0.0000
vt 0.0581 0.5294 0.0000
vt 0.0930 0.5294 0.0000
vt 0.0000 0.5294 0.0000
vt 0.9302 0.8655 0.0000
vt 0.1802 0.9076 0.0000
vt 0.4128 0.9076 0.0000
vt 0.0872 0.9076 0.0000
vt 0.4593 0.9076 0.0000
vt 0.1337 0.9076 0.0000
vt 0.5058 0.9076 0.0000
vt 0.2733 0.9076 0.0000
vt 0.3198 0.9076 0.0000
vt 0.3663 0.9076 0.0000
vt 0.8721 0.9748 0.0000
vt 0.5465 0.9496 0.0000
vt 0.5930 0.9496 0.0000
vt 0.6395 0.9496 0.0000
vt 0.6860 0.9496 0.0000
vt 0.7326 0.9496 0.0000
vt 0.4012 1.0000 0.0000
vt 0.9186 0.9748 0.0000
vt 0.0349 0.9748 0.0000
vt 0.0814 0.9748 0.0000
vt 0.1279 0.9748 0.0000
vt 0.1744 0.9748 0.0000
vt 0.2674 0.9748 0.0000
vt 0.9316 0.9884 0.0000
vt 0.9305 0.9833 0.0000
vt 0.9316 0.9781 0.0000
vt 0.9349 0.9735 0.0000
vt 0.9400 0.9698 0.0000
vt 0.9464 0.9674 0.0000
vt 0.9535 0.9666 0.0000
vt 0.9607 0.9674 0.0000
vt 0.9671 0.9698 0.0000
vt 0.9722 0.9735 0.0000
vt 0.9755 0.9781 0.0000
vt 0.9755 0.9884 0.0000
vt 0.9722 0.9931 0.0000
vt 0.9671 0.9968 0.0000
vt 0.9535 0.9999 0.0000
vt 0.9464 0.9991 0.0000
vt 0.9400 0.9968 0.0000
vt 0.4477 1.0000 0.0000
vt 0.7267 1.0000 0.0000
vt 0.4942 1.0000 0.0000
vt 0.7733 1.0000 0.0000
vt 0.5407 1.0000 0.0000
vt 0.8198 1.0000 0.0000
vt 0.5872 1.0000 0.0000
vt 0.6337 1.0000 0.0000
vt 0.6802 1.0000 0.0000
vt 0.2035 1.0000 0.0000
vt 0.0640 0.5294 0.0000
vt 0.2384 0.6387 0.0000
vt 0.2849 0.6387 0.0000
vt 0.3779 0.6387 0.0000
vt 0.4244 0.6387 0.0000
vt 0.1105 0.5294 0.0000
vt 0.7151 0.5294 0.0000
vt 0.4826 0.5294 0.0000
vt 0.1570 0.5294 0.0000
vt 0.7616 0.5294 0.0000
vt 0.5291 0.5294 0.0000
vt 0.8081 0.5294 0.0000
vt 0.5756 0.5294 0.0000
vt 0.8547 0.5294 0.0000
vt 0.6221 0.5294 0.0000
vt 0.9012 0.5294 0.0000
vt 0.6686 0.5294 0.0000
vt 0.3430 0.5294 0.0000
# 527 texture coords

o fatman_Cylinder
g fatman_Cylinder
usemtl None
s off
f 1/1/1 2/2/1 3/3/1 
f 4/4/2 5/5/2 6/6/2 
f 7/7/3 8/8/3 9/9/3 
f 10/10/4 11/11/4 12/12/4 
f 13/13/5 14/14/5 15/15/5 
f 16/16/6 11/17/6 15/18/6 
f 8/8/4 17/19/4 18/20/4 
f 19/21/5 13/13/5 20/22/5 
f 21/23/7 22/24/7 23/25/7 
f 9/11/6 24/26/6 7/27/6 
f 25/15/6 16/16/6 24/26/6 
f 8/8/4 25/28/4 9/9/4 
f 18/20/4 12/12/4 25/28/4 
f 14/29/2 22/30/2 26/31/2 
f 26/31/2 4/4/2 6/6/2 
f 24/26/6 26/31/6 6/6/6 
f 7/27/6 6/6/6 5/5/6 
f 23/25/2 27/32/2 21/23/2 
f 13/13/5 28/33/5 20/22/5 
f 16/16/6 14/29/6 26/31/6 
f 29/34/5 15/15/5 11/11/5 
f 5/35/3 30/36/3 7/7/3 
f 22/25/8 20/37/8 31/38/8 
f 32/5/8 27/39/8 33/27/8 
f 27/39/7 34/28/7 17/12/7 
f 33/27/7 17/12/7 35/11/7 
f 31/38/7 28/9/7 34/28/7 
f 29/34/4 34/40/4 28/33/4 
f 4/41/5 21/23/5 27/5/5 
f 30/36/3 35/42/3 8/8/3 
f 30/36/3 32/43/3 33/44/3 
f 10/10/4 17/19/4 34/40/4 
f 23/25/3 22/24/3 31/45/3 
f 36/4/9 37/5/9 38/6/9 
f 39/7/10 40/8/10 41/9/10 
f 42/10/11 43/11/11 44/12/11 
f 45/13/12 46/14/12 47/15/12 
f 48/16/13 43/17/13 47/18/13 
f 40/8/11 49/19/11 50/20/11 
f 51/21/12 45/13/12 52/22/12 
f 36/41/14 53/25/14 54/23/14 
f 41/11/13 55/26/13 39/27/13 
f 55/26/13 44/46/13 48/16/13 
f 41/9/11 50/20/11 56/28/11 
f 50/20/15 44/12/15 56/28/15 
f 46/29/9 57/30/9 58/31/9 
f 57/30/9 38/6/9 58/31/9 
f 55/26/13 58/31/13 38/6/13 
f 39/27/13 38/6/13 37/5/13 
f 53/25/9 59/32/9 54/23/9 
f 60/34/12 52/22/12 45/13/12 
f 48/16/13 46/29/13 58/31/13 
f 60/34/12 47/15/12 43/11/12 
f 37/35/10 61/36/10 39/7/10 
f 57/25/16 52/37/16 62/38/16 
f 63/5/16 59/39/16 64/27/16 
f 59/39/14 65/28/14 49/12/14 
f 66/11/14 59/39/14 49/12/14 
f 62/38/14 67/9/14 65/28/14 
f 42/10/11 67/33/11 60/34/11 
f 36/41/12 54/23/12 59/5/12 
f 40/8/10 64/44/10 66/42/10 
f 61/36/10 63/43/10 64/44/10 
f 50/20/11 65/40/11 42/10/11 
f 53/25/10 57/24/10 62/45/10 
f 68/6/17 69/47/17 70/5/17 
f 71/7/18 72/8/18 73/9/18 
f 74/10/19 75/11/19 76/12/19 
f 77/13/20 78/14/20 79/15/20 
f 80/16/21 75/17/21 79/18/21 
f 72/8/19 81/19/19 82/20/19 
f 83/21/20 77/13/20 84/22/20 
f 85/41/22 86/25/22 87/23/22 
f 71/27/21 88/15/21 89/26/21 
f 88/15/21 80/16/21 89/26/21 
f 73/9/19 82/20/19 88/28/19 
f 88/28/19 74/10/19 76/12/19 
f 83/48/17 90/31/17 78/29/17 
f 91/30/17 68/6/17 90/31/17 
f 89/26/21 90/31/21 68/6/21 
f 71/27/21 68/6/21 70/5/21 
f 87/23/17 92/49/17 93/32/17 
f 77/13/20 94/33/20 84/22/20 
f 80/16/21 78/29/21 90/31/21 
f 95/34/20 79/15/20 75/11/20 
f 70/35/18 96/36/18 71/7/18 
f 92/38/23 83/45/23 84/37/23 
f 69/5/23 93/39/23 97/27/23 
f 93/39/22 98/28/22 81/12/22 
f 97/27/22 81/12/22 99/11/22 
f 98/28/22 84/37/22 94/9/22 
f 95/34/19 98/40/19 94/33/19 
f 85/41/20 87/23/20 93/5/20 
f 96/36/18 99/42/18 72/8/18 
f 96/36/18 69/43/18 97/44/18 
f 82/20/19 98/40/19 74/10/19 
f 86/25/18 91/24/18 92/45/18 
f 100/6/24 101/47/24 102/5/24 
f 103/7/25 104/8/25 105/9/25 
f 106/10/26 107/11/26 108/12/26 
f 109/13/27 110/14/27 111/15/27 
f 112/16/28 107/17/28 111/18/28 
f 113/20/26 114/42/26 115/19/26 
f 116/21/27 109/13/27 117/22/27 
f 118/41/29 119/25/29 120/23/29 
f 103/27/28 121/15/28 122/26/28 
f 121/15/28 112/16/28 122/26/28 
f 104/8/26 121/28/26 105/9/26 
f 113/20/26 108/12/26 121/28/26 
f 116/48/30 123/31/30 110/29/30 
f 124/30/30 100/6/30 123/31/30 
f 122/26/28 123/31/28 100/6/28 
f 103/27/28 100/6/28 102/5/28 
f 119/25/24 125/32/24 120/23/24 
f 109/13/27 126/33/27 117/22/27 
f 112/16/28 110/29/28 123/31/28 
f 127/34/27 111/15/27 107/11/27 
f 102/35/25 128/36/25 103/7/25 
f 124/25/31 117/37/31 129/38/31 
f 130/27/31 118/23/31 125/39/31 
f 125/39/29 131/28/29 115/12/29 
f 130/27/29 115/12/29 114/11/29 
f 129/38/29 126/9/29 131/28/29 
f 127/34/26 131/40/26 126/33/26 
f 118/41/27 120/23/27 125/5/27 
f 128/36/25 114/42/25 104/8/25 
f 128/36/25 101/43/25 130/44/25 
f 113/20/26 131/40/26 106/10/26 
f 119/25/25 124/24/25 129/45/25 
f 132/6/32 133/47/32 134/5/32 
f 135/7/5 136/8/5 137/9/5 
f 138/10/33 139/11/33 140/12/33 
f 141/13/3 142/14/3 143/15/3 
f 144/16/34 139/17/34 143/18/34 
f 136/8/33 145/19/33 146/20/33 
f 147/21/3 141/13/3 148/22/3 
f 149/41/35 150/25/35 151/23/35 
f 137/11/34 152/26/34 135/27/34 
f 152/26/34 140/46/34 144/16/34 
f 136/8/33 153/28/33 137/9/33 
f 153/28/33 138/10/33 140/12/33 
f 147/48/32 154/31/32 142/29/32 
f 154/31/36 149/4/36 132/6/36 
f 152/26/34 154/31/34 132/6/34 
f 134/5/34 152/26/34 132/6/34 
f 150/25/32 155/32/32 151/23/32 
f 141/13/3 156/33/3 148/22/3 
f 154/31/34 143/18/34 142/29/34 
f 157/34/3 143/15/3 139/11/3 
f 134/35/5 158/36/5 135/7/5 
f 159/25/37 148/37/37 160/38/37 
f 133/5/37 155/39/37 161/27/37 
f 155/39/35 162/28/35 145/12/35 
f 161/27/35 145/12/35 163/11/35 
f 160/38/35 156/9/35 162/28/35 
f 157/34/33 162/40/33 156/33/33 
f 149/41/3 151/23/3 155/5/3 
f 158/36/5 163/42/5 136/8/5 
f 158/36/5 133/43/5 161/44/5 
f 146/20/33 162/40/33 138/10/33 
f 150/25/5 159/24/5 160/45/5 
f 164/6/38 165/47/38 166/5/38 
f 167/7/12 168/8/12 169/9/12 
f 170/10/39 171/11/39 172/12/39 
f 173/13/10 174/14/10 175/15/10 
f 176/16/40 171/17/40 175/18/40 
f 168/8/39 177/19/39 178/20/39 
f 179/21/10 173/13/10 180/22/10 
f 181/23/41 182/24/41 183/25/41 
f 169/11/40 184/26/40 167/27/40 
f 185/15/40 176/16/40 184/26/40 
f 169/9/39 178/20/39 185/28/39 
f 185/28/39 170/10/39 172/12/39 
f 179/48/38 186/31/38 174/29/38 
f 182/30/38 164/6/38 186/31/38 
f 164/6/40 176/16/40 186/31/40 
f 167/27/40 164/6/40 166/5/40 
f 183/25/38 187/32/38 181/23/38 
f 173/13/10 188/33/10 180/22/10 
f 176/16/40 174/29/40 186/31/40 
f 189/34/10 175/15/10 171/11/10 
f 166/35/12 190/36/12 167/7/12 
f 182/25/42 180/37/42 191/38/42 
f 165/5/42 187/39/42 192/27/42 
f 187/39/41 193/28/41 177/12/41 
f 192/27/41 177/12/41 194/11/41 
f 191/38/41 188/9/41 193/28/41 
f 189/34/39 193/40/39 188/33/39 
f 195/41/10 181/23/10 187/5/10 
f 190/36/12 194/42/12 168/8/12 
f 190/36/12 165/43/12 192/44/12 
f 178/20/39 193/40/39 170/10/39 
f 183/25/12 182/24/12 191/45/12 
f 196/6/43 197/47/43 198/5/43 
f 199/7/20 200/8/20 201/9/20 
f 202/10/44 203/11/44 204/12/44 
f 205/13/18 206/14/18 207/15/18 
f 208/16/45 203/17/45 207/18/45 
f 209/20/44 210/42/44 211/19/44 
f 212/21/18 205/13/18 213/22/18 
f 214/23/46 215/24/46 216/25/46 
f 199/27/45 217/15/45 218/26/45 
f 217/15/45 208/16/45 218/26/45 
f 201/9/44 209/20/44 217/28/44 
f 209/20/44 204/12/44 217/28/44 
f 206/29/43 215/30/43 219/31/43 
f 219/31/43 220/4/43 196/6/43 
f 218/26/45 219/31/45 196/6/45 
f 199/27/45 196/6/45 198/5/45 
f 216/25/47 221/32/47 214/23/47 
f 205/13/18 222/33/18 213/22/18 
f 219/31/45 207/18/45 206/29/45 
f 223/34/18 207/15/18 203/11/18 
f 198/35/20 224/36/20 199/7/20 
f 225/38/48 212/45/48 213/37/48 
f 197/5/48 221/39/48 226/27/48 
f 221/39/46 227/28/46 211/12/46 
f 226/27/46 211/12/46 210/11/46 
f 225/38/46 222/9/46 227/28/46 
f 223/34/44 227/40/44 222/33/44 
f 220/41/18 214/23/18 221/5/18 
f 224/36/20 210/42/20 200/8/20 
f 224/36/20 197/43/20 226/44/20 
f 209/20/49 227/40/49 202/10/49 
f 216/25/20 215/24/20 225/45/20 
f 228/6/50 229/47/50 230/5/50 
f 231/7/27 232/8/27 233/9/27 
f 234/10/51 235/11/51 236/12/51 
f 237/13/25 238/14/25 239/15/25 
f 240/16/52 235/17/52 239/18/52 
f 232/8/51 241/19/51 242/20/51 
f 243/21/25 237/13/25 244/22/25 
f 245/23/53 246/24/53 247/25/53 
f 233/11/52 248/26/52 231/27/52 
f 249/15/52 240/16/52 248/26/52 
f 232/8/51 249/28/51 233/9/51 
f 242/20/51 236/12/51 249/28/51 
f 243/48/50 250/31/50 238/29/50 
f 250/31/50 251/4/50 228/6/50 
f 248/26/52 250/31/52 228/6/52 
f 231/27/52 228/6/52 230/5/52 
f 245/23/50 252/49/50 253/32/50 
f 237/13/25 254/33/25 244/22/25 
f 240/16/52 238/29/52 250/31/52 
f 255/34/25 239/15/25 235/11/25 
f 230/35/27 256/36/27 231/7/27 
f 252/38/54 243/45/54 244/37/54 
f 229/5/54 253/39/54 257/27/54 
f 253/39/53 258/28/53 241/12/53 
f 257/27/53 241/12/53 259/11/53 
f 252/38/53 254/9/53 258/28/53 
f 234/10/51 254/33/51 255/34/51 
f 251/41/25 245/23/25 253/5/25 
f 256/36/27 259/42/27 232/8/27 
f 256/36/27 229/43/27 257/44/27 
f 242/20/51 258/40/51 234/10/51 
f 247/25/27 246/24/27 252/45/27 
f 260/50/55 261/51/55 262/52/55 
f 261/51/56 263/53/56 262/52/56 
f 264/54/1 265/55/1 263/53/1 
f 262/52/57 265/56/57 260/57/57 
f 261/51/58 266/58/58 264/54/58 
f 267/59/58 268/60/58 269/61/58 
f 270/50/55 271/51/55 272/52/55 
f 271/51/58 273/53/58 272/52/58 
f 274/54/1 275/55/1 273/53/1 
f 272/52/56 275/56/56 270/57/56 
f 271/51/59 276/58/59 274/54/59 
f 277/62/59 278/61/59 279/59/59 
f 280/50/55 281/51/55 282/52/55 
f 281/51/59 283/53/59 282/52/59 
f 284/54/1 285/55/1 283/53/1 
f 282/52/58 285/56/58 280/57/58 
f 281/51/57 286/58/57 284/54/57 
f 287/62/57 288/61/57 289/59/57 
f 290/50/55 291/51/55 292/52/55 
f 292/52/57 293/54/57 294/53/57 
f 293/54/1 295/55/1 294/53/1 
f 292/52/59 295/56/59 290/57/59 
f 291/51/56 296/58/56 293/54/56 
f 297/62/56 298/61/56 299/59/56 
f 300/63/55 301/64/55 302/65/55 
f 303/66/55 304/64/55 305/67/55 
f 306/65/55 307/66/55 308/64/55 
f 309/67/55 310/65/55 311/66/55 
f 312/68/60 313/69/60 314/70/60 
f 315/71/61 316/72/61 317/73/61 
f 312/68/62 318/74/62 319/75/62 
f 320/76/55 321/77/55 322/78/55 
f 320/76/61 317/73/61 316/72/61 
f 323/79/63 316/72/63 312/68/63 
f 314/70/60 323/79/60 312/68/60 
f 324/50/1 325/80/1 326/81/1 
f 327/82/60 313/69/60 319/75/60 
f 318/74/64 327/82/64 319/75/64 
f 315/71/61 325/80/61 318/74/61 
f 328/68/65 329/69/65 330/70/65 
f 331/74/66 332/73/66 333/71/66 
f 334/75/67 335/72/67 331/74/67 
f 336/76/55 337/77/55 338/78/55 
f 336/76/66 332/73/66 335/72/66 
f 339/79/68 335/72/68 328/68/68 
f 330/70/65 339/79/65 328/68/65 
f 340/50/1 341/80/1 342/81/1 
f 343/82/65 329/69/65 334/75/65 
f 331/74/69 343/82/69 334/75/69 
f 333/71/66 341/80/66 331/74/66 
f 344/68/70 345/69/70 346/70/70 
f 347/74/71 348/73/71 349/71/71 
f 344/68/72 347/74/72 350/75/72 
f 351/76/55 352/77/55 353/78/55 
f 351/76/71 348/73/71 354/72/71 
f 355/79/73 354/72/73 344/68/73 
f 346/70/70 355/79/70 344/68/70 
f 356/50/1 357/80/1 358/81/1 
f 359/82/70 345/69/70 350/75/70 
f 347/74/74 359/82/74 350/75/74 
f 349/71/71 357/80/71 347/74/71 
f 360/68/75 361/69/75 362/70/75 
f 363/71/76 364/72/76 365/73/76 
f 360/68/77 366/74/77 367/75/77 
f 368/76/55 369/77/55 370/78/55 
f 368/76/76 365/73/76 364/72/76 
f 371/79/78 364/72/78 360/68/78 
f 362/70/75 371/79/75 360/68/75 
f 372/82/1 373/81/1 374/50/1 
f 372/82/75 361/69/75 367/75/75 
f 366/74/79 372/82/79 367/75/79 
f 363/71/76 375/80/76 366/74/76 
f 376/68/80 377/69/80 378/70/80 
f 379/74/81 380/73/81 381/71/81 
f 382/75/82 383/72/82 379/74/82 
f 384/78/55 385/79/55 386/77/55 
f 387/76/81 380/73/81 383/72/81 
f 385/79/83 383/72/83 376/68/83 
f 378/70/80 385/79/80 376/68/80 
f 388/82/1 389/81/1 390/50/1 
f 388/82/80 377/69/80 382/75/80 
f 379/74/84 388/82/84 382/75/84 
f 381/71/81 391/80/81 379/74/81 
f 392/68/61 393/69/61 394/70/61 
f 395/71/60 396/72/60 397/73/60 
f 392/68/85 398/74/85 399/75/85 
f 400/76/55 401/77/55 402/78/55 
f 400/76/60 397/73/60 396/72/60 
f 403/79/86 396/72/86 392/68/86 
f 394/70/61 403/79/61 392/68/61 
f 404/82/1 405/81/1 406/50/1 
f 404/82/61 393/69/61 399/75/61 
f 398/74/87 404/82/87 399/75/87 
f 395/71/60 407/80/60 398/74/60 
f 408/68/66 409/69/66 410/70/66 
f 411/74/65 412/73/65 413/71/65 
f 408/68/88 411/74/88 414/75/88 
f 415/78/55 416/79/55 417/77/55 
f 418/76/65 412/73/65 419/72/65 
f 416/79/89 419/72/89 408/68/89 
f 410/70/66 416/79/66 408/68/66 
f 420/82/1 421/81/1 422/50/1 
f 420/82/66 409/69/66 414/75/66 
f 411/74/90 420/82/90 414/75/90 
f 413/71/65 423/80/65 411/74/65 
f 424/68/71 425/69/71 426/70/71 
f 427/74/70 428/73/70 429/71/70 
f 424/68/91 427/74/91 430/75/91 
f 431/78/55 432/79/55 433/77/55 
f 434/76/70 428/73/70 435/72/70 
f 432/79/92 435/72/92 424/68/92 
f 426/70/71 432/79/71 424/68/71 
f 436/82/1 437/81/1 438/50/1 
f 436/82/71 425/69/71 430/75/71 
f 427/74/93 436/82/93 430/75/93 
f 429/71/70 439/80/70 427/74/70 
f 440/68/76 441/69/76 442/70/76 
f 443/74/75 444/73/75 445/71/75 
f 446/75/94 447/72/94 443/74/94 
f 448/78/55 449/79/55 450/77/55 
f 451/76/75 444/73/75 447/72/75 
f 449/79/95 447/72/95 440/68/95 
f 442/70/76 449/79/76 440/68/76 
f 452/82/1 453/81/1 454/50/1 
f 452/82/76 441/69/76 446/75/76 
f 443/74/96 452/82/96 446/75/96 
f 445/71/75 455/80/75 443/74/75 
f 456/68/81 457/69/81 458/70/81 
f 459/71/80 460/72/80 461/73/80 
f 456/68/97 462/74/97 463/75/97 
f 464/78/55 465/79/55 466/77/55 
f 467/76/80 461/73/80 460/72/80 
f 465/79/98 460/72/98 456/68/98 
f 458/70/81 465/79/81 456/68/81 
f 468/82/1 469/81/1 470/50/1 
f 468/82/81 457/69/81 463/75/81 
f 462/74/99 468/82/99 463/75/99 
f 459/71/80 471/80/80 462/74/80 
f 472/83/100 473/84/100 474/85/100 
f 475/86/101 476/87/101 477/88/101 
f 472/89/102 478/90/102 475/91/102 
f 477/92/103 479/93/103 474/94/103 
f 474/85/104 480/95/104 472/83/104 
f 481/96/105 482/97/105 483/98/105 
f 473/84/106 483/98/106 484/99/106 
f 473/100/107 485/101/107 486/102/107 
f 486/103/108 482/104/108 487/105/108 
f 475/86/109 486/103/109 487/105/109 
f 477/92/110 473/100/110 486/102/110 
f 475/91/111 481/96/111 472/89/111 
f 488/106/61 489/107/61 490/108/61 
f 491/109/55 492/110/55 489/107/55 
f 492/110/60 493/111/60 494/112/60 
f 493/97/112 490/108/112 494/113/112 
f 495/106/62 496/107/62 497/108/62 
f 498/109/55 499/110/55 496/107/55 
f 499/110/85 500/111/85 501/112/85 
f 500/97/113 497/108/113 501/113/113 
f 502/106/60 503/107/60 504/108/60 
f 505/109/55 506/110/55 503/107/55 
f 506/110/61 507/111/61 508/112/61 
f 507/97/114 504/108/114 508/113/114 
f 509/106/85 510/107/85 511/108/85 
f 512/109/55 513/110/55 510/107/55 
f 513/110/62 514/111/62 515/112/62 
f 514/97/115 511/108/115 515/113/115 
f 516/114/61 517/115/61 518/116/61 
f 519/117/60 520/118/60 521/119/60 
f 518/120/62 522/121/62 523/122/62 
f 524/123/61 525/124/61 526/125/61 
f 520/126/85 525/124/85 521/127/85 
f 519/117/62 524/128/62 527/129/62 
f 518/116/1 527/129/1 516/114/1 
f 523/122/1 520/126/1 518/120/1 
f 516/130/1 524/128/1 528/131/1 
f 528/132/1 526/125/1 523/133/1 
f 517/134/55 525/124/55 522/135/55 
f 522/135/55 529/136/55 530/137/55 
f 530/138/55 519/117/55 531/139/55 
f 531/139/55 521/119/55 517/93/55 
f 528/131/85 531/140/85 516/130/85 
f 523/133/60 530/141/60 528/132/60 
f 532/142/56 533/143/56 534/144/56 
f 533/143/55 535/110/55 536/145/55 
f 536/145/59 537/146/59 538/147/59 
f 537/113/116 534/144/116 538/148/116 
f 539/142/57 540/143/57 541/144/57 
f 540/143/55 542/110/55 543/145/55 
f 543/145/58 544/146/58 545/147/58 
f 544/113/117 541/144/117 545/148/117 
f 546/142/59 547/143/59 548/144/59 
f 549/107/55 550/145/55 547/143/55 
f 550/145/56 551/146/56 552/147/56 
f 552/148/118 546/108/118 548/144/118 
f 553/142/58 554/143/58 555/144/58 
f 556/107/55 557/145/55 554/143/55 
f 557/145/57 558/146/57 559/147/57 
f 559/148/119 553/108/119 555/144/119 
f 3/3/1 560/149/1 561/150/1 
f 560/149/1 562/151/1 561/150/1 
f 562/151/1 563/152/1 561/150/1 
f 561/150/1 564/153/1 565/154/1 
f 565/154/1 566/155/1 1/1/1 
f 1/1/1 567/156/1 568/157/1 
f 568/157/1 569/158/1 1/1/1 
f 569/158/1 570/159/1 1/1/1 
f 570/159/1 571/160/1 572/161/1 
f 572/161/1 573/162/1 2/2/1 
f 2/2/1 574/163/1 3/3/1 
f 574/163/1 575/164/1 3/3/1 
f 575/164/1 576/165/1 3/3/1 
f 561/150/1 565/154/1 3/3/1 
f 565/154/1 1/1/1 3/3/1 
f 570/159/1 572/161/1 1/1/1 
f 572/161/1 2/2/1 1/1/1 
f 4/4/2 32/47/2 5/5/2 
f 7/7/3 30/36/3 8/8/3 
f 10/10/4 29/34/4 11/11/4 
f 13/13/5 19/21/5 14/14/5 
f 16/16/6 12/46/6 11/17/6 
f 8/8/4 35/42/4 17/19/4 
f 21/23/7 4/41/7 22/24/7 
f 9/11/6 25/15/6 24/26/6 
f 25/15/6 12/46/6 16/16/6 
f 8/8/4 18/20/4 25/28/4 
f 18/20/4 10/10/4 12/12/4 
f 14/29/2 19/48/2 22/30/2 
f 26/31/2 22/30/2 4/4/2 
f 24/26/6 16/16/6 26/31/6 
f 7/27/6 24/26/6 6/6/6 
f 23/25/2 31/49/2 27/32/2 
f 13/13/5 29/34/5 28/33/5 
f 16/16/6 15/18/6 14/29/6 
f 29/34/5 13/13/5 15/15/5 
f 5/35/3 32/43/3 30/36/3 
f 22/25/8 19/45/8 20/37/8 
f 32/5/8 4/23/8 27/39/8 
f 27/39/7 31/38/7 34/28/7 
f 33/27/7 27/39/7 17/12/7 
f 31/38/7 20/37/7 28/9/7 
f 29/34/4 10/10/4 34/40/4 
f 30/36/3 33/44/3 35/42/3 
f 10/10/4 18/20/4 17/19/4 
f 36/4/9 63/47/9 37/5/9 
f 39/7/10 61/36/10 40/8/10 
f 42/10/11 60/34/11 43/11/11 
f 45/13/12 51/21/12 46/14/12 
f 48/16/13 44/46/13 43/17/13 
f 40/8/11 66/42/11 49/19/11 
f 36/41/14 57/24/14 53/25/14 
f 41/11/13 56/15/13 55/26/13 
f 55/26/13 56/15/13 44/46/13 
f 41/9/11 40/8/11 50/20/11 
f 50/20/11 42/10/11 44/12/11 
f 46/29/9 51/48/9 57/30/9 
f 57/30/9 36/4/9 38/6/9 
f 55/26/13 48/16/13 58/31/13 
f 39/27/13 55/26/13 38/6/13 
f 53/25/9 62/49/9 59/32/9 
f 60/34/12 67/33/12 52/22/12 
f 48/16/13 47/18/13 46/29/13 
f 60/34/12 45/13/12 47/15/12 
f 37/35/10 63/43/10 61/36/10 
f 57/25/16 51/45/16 52/37/16 
f 63/5/16 36/23/16 59/39/16 
f 59/39/14 62/38/14 65/28/14 
f 66/11/14 64/27/14 59/39/14 
f 62/38/14 52/37/14 67/9/14 
f 42/10/11 65/40/11 67/33/11 
f 40/8/10 61/36/10 64/44/10 
f 50/20/11 49/19/11 65/40/11 
f 68/6/17 85/4/17 69/47/17 
f 71/7/18 96/36/18 72/8/18 
f 74/10/19 95/34/19 75/11/19 
f 77/13/20 83/21/20 78/14/20 
f 80/16/21 76/46/21 75/17/21 
f 72/8/19 99/42/19 81/19/19 
f 85/41/22 91/24/22 86/25/22 
f 71/27/21 73/11/21 88/15/21 
f 88/15/21 76/46/21 80/16/21 
f 73/9/19 72/8/19 82/20/19 
f 88/28/19 82/20/19 74/10/19 
f 83/48/120 91/30/120 90/31/120 
f 91/30/17 85/4/17 68/6/17 
f 89/26/21 80/16/21 90/31/21 
f 71/27/21 89/26/21 68/6/21 
f 87/23/17 86/25/17 92/49/17 
f 77/13/20 95/34/20 94/33/20 
f 80/16/21 79/18/21 78/29/21 
f 95/34/20 77/13/20 79/15/20 
f 70/35/18 69/43/18 96/36/18 
f 92/38/23 91/25/23 83/45/23 
f 69/5/23 85/23/23 93/39/23 
f 93/39/22 92/38/22 98/28/22 
f 97/27/22 93/39/22 81/12/22 
f 98/28/22 92/38/22 84/37/22 
f 95/34/121 74/10/121 98/40/121 
f 96/36/18 97/44/18 99/42/18 
f 82/20/19 81/19/19 98/40/19 
f 100/6/24 118/4/24 101/47/24 
f 103/7/25 128/36/25 104/8/25 
f 106/10/26 127/34/26 107/11/26 
f 109/13/27 116/21/27 110/14/27 
f 112/16/28 108/46/28 107/17/28 
f 113/20/26 104/8/26 114/42/26 
f 118/41/29 124/24/29 119/25/29 
f 103/27/28 105/11/28 121/15/28 
f 121/15/28 108/46/28 112/16/28 
f 104/8/26 113/20/26 121/28/26 
f 113/20/26 106/10/26 108/12/26 
f 116/48/24 124/30/24 123/31/24 
f 124/30/24 118/4/24 100/6/24 
f 122/26/28 112/16/28 123/31/28 
f 103/27/28 122/26/28 100/6/28 
f 119/25/24 129/49/24 125/32/24 
f 109/13/27 127/34/27 126/33/27 
f 112/16/28 111/18/28 110/29/28 
f 127/34/27 109/13/27 111/15/27 
f 102/35/25 101/43/25 128/36/25 
f 124/25/31 116/45/31 117/37/31 
f 130/27/31 101/5/31 118/23/31 
f 125/39/29 129/38/29 131/28/29 
f 130/27/29 125/39/29 115/12/29 
f 129/38/29 117/37/29 126/9/29 
f 127/34/26 106/10/26 131/40/26 
f 128/36/25 130/44/25 114/42/25 
f 113/20/26 115/19/26 131/40/26 
f 132/6/32 149/4/32 133/47/32 
f 135/7/5 158/36/5 136/8/5 
f 138/10/33 157/34/33 139/11/33 
f 141/13/3 147/21/3 142/14/3 
f 144/16/34 140/46/34 139/17/34 
f 136/8/33 163/42/33 145/19/33 
f 149/41/35 159/24/35 150/25/35 
f 137/11/34 153/15/34 152/26/34 
f 152/26/34 153/15/34 140/46/34 
f 136/8/33 146/20/33 153/28/33 
f 153/28/33 146/20/33 138/10/33 
f 147/48/32 159/30/32 154/31/32 
f 154/31/32 159/30/32 149/4/32 
f 152/26/34 144/16/34 154/31/34 
f 134/5/34 135/27/34 152/26/34 
f 150/25/32 160/49/32 155/32/32 
f 141/13/3 157/34/3 156/33/3 
f 154/31/34 144/16/34 143/18/34 
f 157/34/3 141/13/3 143/15/3 
f 134/35/5 133/43/5 158/36/5 
f 159/25/37 147/45/37 148/37/37 
f 133/5/37 149/23/37 155/39/37 
f 155/39/35 160/38/35 162/28/35 
f 161/27/35 155/39/35 145/12/35 
f 160/38/35 148/37/35 156/9/35 
f 157/34/33 138/10/33 162/40/33 
f 158/36/5 161/44/5 163/42/5 
f 146/20/33 145/19/33 162/40/33 
f 164/6/122 195/4/122 165/47/122 
f 167/7/12 190/36/12 168/8/12 
f 170/10/123 189/34/123 171/11/123 
f 173/13/10 179/21/10 174/14/10 
f 176/16/40 172/46/40 171/17/40 
f 168/8/39 194/42/39 177/19/39 
f 181/23/41 195/41/41 182/24/41 
f 169/11/40 185/15/40 184/26/40 
f 185/15/40 172/46/40 176/16/40 
f 169/9/39 168/8/39 178/20/39 
f 185/28/39 178/20/39 170/10/39 
f 179/48/38 182/30/38 186/31/38 
f 182/30/38 195/4/38 164/6/38 
f 164/6/40 184/26/40 176/16/40 
f 167/27/40 184/26/40 164/6/40 
f 183/25/38 191/49/38 187/32/38 
f 173/13/10 189/34/10 188/33/10 
f 176/16/40 175/18/40 174/29/40 
f 189/34/10 173/13/10 175/15/10 
f 166/35/12 165/43/12 190/36/12 
f 182/25/42 179/45/42 180/37/42 
f 165/5/42 195/23/42 187/39/42 
f 187/39/41 191/38/41 193/28/41 
f 192/27/41 187/39/41 177/12/41 
f 191/38/41 180/37/41 188/9/41 
f 189/34/39 170/10/39 193/40/39 
f 190/36/12 192/44/12 194/42/12 
f 178/20/39 177/19/39 193/40/39 
f 196/6/43 220/4/43 197/47/43 
f 199/7/20 224/36/20 200/8/20 
f 202/10/44 223/34/44 203/11/44 
f 205/13/18 212/21/18 206/14/18 
f 208/16/45 204/46/45 203/17/45 
f 209/20/44 200/8/44 210/42/44 
f 214/23/46 220/41/46 215/24/46 
f 199/27/45 201/11/45 217/15/45 
f 217/15/45 204/46/45 208/16/45 
f 201/9/44 200/8/44 209/20/44 
f 209/20/44 202/10/44 204/12/44 
f 206/29/43 212/48/43 215/30/43 
f 219/31/43 215/30/43 220/4/43 
f 218/26/45 208/16/45 219/31/45 
f 199/27/45 218/26/45 196/6/45 
f 216/25/43 225/49/43 221/32/43 
f 205/13/18 223/34/18 222/33/18 
f 219/31/45 208/16/45 207/18/45 
f 223/34/18 205/13/18 207/15/18 
f 198/35/20 197/43/20 224/36/20 
f 225/38/48 215/25/48 212/45/48 
f 197/5/48 220/23/48 221/39/48 
f 221/39/46 225/38/46 227/28/46 
f 226/27/46 221/39/46 211/12/46 
f 225/38/46 213/37/46 222/9/46 
f 223/34/44 202/10/44 227/40/44 
f 224/36/20 226/44/20 210/42/20 
f 209/20/44 211/19/44 227/40/44 
f 228/6/50 251/4/50 229/47/50 
f 231/7/27 256/36/27 232/8/27 
f 234/10/51 255/34/51 235/11/51 
f 237/13/25 243/21/25 238/14/25 
f 240/16/52 236/46/52 235/17/52 
f 232/8/51 259/42/51 241/19/51 
f 245/23/53 251/41/53 246/24/53 
f 233/11/52 249/15/52 248/26/52 
f 249/15/52 236/46/52 240/16/52 
f 232/8/51 242/20/51 249/28/51 
f 242/20/51 234/10/51 236/12/51 
f 243/48/50 246/30/50 250/31/50 
f 250/31/50 246/30/50 251/4/50 
f 248/26/52 240/16/52 250/31/52 
f 231/27/52 248/26/52 228/6/52 
f 245/23/50 247/25/50 252/49/50 
f 237/13/25 255/34/25 254/33/25 
f 240/16/52 239/18/52 238/29/52 
f 255/34/25 237/13/25 239/15/25 
f 230/35/27 229/43/27 256/36/27 
f 252/38/54 246/25/54 243/45/54 
f 229/5/54 251/23/54 253/39/54 
f 253/39/53 252/38/53 258/28/53 
f 257/27/53 253/39/53 241/12/53 
f 252/38/53 244/37/53 254/9/53 
f 234/10/51 258/40/51 254/33/51 
f 256/36/27 257/44/27 259/42/27 
f 242/20/51 241/19/51 258/40/51 
f 260/50/55 577/166/55 261/51/55 
f 261/51/56 264/54/56 263/53/56 
f 264/54/1 266/167/1 265/55/1 
f 262/52/57 263/53/57 265/56/57 
f 261/51/58 577/168/58 266/58/58 
f 267/59/58 578/62/58 268/60/58 
f 270/50/55 579/166/55 271/51/55 
f 271/51/58 274/54/58 273/53/58 
f 274/54/1 276/167/1 275/55/1 
f 272/52/56 273/53/56 275/56/56 
f 271/51/59 579/168/59 276/58/59 
f 277/62/59 580/60/59 278/61/59 
f 280/50/55 581/166/55 281/51/55 
f 281/51/59 284/54/59 283/53/59 
f 284/54/1 286/167/1 285/55/1 
f 282/52/58 283/53/58 285/56/58 
f 281/51/57 581/168/57 286/58/57 
f 287/62/57 582/60/57 288/61/57 
f 290/50/55 583/166/55 291/51/55 
f 292/52/57 291/51/57 293/54/57 
f 293/54/1 296/167/1 295/55/1 
f 292/52/59 294/53/59 295/56/59 
f 291/51/56 583/168/56 296/58/56 
f 297/62/56 584/60/56 298/61/56 
f 301/64/55 585/169/55 302/65/55 
f 585/169/55 586/67/55 302/65/55 
f 586/67/55 587/170/55 302/65/55 
f 302/65/55 588/171/55 589/66/55 
f 589/66/55 300/63/55 302/65/55 
f 303/66/55 590/63/55 304/64/55 
f 304/64/55 591/169/55 305/67/55 
f 305/67/55 592/170/55 593/65/55 
f 593/65/55 594/171/55 305/67/55 
f 594/171/55 303/66/55 305/67/55 
f 306/65/55 595/171/55 307/66/55 
f 307/66/55 596/63/55 308/64/55 
f 308/64/55 597/169/55 598/67/55 
f 598/67/55 599/170/55 308/64/55 
f 599/170/55 306/65/55 308/64/55 
f 309/67/55 600/170/55 310/65/55 
f 310/65/55 601/171/55 311/66/55 
f 311/66/55 602/63/55 309/67/55 
f 602/63/55 603/64/55 309/67/55 
f 603/64/55 604/169/55 309/67/55 
f 312/68/60 319/75/60 313/69/60 
f 315/71/61 318/74/61 316/72/61 
f 312/68/62 316/72/62 318/74/62 
f 320/76/55 323/79/55 321/77/55 
f 320/76/61 322/172/61 317/73/61 
f 323/79/63 320/76/63 316/72/63 
f 314/70/60 321/173/60 323/79/60 
f 324/50/1 327/82/1 325/80/1 
f 327/82/60 324/174/60 313/69/60 
f 318/74/64 325/80/64 327/82/64 
f 315/71/61 326/175/61 325/80/61 
f 328/68/65 334/75/65 329/69/65 
f 331/74/66 335/72/66 332/73/66 
f 334/75/67 328/68/67 335/72/67 
f 336/76/55 339/79/55 337/77/55 
f 336/76/66 338/172/66 332/73/66 
f 339/79/68 336/76/68 335/72/68 
f 330/70/65 337/173/65 339/79/65 
f 340/50/1 343/82/1 341/80/1 
f 343/82/65 340/174/65 329/69/65 
f 331/74/69 341/80/69 343/82/69 
f 333/71/66 342/175/66 341/80/66 
f 344/68/70 350/75/70 345/69/70 
f 347/74/71 354/72/71 348/73/71 
f 344/68/72 354/72/72 347/74/72 
f 351/76/55 355/79/55 352/77/55 
f 351/76/71 353/172/71 348/73/71 
f 355/79/73 351/76/73 354/72/73 
f 346/70/70 352/173/70 355/79/70 
f 356/50/1 359/82/1 357/80/1 
f 359/82/70 356/174/70 345/69/70 
f 347/74/74 357/80/74 359/82/74 
f 349/71/71 358/175/71 357/80/71 
f 360/68/75 367/75/75 361/69/75 
f 363/71/76 366/74/76 364/72/76 
f 360/68/77 364/72/77 366/74/77 
f 368/76/55 371/79/55 369/77/55 
f 368/76/76 370/172/76 365/73/76 
f 371/79/78 368/76/78 364/72/78 
f 362/70/75 369/173/75 371/79/75 
f 372/82/1 375/80/1 373/81/1 
f 372/82/75 374/174/75 361/69/75 
f 366/74/79 375/80/79 372/82/79 
f 363/71/76 373/175/76 375/80/76 
f 376/68/80 382/75/80 377/69/80 
f 379/74/81 383/72/81 380/73/81 
f 382/75/82 376/68/82 383/72/82 
f 384/78/55 387/76/55 385/79/55 
f 387/76/81 384/172/81 380/73/81 
f 385/79/83 387/76/83 383/72/83 
f 378/70/80 386/173/80 385/79/80 
f 388/82/1 391/80/1 389/81/1 
f 388/82/80 390/174/80 377/69/80 
f 379/74/84 391/80/84 388/82/84 
f 381/71/81 389/175/81 391/80/81 
f 392/68/61 399/75/61 393/69/61 
f 395/71/60 398/74/60 396/72/60 
f 392/68/85 396/72/85 398/74/85 
f 400/76/55 403/79/55 401/77/55 
f 400/76/60 402/172/60 397/73/60 
f 403/79/86 400/76/86 396/72/86 
f 394/70/61 401/173/61 403/79/61 
f 404/82/1 407/80/1 405/81/1 
f 404/82/61 406/174/61 393/69/61 
f 398/74/87 407/80/87 404/82/87 
f 395/71/60 405/175/60 407/80/60 
f 408/68/66 414/75/66 409/69/66 
f 411/74/65 419/72/65 412/73/65 
f 408/68/88 419/72/88 411/74/88 
f 415/78/55 418/76/55 416/79/55 
f 418/76/65 415/172/65 412/73/65 
f 416/79/89 418/76/89 419/72/89 
f 410/70/66 417/173/66 416/79/66 
f 420/82/1 423/80/1 421/81/1 
f 420/82/66 422/174/66 409/69/66 
f 411/74/90 423/80/90 420/82/90 
f 413/71/65 421/175/65 423/80/65 
f 424/68/71 430/75/71 425/69/71 
f 427/74/70 435/72/70 428/73/70 
f 424/68/91 435/72/91 427/74/91 
f 431/78/55 434/76/55 432/79/55 
f 434/76/70 431/172/70 428/73/70 
f 432/79/92 434/76/92 435/72/92 
f 426/70/71 433/173/71 432/79/71 
f 436/82/1 439/80/1 437/81/1 
f 436/82/71 438/174/71 425/69/71 
f 427/74/124 439/80/124 436/82/124 
f 429/71/70 437/175/70 439/80/70 
f 440/68/76 446/75/76 441/69/76 
f 443/74/75 447/72/75 444/73/75 
f 446/75/94 440/68/94 447/72/94 
f 448/78/55 451/76/55 449/79/55 
f 451/76/75 448/172/75 444/73/75 
f 449/79/95 451/76/95 447/72/95 
f 442/70/76 450/173/76 449/79/76 
f 452/82/1 455/80/1 453/81/1 
f 452/82/76 454/174/76 441/69/76 
f 443/74/96 455/80/96 452/82/96 
f 445/71/75 453/175/75 455/80/75 
f 456/68/81 463/75/81 457/69/81 
f 459/71/80 462/74/80 460/72/80 
f 456/68/97 460/72/97 462/74/97 
f 464/78/55 467/76/55 465/79/55 
f 467/76/80 464/172/80 461/73/80 
f 465/79/98 467/76/98 460/72/98 
f 458/70/81 466/173/81 465/79/81 
f 468/82/1 471/80/1 469/81/1 
f 468/82/81 470/174/81 457/69/81 
f 462/74/99 471/80/99 468/82/99 
f 459/71/80 469/175/80 471/80/80 
f 472/83/100 481/176/100 473/84/100 
f 475/86/101 478/101/101 476/87/101 
f 472/89/102 480/95/102 478/90/102 
f 477/92/103 476/104/103 479/93/103 
f 474/85/104 479/177/104 480/95/104 
f 481/96/105 487/178/105 482/97/105 
f 473/84/106 481/176/106 483/98/106 
f 473/100/107 484/179/107 485/101/107 
f 486/103/108 485/180/108 482/104/108 
f 475/86/109 477/88/109 486/103/109 
f 477/92/110 474/94/110 473/100/110 
f 475/91/111 487/178/111 481/96/111 
f 488/106/61 491/109/61 489/107/61 
f 491/109/55 605/181/55 492/110/55 
f 492/110/60 605/181/60 493/111/60 
f 493/97/112 488/182/112 490/108/112 
f 495/106/62 498/109/62 496/107/62 
f 498/109/55 606/181/55 499/110/55 
f 499/110/85 606/181/85 500/111/85 
f 500/97/113 495/182/113 497/108/113 
f 502/106/60 505/109/60 503/107/60 
f 505/109/55 607/181/55 506/110/55 
f 506/110/61 607/181/61 507/111/61 
f 507/97/114 502/182/114 504/108/114 
f 509/106/85 512/109/85 510/107/85 
f 512/109/55 608/181/55 513/110/55 
f 513/110/62 608/181/62 514/111/62 
f 514/97/115 509/182/115 511/108/115 
f 516/114/61 531/183/61 517/115/61 
f 519/117/60 527/129/60 520/118/60 
f 518/120/62 517/184/62 522/121/62 
f 524/123/61 529/136/61 525/124/61 
f 520/126/85 526/125/85 525/124/85 
f 519/117/62 529/185/62 524/128/62 
f 518/116/1 520/118/1 527/129/1 
f 523/122/1 526/125/1 520/126/1 
f 516/130/1 527/129/1 524/128/1 
f 528/132/1 524/123/1 526/125/1 
f 517/134/55 521/127/55 525/124/55 
f 522/135/55 525/124/55 529/136/55 
f 530/138/55 529/185/55 519/117/55 
f 531/139/55 519/117/55 521/119/55 
f 528/131/85 530/186/85 531/140/85 
f 523/133/60 522/187/60 530/141/60 
f 532/142/56 609/107/56 533/143/56 
f 533/143/55 609/107/55 535/110/55 
f 536/145/59 535/110/59 537/146/59 
f 537/113/116 532/108/116 534/144/116 
f 539/142/57 610/107/57 540/143/57 
f 540/143/55 610/107/55 542/110/55 
f 543/145/58 542/110/58 544/146/58 
f 544/113/117 539/108/117 541/144/117 
f 546/142/59 549/107/59 547/143/59 
f 549/107/55 611/110/55 550/145/55 
f 550/145/56 611/110/56 551/146/56 
f 552/148/118 551/113/118 546/108/118 
f 553/142/58 556/107/58 554/143/58 
f 556/107/55 612/110/55 557/145/55 
f 557/145/57 612/110/57 558/146/57 
f 559/148/119 558/113/119 553/108/119 
s 1
f 613/188/125 614/189/126 615/190/127 
f 616/191/128 617/192/129 614/189/126 
f 618/193/130 619/194/131 617/192/129 
f 620/195/132 621/196/133 619/194/131 
f 622/197/134 623/198/135 621/196/133 
f 624/199/136 625/200/137 623/201/135 
f 625/200/137 626/202/138 627/203/139 
f 627/203/139 628/204/140 629/205/141 
f 629/205/141 630/206/142 631/207/143 
f 632/208/144 633/209/145 634/210/146 
f 634/210/146 635/211/147 636/212/148 
f 636/212/148 637/213/149 638/214/150 
f 638/214/150 639/215/151 640/216/152 
f 640/216/152 641/217/153 642/218/154 
f 641/217/153 643/219/155 642/218/154 
f 644/220/156 645/221/157 643/219/155 
f 646/222/158 647/223/159 645/221/157 
f 648/224/160 649/225/161 647/223/159 
f 650/226/162 615/190/127 649/225/161 
f 651/227/163 652/228/164 653/229/165 
f 640/216/152 654/230/166 655/231/167 
f 615/190/127 656/232/168 649/225/161 
f 619/194/131 657/233/169 617/192/129 
f 627/203/139 658/234/170 659/235/171 
f 614/189/126 660/236/172 615/190/127 
f 636/212/148 661/237/173 662/238/174 
f 647/223/159 663/239/175 645/221/157 
f 625/200/137 651/227/163 623/201/135 
f 632/208/144 664/240/176 665/241/177 
f 642/218/154 666/242/178 654/230/166 
f 621/196/133 667/243/179 619/194/131 
f 629/205/141 668/244/180 658/234/170 
f 638/214/150 655/231/167 661/237/173 
f 649/225/161 669/245/181 647/223/159 
f 617/192/129 670/246/182 614/189/126 
f 627/203/139 671/247/183 625/200/137 
f 634/210/146 662/238/174 664/240/176 
f 643/219/155 663/239/175 666/242/178 
f 623/198/135 672/248/184 621/196/133 
f 673/249/185 674/250/186 675/251/187 
f 655/231/167 676/252/188 661/237/173 
f 659/235/171 652/253/164 671/247/183 
f 654/230/166 677/254/189 655/231/167 
f 658/234/170 678/255/190 659/235/171 
f 660/236/172 679/256/191 680/257/192 
f 666/242/178 681/258/193 654/230/166 
f 668/244/180 673/249/185 658/234/170 
f 670/246/182 682/259/194 679/260/191 
f 666/242/178 683/261/195 684/262/196 
f 657/233/169 685/263/197 682/264/194 
f 663/239/175 686/265/198 683/266/195 
f 664/240/176 687/267/199 665/241/177 
f 667/243/179 688/268/200 685/269/197 
f 669/245/181 689/270/201 686/271/198 
f 662/238/174 690/272/202 664/240/176 
f 672/248/184 653/273/165 688/274/200 
f 656/232/168 680/275/192 689/276/201 
f 661/237/173 691/277/203 662/238/174 
f 692/278/204 693/279/205 694/280/206 
f 682/259/194 695/281/207 679/260/191 
f 683/261/195 696/282/208 684/262/196 
f 685/263/197 697/283/209 682/264/194 
f 686/265/198 698/284/210 683/266/195 
f 687/267/199 699/285/211 700/286/212 
f 688/268/200 694/280/206 685/269/197 
f 689/270/201 701/287/213 686/271/198 
f 690/272/202 702/288/214 699/289/211 
f 653/273/165 692/290/204 688/274/200 
f 680/275/192 703/291/215 689/276/201 
f 691/277/203 704/292/216 702/293/214 
f 652/228/164 705/294/217 653/229/165 
f 665/241/177 631/207/143 632/208/144 
f 676/252/188 706/295/218 704/296/216 
f 652/253/164 707/297/219 708/298/220 
f 677/254/189 709/299/221 706/300/218 
f 678/255/190 675/301/187 707/302/219 
f 679/256/191 710/303/222 680/257/192 
f 681/258/193 696/304/208 709/305/221 
f 711/306/223 712/307/224 713/308/225 
f 701/287/213 714/309/226 715/310/227 
f 699/289/211 716/311/228 717/312/229 
f 705/313/217 718/314/230 692/290/204 
f 703/291/215 719/315/231 714/316/226 
f 702/293/214 713/317/225 716/318/228 
f 708/319/220 720/320/232 705/294/217 
f 721/321/233 665/241/177 687/322/199 
f 704/296/216 711/306/223 713/308/225 
f 707/297/219 722/323/234 708/298/220 
f 706/300/218 723/324/235 711/325/223 
f 675/301/187 724/326/236 707/302/219 
f 710/303/222 725/327/237 719/328/231 
f 709/305/221 726/329/238 723/330/235 
f 674/250/186 727/331/239 675/251/187 
f 697/332/209 725/333/237 695/281/207 
f 696/282/208 728/334/240 726/335/238 
f 721/321/233 700/336/212 674/337/186 
f 694/338/206 729/339/241 697/283/209 
f 698/284/210 715/340/227 728/341/240 
f 699/285/211 730/342/242 700/286/212 
f 731/343/243 732/344/244 733/345/245 
f 722/323/234 734/346/246 735/347/247 
f 723/324/235 736/348/248 711/325/223 
f 724/326/236 733/349/245 734/350/246 
f 725/327/237 731/351/243 719/328/231 
f 726/329/238 737/352/249 723/330/235 
f 727/331/239 738/353/250 733/354/245 
f 729/355/241 739/356/251 725/333/237 
f 728/334/240 740/357/252 726/335/238 
f 700/336/212 741/358/253 674/337/186 
f 693/359/205 742/360/254 729/339/241 
f 715/340/227 743/361/255 728/341/240 
f 730/342/242 744/362/256 745/363/257 
f 693/279/205 732/364/244 746/365/258 
f 714/309/226 747/366/259 715/310/227 
f 717/312/229 748/367/260 744/368/256 
f 718/314/230 749/369/261 732/370/244 
f 719/315/231 750/371/262 714/316/226 
f 716/318/228 712/372/224 748/373/260 
f 720/320/232 735/374/247 749/375/261 
f 745/376/257 741/358/253 730/377/242 
f 751/378/263 573/379/264 752/380/265 
f 620/195/132 753/381/266 754/382/267 
f 646/222/158 755/383/268 648/224/160 
f 756/384/269 757/385/270 633/209/145 
f 622/197/134 754/386/267 758/387/271 
f 648/224/160 759/388/272 650/226/162 
f 633/209/145 760/389/273 635/211/147 
f 624/390/136 758/391/271 761/392/274 
f 613/188/125 759/393/272 762/394/275 
f 635/211/147 763/395/276 637/213/149 
f 764/396/277 761/397/274 751/398/263 
f 637/213/149 765/399/278 639/215/151 
f 626/202/138 751/378/263 752/380/265 
f 639/215/151 766/400/279 641/217/153 
f 626/202/138 767/401/280 628/204/140 
f 616/191/128 762/402/275 768/403/281 
f 641/217/153 769/404/282 644/220/156 
f 630/206/142 767/405/280 770/406/283 
f 618/193/130 768/407/281 753/408/266 
f 644/220/156 771/409/284 646/222/158 
f 766/400/279 1/410/285 566/411/286 
f 752/412/265 572/413/287 767/401/280 
f 762/402/275 560/414/288 768/403/281 
f 766/415/279 565/416/289 769/404/282 
f 767/405/280 571/417/290 770/406/283 
f 768/407/281 3/418/291 753/408/266 
f 769/419/282 564/420/292 771/421/284 
f 753/381/266 576/422/293 754/382/267 
f 771/409/284 561/423/294 755/383/268 
f 757/385/270 570/424/295 569/425/296 
f 754/386/267 575/426/297 758/387/271 
f 755/427/268 563/428/298 759/388/272 
f 760/389/273 569/429/296 568/430/299 
f 758/391/271 574/431/300 761/392/274 
f 759/393/272 562/432/301 762/394/275 
f 760/433/273 567/434/302 763/395/276 
f 751/398/263 574/435/300 2/436/303 
f 765/399/278 567/437/302 1/438/285 
f 631/207/143 756/384/269 632/208/144 
f 772/439/304 630/206/142 770/440/283 
f 772/439/304 571/441/290 570/442/295 
f 773/443/62 586/444/305 585/445/306 
f 774/446/57 587/447/307 586/444/305 
f 775/448/60 302/449/308 587/447/307 
f 776/450/59 588/451/309 302/449/308 
f 588/78/309 777/452/58 589/453/310 
f 777/452/58 300/454/311 589/453/310 
f 778/455/61 301/456/312 300/454/311 
f 779/457/56 585/445/306 301/456/312 
f 780/443/61 304/444/312 590/445/311 
f 781/446/56 591/447/306 304/444/312 
f 782/448/62 305/449/305 591/447/306 
f 783/450/57 592/451/307 305/449/305 
f 784/458/60 593/453/308 592/78/307 
f 785/452/59 594/454/309 593/453/308 
f 786/455/85 303/456/310 594/454/309 
f 787/457/58 590/445/311 303/456/310 
f 788/443/85 307/444/310 595/445/309 
f 307/444/310 789/448/61 596/447/311 
f 789/448/61 308/449/312 596/447/311 
f 308/449/312 790/459/62 597/451/306 
f 597/78/306 791/452/57 598/453/305 
f 791/452/57 599/454/307 598/453/305 
f 792/455/60 306/456/308 599/454/307 
f 793/457/59 595/445/309 306/456/308 
f 600/445/307 794/446/59 310/444/308 
f 794/446/59 601/447/309 310/444/308 
f 795/448/85 311/449/310 601/447/309 
f 311/449/310 796/459/61 602/451/311 
f 796/458/61 603/453/312 602/78/311 
f 797/452/56 604/454/306 603/453/312 
f 798/455/62 309/456/305 604/454/306 
f 799/457/57 600/445/307 309/456/305 
f 613/188/125 616/191/128 614/189/126 
f 616/191/128 618/193/130 617/192/129 
f 618/193/130 620/195/132 619/194/131 
f 620/195/132 622/197/134 621/196/133 
f 622/197/134 624/390/136 623/198/135 
f 624/199/136 764/396/277 625/200/137 
f 625/200/137 764/396/277 626/202/138 
f 627/203/139 626/202/138 628/204/140 
f 629/205/141 628/204/140 630/206/142 
f 632/208/144 756/384/269 633/209/145 
f 634/210/146 633/209/145 635/211/147 
f 636/212/148 635/211/147 637/213/149 
f 638/214/150 637/213/149 639/215/151 
f 640/216/152 639/215/151 641/217/153 
f 641/217/153 644/220/156 643/219/155 
f 644/220/156 646/222/158 645/221/157 
f 646/222/158 648/224/160 647/223/159 
f 648/224/160 650/226/162 649/225/161 
f 650/226/162 613/188/125 615/190/127 
f 651/227/163 671/247/183 652/228/164 
f 640/216/152 642/218/154 654/230/166 
f 615/190/127 660/236/172 656/232/168 
f 619/194/131 667/243/179 657/233/169 
f 627/203/139 629/205/141 658/234/170 
f 614/189/126 670/246/182 660/236/172 
f 636/212/148 638/214/150 661/237/173 
f 647/223/159 669/245/181 663/239/175 
f 625/200/137 671/247/183 651/227/163 
f 632/208/144 634/210/146 664/240/176 
f 642/218/154 643/219/155 666/242/178 
f 621/196/133 672/248/184 667/243/179 
f 629/205/141 631/207/143 668/244/180 
f 638/214/150 640/216/152 655/231/167 
f 649/225/161 656/232/168 669/245/181 
f 617/192/129 657/233/169 670/246/182 
f 627/203/139 659/235/171 671/247/183 
f 634/210/146 636/212/148 662/238/174 
f 643/219/155 645/221/157 663/239/175 
f 623/198/135 651/460/163 672/248/184 
f 673/249/185 721/461/233 674/250/186 
f 655/231/167 677/462/189 676/252/188 
f 659/235/171 678/463/190 652/253/164 
f 654/230/166 681/464/193 677/254/189 
f 658/234/170 673/465/185 678/255/190 
f 660/236/172 670/246/182 679/256/191 
f 666/242/178 684/466/196 681/258/193 
f 668/244/180 721/461/233 673/249/185 
f 670/246/182 657/233/169 682/259/194 
f 666/242/178 663/239/175 683/261/195 
f 657/233/169 667/243/179 685/263/197 
f 663/239/175 669/245/181 686/265/198 
f 664/240/176 690/467/202 687/267/199 
f 667/243/179 672/248/184 688/268/200 
f 669/245/181 656/232/168 689/270/201 
f 662/238/174 691/468/203 690/272/202 
f 672/248/184 651/460/163 653/273/165 
f 656/232/168 660/236/172 680/275/192 
f 661/237/173 676/469/188 691/277/203 
f 692/278/204 718/470/230 693/279/205 
f 682/259/194 697/332/209 695/281/207 
f 683/261/195 698/471/210 696/282/208 
f 685/263/197 694/338/206 697/283/209 
f 686/265/198 701/472/213 698/284/210 
f 687/267/199 690/467/202 699/285/211 
f 688/268/200 692/278/204 694/280/206 
f 689/270/201 703/473/215 701/287/213 
f 690/272/202 691/468/203 702/288/214 
f 653/273/165 705/313/217 692/290/204 
f 680/275/192 710/474/222 703/291/215 
f 691/277/203 676/469/188 704/292/216 
f 652/228/164 708/319/220 705/294/217 
f 665/241/177 668/244/180 631/207/143 
f 676/252/188 677/462/189 706/295/218 
f 652/253/164 678/463/190 707/297/219 
f 677/254/189 681/464/193 709/299/221 
f 678/255/190 673/465/185 675/301/187 
f 679/256/191 695/475/207 710/303/222 
f 681/258/193 684/466/196 696/304/208 
f 711/306/223 736/476/248 712/307/224 
f 701/287/213 703/473/215 714/309/226 
f 699/289/211 702/288/214 716/311/228 
f 705/313/217 720/477/232 718/314/230 
f 703/291/215 710/474/222 719/315/231 
f 702/293/214 704/292/216 713/317/225 
f 708/319/220 722/478/234 720/320/232 
f 721/321/233 668/244/180 665/241/177 
f 704/296/216 706/295/218 711/306/223 
f 707/297/219 724/479/236 722/323/234 
f 706/300/218 709/299/221 723/324/235 
f 675/301/187 727/480/239 724/326/236 
f 710/303/222 695/475/207 725/327/237 
f 709/305/221 696/304/208 726/329/238 
f 674/250/186 741/481/253 727/331/239 
f 697/332/209 729/355/241 725/333/237 
f 696/282/208 698/471/210 728/334/240 
f 721/321/233 687/322/199 700/336/212 
f 694/338/206 693/359/205 729/339/241 
f 698/284/210 701/472/213 715/340/227 
f 699/285/211 717/482/229 730/342/242 
f 733/345/245 738/483/250 745/484/257 
f 745/484/257 744/485/256 733/345/245 
f 744/485/256 748/486/260 733/345/245 
f 748/486/260 712/487/224 736/488/248 
f 736/488/248 737/489/249 740/490/252 
f 740/490/252 743/491/255 747/492/259 
f 747/492/259 750/493/262 740/490/252 
f 750/493/262 731/343/243 740/490/252 
f 731/343/243 739/494/251 742/495/254 
f 742/495/254 746/496/258 731/343/243 
f 746/496/258 732/344/244 731/343/243 
f 732/344/244 749/497/261 735/498/247 
f 735/498/247 734/499/246 732/344/244 
f 734/499/246 733/345/245 732/344/244 
f 748/486/260 736/488/248 733/345/245 
f 736/488/248 740/490/252 733/345/245 
f 740/490/252 731/343/243 733/345/245 
f 722/323/234 724/479/236 734/346/246 
f 723/324/235 737/500/249 736/348/248 
f 724/326/236 727/480/239 733/349/245 
f 725/327/237 739/501/251 731/351/243 
f 726/329/238 740/502/252 737/352/249 
f 727/331/239 741/481/253 738/353/250 
f 729/355/241 742/503/254 739/356/251 
f 728/334/240 743/504/255 740/357/252 
f 700/336/212 730/377/242 741/358/253 
f 693/359/205 746/505/258 742/360/254 
f 715/340/227 747/506/259 743/361/255 
f 730/342/242 717/482/229 744/362/256 
f 693/279/205 718/470/230 732/364/244 
f 714/309/226 750/507/262 747/366/259 
f 717/312/229 716/311/228 748/367/260 
f 718/314/230 720/477/232 749/369/261 
f 719/315/231 731/508/243 750/371/262 
f 716/318/228 713/317/225 712/372/224 
f 720/320/232 722/478/234 735/374/247 
f 745/376/257 738/509/250 741/358/253 
f 751/378/263 2/510/303 573/379/264 
f 620/195/132 618/193/130 753/381/266 
f 646/222/158 771/421/284 755/383/268 
f 756/384/269 772/511/304 757/385/270 
f 622/197/134 620/195/132 754/386/267 
f 648/224/160 755/427/268 759/388/272 
f 633/209/145 757/512/270 760/389/273 
f 624/390/136 622/197/134 758/391/271 
f 613/188/125 650/226/162 759/393/272 
f 635/211/147 760/433/273 763/395/276 
f 764/396/277 624/199/136 761/397/274 
f 637/213/149 763/513/276 765/399/278 
f 626/202/138 764/396/277 751/378/263 
f 639/215/151 765/514/278 766/400/279 
f 626/202/138 752/412/265 767/401/280 
f 616/191/128 613/188/125 762/402/275 
f 641/217/153 766/415/279 769/404/282 
f 630/206/142 628/204/140 767/405/280 
f 618/193/130 616/191/128 768/407/281 
f 644/220/156 769/419/282 771/409/284 
f 766/400/279 765/514/278 1/410/285 
f 752/412/265 573/515/264 572/413/287 
f 762/402/275 562/516/301 560/414/288 
f 766/415/279 566/517/286 565/416/289 
f 767/405/280 572/518/287 571/417/290 
f 768/407/281 560/519/288 3/418/291 
f 769/419/282 565/520/289 564/420/292 
f 753/381/266 3/521/291 576/422/293 
f 771/409/284 564/522/292 561/423/294 
f 757/385/270 772/511/304 570/424/295 
f 754/386/267 576/523/293 575/426/297 
f 755/427/268 561/524/294 563/428/298 
f 760/389/273 757/512/270 569/429/296 
f 758/391/271 575/525/297 574/431/300 
f 759/393/272 563/526/298 562/432/301 
f 760/433/273 568/527/299 567/434/302 
f 751/398/263 761/397/274 574/435/300 
f 765/399/278 763/513/276 567/437/302 
f 631/207/143 630/206/142 756/384/269 
f 772/439/304 756/384/269 630/206/142 
f 772/439/304 770/440/283 571/441/290 
f 773/443/62 774/446/57 586/444/305 
f 774/446/57 775/448/60 587/447/307 
f 775/448/60 776/450/59 302/449/308 
f 776/450/59 800/459/85 588/451/309 
f 588/78/309 800/458/85 777/452/58 
f 777/452/58 778/455/61 300/454/311 
f 778/455/61 779/457/56 301/456/312 
f 779/457/56 773/443/62 585/445/306 
f 780/443/61 781/446/56 304/444/312 
f 781/446/56 782/448/62 591/447/306 
f 782/448/62 783/450/57 305/449/305 
f 783/450/57 784/459/60 592/451/307 
f 784/458/60 785/452/59 593/453/308 
f 785/452/59 786/455/85 594/454/309 
f 786/455/85 787/457/58 303/456/310 
f 787/457/58 780/443/61 590/445/311 
f 788/443/85 801/446/58 307/444/310 
f 307/444/310 801/446/58 789/448/61 
f 789/448/61 802/450/56 308/449/312 
f 308/449/312 802/450/56 790/459/62 
f 597/78/306 790/458/62 791/452/57 
f 791/452/57 792/455/60 599/454/307 
f 792/455/60 793/457/59 306/456/308 
f 793/457/59 788/443/85 595/445/309 
f 600/445/307 803/443/60 794/446/59 
f 794/446/59 795/448/85 601/447/309 
f 795/448/85 804/450/58 311/449/310 
f 311/449/310 804/450/58 796/459/61 
f 796/458/61 797/452/56 603/453/312 
f 797/452/56 798/455/62 604/454/306 
f 798/455/62 799/457/57 309/456/305 
f 799/457/57 803/443/60 600/445/307 
# 1312 faces

