# 3ds Max Wavefront OBJ Exporter v0.97b - (c)2007 guruware
# 创建的文件:17.01.2026 22:32:45

#
# object Cylinder
#

v  0.2452 0.0000 0.5920
v  -0.5920 0.0000 0.2452
v  -0.2452 0.0000 -0.5920
v  0.9449 5.0313 -0.0313
v  1.0074 4.9688 -0.0313
v  0.9449 4.9688 -0.0313
v  1.0074 5.0313 0.0313
v  1.0699 5.0313 -0.0313
v  1.0074 5.0313 -0.0313
v  0.9449 4.9688 0.0313
v  1.0074 4.9688 0.0313
v  1.0074 4.8438 0.0313
v  1.0074 4.8438 -0.0313
v  0.9449 4.8438 0.0313
v  0.9449 4.8438 -0.0313
v  1.0699 5.0313 0.0313
v  1.0699 4.9688 0.0313
v  1.1324 4.9688 0.0313
v  1.0699 4.9688 -0.0313
v  1.1324 4.9688 -0.0313
v  1.0699 4.8438 -0.0313
v  1.1324 4.8438 0.0313
v  1.0699 4.8438 0.0313
v  1.1324 4.8438 -0.0313
v  0.9449 4.5313 -0.0313
v  1.0074 4.4688 -0.0313
v  0.9449 4.4688 -0.0313
v  1.0074 4.5313 0.0313
v  1.0699 4.5313 -0.0313
v  1.0074 4.5313 -0.0313
v  0.9449 4.4688 0.0313
v  1.0074 4.4688 0.0313
v  1.0074 4.3438 0.0313
v  1.0074 4.3438 -0.0313
v  0.9449 4.3438 0.0313
v  0.9449 4.3438 -0.0313
v  1.0699 4.5313 0.0313
v  1.0699 4.4688 0.0313
v  1.1324 4.4688 0.0313
v  1.0699 4.4688 -0.0313
v  1.1324 4.4688 -0.0313
v  1.0699 4.3438 -0.0313
v  1.1324 4.3438 0.0313
v  1.0699 4.3438 0.0313
v  1.1324 4.3438 -0.0313
v  0.9449 4.0313 -0.0313
v  1.0074 3.9688 -0.0313
v  0.9449 3.9688 -0.0313
v  1.0074 4.0313 0.0313
v  1.0699 4.0313 -0.0313
v  1.0074 4.0313 -0.0313
v  0.9449 3.9688 0.0313
v  1.0074 3.9688 0.0313
v  1.0074 3.8438 0.0313
v  1.0074 3.8438 -0.0313
v  0.9449 3.8438 0.0313
v  0.9449 3.8438 -0.0313
v  1.0699 4.0313 0.0313
v  1.0699 3.9688 0.0313
v  1.1324 3.9688 0.0313
v  1.0699 3.9688 -0.0313
v  1.1324 3.9688 -0.0313
v  1.0699 3.8438 -0.0313
v  1.1324 3.8438 0.0313
v  1.0699 3.8438 0.0313
v  1.1324 3.8438 -0.0313
v  0.9449 3.5313 -0.0313
v  1.0074 3.4688 -0.0313
v  0.9449 3.4688 -0.0313
v  1.0074 3.5313 0.0313
v  1.0699 3.5313 -0.0313
v  1.0074 3.5313 -0.0313
v  0.9449 3.4688 0.0313
v  1.0074 3.4688 0.0313
v  1.0074 3.3438 0.0313
v  1.0074 3.3438 -0.0313
v  0.9449 3.3438 0.0313
v  0.9449 3.3438 -0.0313
v  1.0699 3.5313 0.0313
v  1.0699 3.4688 0.0313
v  1.1324 3.4688 0.0313
v  1.0699 3.4688 -0.0313
v  1.1324 3.4688 -0.0313
v  1.0699 3.3438 -0.0313
v  1.1324 3.3438 0.0313
v  1.0699 3.3438 0.0313
v  1.1324 3.3438 -0.0313
v  -1.0074 4.9688 -0.0313
v  -0.9449 5.0313 -0.0313
v  -0.9449 4.9688 -0.0313
v  -1.0699 5.0313 -0.0313
v  -1.0074 5.0313 0.0313
v  -1.0074 5.0313 -0.0313
v  -0.9449 4.9688 0.0313
v  -1.0074 4.9688 0.0313
v  -1.0074 4.8438 0.0313
v  -0.9449 4.8438 0.0313
v  -1.0074 4.8438 -0.0313
v  -0.9449 4.8438 -0.0313
v  -1.0699 5.0313 0.0313
v  -1.1324 4.9688 0.0313
v  -1.0699 4.9688 0.0313
v  -1.0699 4.9688 -0.0313
v  -1.0699 4.8438 -0.0313
v  -1.1324 4.9688 -0.0313
v  -1.1324 4.8438 0.0313
v  -1.0699 4.8438 0.0313
v  -1.1324 4.8438 -0.0313
v  -1.0074 4.4688 -0.0313
v  -0.9449 4.5313 -0.0313
v  -0.9449 4.4688 -0.0313
v  -1.0699 4.5313 -0.0313
v  -1.0074 4.5313 0.0313
v  -1.0074 4.5313 -0.0313
v  -0.9449 4.4688 0.0313
v  -1.0074 4.4688 0.0313
v  -1.0074 4.3438 0.0313
v  -0.9449 4.3438 0.0313
v  -1.0074 4.3438 -0.0313
v  -0.9449 4.3438 -0.0313
v  -1.0699 4.5313 0.0313
v  -1.1324 4.4688 0.0313
v  -1.0699 4.4688 0.0313
v  -1.0699 4.4688 -0.0313
v  -1.0699 4.3438 -0.0313
v  -1.1324 4.4688 -0.0313
v  -1.1324 4.3438 0.0313
v  -1.0699 4.3438 0.0313
v  -1.1324 4.3438 -0.0313
v  -1.0074 3.9688 -0.0313
v  -0.9449 4.0313 -0.0313
v  -0.9449 3.9688 -0.0313
v  -1.0699 4.0313 -0.0313
v  -1.0074 4.0313 0.0313
v  -1.0074 4.0313 -0.0313
v  -0.9449 3.9688 0.0313
v  -1.0074 3.9688 0.0313
v  -1.0074 3.8438 0.0313
v  -0.9449 3.8438 0.0313
v  -1.0074 3.8438 -0.0313
v  -0.9449 3.8438 -0.0313
v  -1.0699 4.0313 0.0313
v  -1.1324 3.9688 0.0313
v  -1.0699 3.9688 0.0313
v  -1.0699 3.9688 -0.0313
v  -1.0699 3.8438 -0.0313
v  -1.1324 3.9688 -0.0313
v  -1.1324 3.8438 0.0313
v  -1.0699 3.8438 0.0313
v  -1.1324 3.8438 -0.0313
v  -1.0074 3.4688 -0.0313
v  -0.9449 3.5313 -0.0313
v  -0.9449 3.4688 -0.0313
v  -1.0699 3.5313 -0.0313
v  -1.0074 3.5313 0.0313
v  -1.0074 3.5313 -0.0313
v  -0.9449 3.4688 0.0313
v  -1.0074 3.4688 0.0313
v  -1.0074 3.3438 0.0313
v  -0.9449 3.3438 0.0313
v  -1.0074 3.3438 -0.0313
v  -0.9449 3.3438 -0.0313
v  -1.0699 3.5313 0.0313
v  -1.1324 3.4688 0.0313
v  -1.0699 3.4688 0.0313
v  -1.0699 3.4688 -0.0313
v  -1.0699 3.3438 -0.0313
v  -1.1324 3.4688 -0.0313
v  -1.1324 3.3438 0.0313
v  -1.0699 3.3438 0.0313
v  -1.1324 3.3438 -0.0313
v  0.7980 1.3125 -0.4688
v  0.7355 1.3125 -0.5313
v  0.7355 1.3125 -0.4688
v  0.8110 1.3125 -0.5330
v  0.8759 1.2500 -0.5313
v  0.8110 1.2500 -0.5330
v  0.8759 1.3125 -0.5313
v  0.8759 1.2500 -0.4688
v  0.7980 1.2500 -0.4688
v  0.8759 1.3125 -0.4688
v  0.7355 1.2500 -0.5313
v  0.7793 1.2500 -0.5842
v  0.7355 1.3125 -0.5514
v  0.7793 1.3125 -0.5842
v  0.7355 1.2500 -0.5514
v  0.7980 0.6250 -0.4688
v  0.7355 0.6250 -0.5313
v  0.7355 0.6250 -0.4688
v  0.8110 0.6250 -0.5330
v  0.8759 0.5625 -0.5313
v  0.8110 0.5625 -0.5330
v  0.8759 0.6250 -0.5313
v  0.8759 0.5625 -0.4688
v  0.7980 0.5625 -0.4688
v  0.8759 0.6250 -0.4688
v  0.7355 0.5625 -0.5313
v  0.7793 0.5625 -0.5842
v  0.7355 0.6250 -0.5514
v  0.7793 0.6250 -0.5842
v  0.7355 0.5625 -0.5514
v  0.7980 1.3125 0.4688
v  0.7355 1.3125 0.5313
v  0.8110 1.3125 0.5330
v  0.8759 1.2500 0.5313
v  0.8110 1.2500 0.5330
v  0.8759 1.2500 0.4688
v  0.8759 1.3125 0.5313
v  0.8759 1.3125 0.4688
v  0.7355 1.2500 0.5313
v  0.7980 1.2500 0.4688
v  0.7355 1.3125 0.5514
v  0.7793 1.2500 0.5842
v  0.7793 1.3125 0.5842
v  0.7355 1.2500 0.5514
v  0.7980 0.6250 0.4688
v  0.7355 0.6250 0.5313
v  0.8110 0.6250 0.5330
v  0.8759 0.5625 0.5313
v  0.8110 0.5625 0.5330
v  0.8759 0.5625 0.4688
v  0.8759 0.6250 0.5313
v  0.8759 0.6250 0.4688
v  0.7355 0.5625 0.5313
v  0.7980 0.5625 0.4688
v  0.7355 0.6250 0.5514
v  0.7793 0.5625 0.5842
v  0.7793 0.6250 0.5842
v  0.7355 0.5625 0.5514
v  0.6250 1.3750 -0.5000
v  1.1250 1.3125 -0.5000
v  0.6250 1.3125 -0.5000
v  1.1250 1.3750 -0.5000
v  1.1250 1.3125 0.5000
v  1.1250 1.3750 0.5000
v  0.6250 1.3125 0.5000
v  1.1250 0.5000 -0.5000
v  0.6250 0.5000 0.5000
v  0.6250 0.5000 -0.5000
v  1.1250 0.5625 0.5000
v  1.1250 0.5000 0.5000
v  0.6250 1.0625 0.5000
v  1.1250 1.0625 0.5000
v  1.1250 0.5625 -0.5000
v  1.1250 1.1250 -0.4375
v  1.0000 1.1250 0.4375
v  1.1250 1.1250 0.4375
v  0.6250 0.5625 -0.5000
v  1.1250 1.0625 -0.5000
v  0.6250 1.0625 -0.5000
v  0.6250 0.8125 -0.5000
v  1.1250 0.8125 -0.5000
v  1.1250 1.0000 0.4375
v  1.0000 1.0000 -0.4375
v  1.1250 1.0000 -0.4375
v  1.1250 0.6250 0.4375
v  1.0000 0.7500 0.4375
v  1.1250 0.7500 0.4375
v  1.1250 0.8125 0.5000
v  0.6250 0.5625 0.5000
v  0.6250 0.8125 0.5000
v  1.1250 1.2500 -0.4375
v  1.1250 1.2500 0.4375
v  1.1250 0.6250 -0.4375
v  1.1250 0.7500 -0.4375
v  1.1250 0.8750 -0.4375
v  1.1250 0.8750 0.4375
v  1.0000 1.2500 -0.4375
v  1.0000 1.1250 -0.4375
v  1.0000 0.7500 -0.4375
v  1.0000 0.6250 0.4375
v  1.0000 0.6250 -0.4375
v  1.0000 0.8750 0.4375
v  1.0000 0.8750 -0.4375
v  1.0000 1.0000 0.4375
v  1.0000 1.2500 0.4375
v  0.0000 6.0000 -0.9611
v  0.3678 5.9375 -0.8879
v  0.0000 5.9375 -0.9611
v  0.3678 6.0000 -0.8879
v  0.6796 5.9375 -0.6796
v  0.6796 6.0000 -0.6796
v  0.8879 5.9375 -0.3678
v  0.8879 6.0000 -0.3678
v  0.9611 5.9375 -0.0000
v  0.9611 6.0000 -0.0000
v  0.8879 5.9375 0.3678
v  0.8879 6.0000 0.3678
v  0.6796 5.9375 0.6796
v  0.6796 6.0000 0.6796
v  0.3678 5.9375 0.8879
v  0.3678 6.0000 0.8879
v  0.0000 5.9375 0.9611
v  0.0000 6.0000 0.9611
v  -0.3678 5.9375 0.8879
v  -0.3678 6.0000 0.8879
v  -0.6796 5.9375 0.6796
v  -0.6796 6.0000 0.6796
v  -0.8879 5.9375 0.3678
v  -0.8879 6.0000 0.3678
v  -0.9611 5.9375 -0.0000
v  -0.9611 6.0000 -0.0000
v  -0.8879 5.9375 -0.3678
v  -0.8879 6.0000 -0.3678
v  -0.6796 5.9375 -0.6796
v  -0.6796 6.0000 -0.6796
v  -0.3678 5.9375 -0.8879
v  -0.3678 6.0000 -0.8879
v  0.0000 5.9375 -0.7699
v  0.2946 5.9375 -0.7113
v  0.5444 5.9375 -0.5444
v  0.7113 5.9375 -0.2946
v  0.7699 5.9375 -0.0000
v  0.7113 5.9375 0.2946
v  0.5444 5.9375 0.5444
v  0.2946 5.9375 0.7113
v  0.0000 5.9375 0.7699
v  -0.2946 5.9375 0.7113
v  -0.5444 5.9375 0.5444
v  -0.7113 5.9375 0.2946
v  -0.7699 5.9375 -0.0000
v  -0.7113 5.9375 -0.2946
v  -0.5444 5.9375 -0.5444
v  -0.2946 5.9375 -0.7113
v  -0.0313 5.0313 -0.9449
v  -0.0313 4.9688 -1.0074
v  -0.0313 4.9688 -0.9449
v  0.0313 5.0313 -1.0074
v  -0.0313 5.0313 -1.0699
v  -0.0313 5.0313 -1.0074
v  0.0313 4.9688 -0.9449
v  0.0313 4.9688 -1.0074
v  0.0313 4.8438 -1.0074
v  -0.0313 4.8438 -1.0074
v  0.0313 4.8438 -0.9449
v  -0.0313 4.8438 -0.9449
v  0.0313 5.0313 -1.0699
v  0.0313 4.9688 -1.0699
v  0.0313 4.9688 -1.1324
v  -0.0313 4.9688 -1.0699
v  -0.0313 4.9688 -1.1324
v  -0.0313 4.8438 -1.0699
v  0.0313 4.8438 -1.1324
v  0.0313 4.8438 -1.0699
v  -0.0313 4.8438 -1.1324
v  -0.0313 4.5313 -0.9449
v  -0.0313 4.4688 -1.0074
v  -0.0313 4.4688 -0.9449
v  0.0313 4.5313 -1.0074
v  -0.0313 4.5313 -1.0699
v  -0.0313 4.5313 -1.0074
v  0.0313 4.4688 -0.9449
v  0.0313 4.4688 -1.0074
v  0.0313 4.3438 -1.0074
v  -0.0313 4.3438 -1.0074
v  0.0313 4.3438 -0.9449
v  -0.0313 4.3438 -0.9449
v  0.0313 4.5313 -1.0699
v  0.0313 4.4688 -1.0699
v  0.0313 4.4688 -1.1324
v  -0.0313 4.4688 -1.0699
v  -0.0313 4.4688 -1.1324
v  -0.0313 4.3438 -1.0699
v  0.0313 4.3438 -1.1324
v  0.0313 4.3438 -1.0699
v  -0.0313 4.3438 -1.1324
v  -0.0313 4.0313 -0.9449
v  -0.0313 3.9688 -1.0074
v  -0.0313 3.9688 -0.9449
v  0.0313 4.0313 -1.0074
v  -0.0313 4.0313 -1.0699
v  -0.0313 4.0313 -1.0074
v  0.0313 3.9688 -0.9449
v  0.0313 3.9688 -1.0074
v  0.0313 3.8438 -1.0074
v  -0.0313 3.8438 -1.0074
v  0.0313 3.8438 -0.9449
v  -0.0313 3.8438 -0.9449
v  0.0313 4.0313 -1.0699
v  0.0313 3.9688 -1.0699
v  0.0313 3.9688 -1.1324
v  -0.0313 3.9688 -1.0699
v  -0.0313 3.9688 -1.1324
v  -0.0313 3.8438 -1.0699
v  0.0313 3.8438 -1.1324
v  0.0313 3.8438 -1.0699
v  -0.0313 3.8438 -1.1324
v  -0.0313 3.5313 -0.9449
v  -0.0313 3.4688 -1.0074
v  -0.0313 3.4688 -0.9449
v  0.0313 3.5313 -1.0074
v  -0.0313 3.5313 -1.0699
v  -0.0313 3.5313 -1.0074
v  0.0313 3.4688 -0.9449
v  0.0313 3.4688 -1.0074
v  0.0313 3.3438 -1.0074
v  -0.0313 3.3438 -1.0074
v  0.0313 3.3438 -0.9449
v  -0.0313 3.3438 -0.9449
v  0.0313 3.5313 -1.0699
v  0.0313 3.4688 -1.0699
v  0.0313 3.4688 -1.1324
v  -0.0313 3.4688 -1.0699
v  -0.0313 3.4688 -1.1324
v  -0.0313 3.3438 -1.0699
v  0.0313 3.3438 -1.1324
v  0.0313 3.3438 -1.0699
v  -0.0313 3.3438 -1.1324
v  -0.0313 4.9688 1.0074
v  -0.0313 5.0313 0.9449
v  -0.0313 4.9688 0.9449
v  -0.0313 5.0313 1.0699
v  0.0313 5.0313 1.0074
v  -0.0313 5.0313 1.0074
v  0.0313 4.9688 0.9449
v  0.0313 4.9688 1.0074
v  0.0313 4.8438 1.0074
v  0.0313 5.0313 0.9449
v  0.0313 4.8438 0.9449
v  -0.0313 4.8438 1.0074
v  -0.0313 4.8438 0.9449
v  0.0313 5.0313 1.0699
v  0.0313 4.9688 1.1324
v  0.0313 4.9688 1.0699
v  -0.0313 4.9688 1.0699
v  -0.0313 4.8438 1.0699
v  -0.0313 4.9688 1.1324
v  0.0313 4.8438 1.1324
v  0.0313 4.8438 1.0699
v  -0.0313 4.8438 1.1324
v  -0.0313 4.4688 1.0074
v  -0.0313 4.5313 0.9449
v  -0.0313 4.4688 0.9449
v  -0.0313 4.5313 1.0699
v  0.0313 4.5313 1.0074
v  -0.0313 4.5313 1.0074
v  0.0313 4.4688 0.9449
v  0.0313 4.4688 1.0074
v  0.0313 4.3438 1.0074
v  0.0313 4.5313 0.9449
v  0.0313 4.3438 0.9449
v  -0.0313 4.3438 1.0074
v  -0.0313 4.3438 0.9449
v  0.0313 4.5313 1.0699
v  0.0313 4.4688 1.1324
v  0.0313 4.4688 1.0699
v  -0.0313 4.4688 1.0699
v  -0.0313 4.3438 1.0699
v  -0.0313 4.4688 1.1324
v  0.0313 4.3438 1.1324
v  0.0313 4.3438 1.0699
v  -0.0313 4.3438 1.1324
v  -0.0313 3.9688 1.0074
v  -0.0313 4.0313 0.9449
v  -0.0313 3.9688 0.9449
v  -0.0313 4.0313 1.0699
v  0.0313 4.0313 1.0074
v  -0.0313 4.0313 1.0074
v  0.0313 3.9688 0.9449
v  0.0313 3.9688 1.0074
v  0.0313 3.8438 1.0074
v  0.0313 4.0313 0.9449
v  0.0313 3.8438 0.9449
v  -0.0313 3.8438 1.0074
v  -0.0313 3.8438 0.9449
v  0.0313 4.0313 1.0699
v  0.0313 3.9688 1.1324
v  0.0313 3.9688 1.0699
v  -0.0313 3.9688 1.0699
v  -0.0313 3.8438 1.0699
v  -0.0313 3.9688 1.1324
v  0.0313 3.8438 1.1324
v  0.0313 3.8438 1.0699
v  -0.0313 3.8438 1.1324
v  -0.0313 3.4688 1.0074
v  -0.0313 3.5313 0.9449
v  -0.0313 3.4688 0.9449
v  -0.0313 3.5313 1.0699
v  0.0313 3.5313 1.0074
v  -0.0313 3.5313 1.0074
v  0.0313 3.4688 0.9449
v  0.0313 3.4688 1.0074
v  0.0313 3.3438 1.0074
v  0.0313 3.5313 0.9449
v  0.0313 3.3438 0.9449
v  -0.0313 3.3438 1.0074
v  -0.0313 3.3438 0.9449
v  0.0313 3.5313 1.0699
v  0.0313 3.4688 1.1324
v  0.0313 3.4688 1.0699
v  -0.0313 3.4688 1.0699
v  -0.0313 3.3438 1.0699
v  -0.0313 3.4688 1.1324
v  0.0313 3.3438 1.1324
v  0.0313 3.3438 1.0699
v  -0.0313 3.3438 1.1324
v  0.0000 0.0000 -0.6407
v  0.2452 0.0000 -0.5920
v  0.4531 0.0000 -0.4531
v  0.5920 0.0000 -0.2452
v  0.6407 0.0000 -0.0000
v  0.5920 0.0000 0.2452
v  0.4531 0.0000 0.4531
v  0.0000 0.0000 0.6407
v  -0.2452 0.0000 0.5920
v  -0.4531 0.0000 0.4531
v  -0.6407 0.0000 -0.0000
v  -0.5920 0.0000 -0.2452
v  -0.4531 0.0000 -0.4531
v  0.9449 5.0313 0.0313
v  0.9449 4.5313 0.0313
v  0.9449 4.0313 0.0313
v  0.9449 3.5313 0.0313
v  -0.9449 5.0313 0.0313
v  -0.9449 4.5313 0.0313
v  -0.9449 4.0313 0.0313
v  -0.9449 3.5313 0.0313
v  0.7355 1.2500 -0.4688
v  0.7355 0.5625 -0.4688
v  0.7355 1.3125 0.4688
v  0.7355 1.2500 0.4688
v  0.7355 0.6250 0.4688
v  0.7355 0.5625 0.4688
v  0.6250 1.3750 0.5000
v  0.0313 5.0313 -0.9449
v  0.0313 4.5313 -0.9449
v  0.0313 4.0313 -0.9449
v  0.0313 3.5313 -0.9449
v  0.0000 5.3125 -0.9611
v  0.3678 0.3125 -0.8879
v  0.0000 0.3125 -0.9611
v  0.3678 5.3125 -0.8879
v  0.6796 0.3125 -0.6796
v  0.6796 5.3125 -0.6796
v  0.8879 0.3125 -0.3678
v  0.8879 5.3125 -0.3678
v  0.9611 0.3125 -0.0000
v  0.9611 5.3125 -0.0000
v  0.8879 0.3125 0.3678
v  0.8879 5.3125 0.3678
v  0.6796 0.3125 0.6796
v  0.6796 5.3125 0.6796
v  0.3678 0.3125 0.8879
v  0.3678 5.3125 0.8879
v  0.0000 0.3125 0.9611
v  0.0000 5.3125 0.9611
v  -0.3678 0.3125 0.8879
v  -0.3678 5.3125 0.8879
v  -0.6796 0.3125 0.6796
v  -0.6796 5.3125 0.6796
v  -0.8879 0.3125 0.3678
v  -0.8879 5.3125 0.3678
v  -0.9611 0.3125 -0.0000
v  -0.9611 5.3125 -0.0000
v  -0.8879 0.3125 -0.3678
v  -0.8879 5.3125 -0.3678
v  -0.6796 0.3125 -0.6796
v  0.8009 5.9375 -0.0000
v  -0.6796 5.3125 -0.6796
v  -0.3678 0.3125 -0.8879
v  -0.3678 5.3125 -0.8879
v  -0.3065 5.9375 0.7399
v  -0.5663 5.9375 -0.5663
v  0.5663 5.9375 -0.5663
v  0.3065 5.9375 0.7399
v  -0.8009 5.9375 -0.0000
v  0.7399 5.9375 0.3065
v  -0.5663 5.9375 0.5663
v  -0.3065 5.9375 -0.7399
v  0.7399 5.9375 -0.3065
v  0.0000 5.9375 0.8009
v  0.0000 5.9375 -0.8009
v  0.3065 5.9375 -0.7399
v  -0.7399 5.9375 -0.3065
v  0.5663 5.9375 0.5663
v  -0.7399 5.9375 0.3065
# 576 vertices

vn 0.0000 -1.0000 -0.0000
vn 0.0000 0.0000 -1.0000
vn 0.0000 1.0000 -0.0000
vn 0.0000 0.0000 1.0000
vn 1.0000 0.0000 -0.0000
vn 0.7071 0.7071 -0.0000
vn -1.0000 0.0000 -0.0000
vn -0.7071 0.7071 -0.0000
vn 0.0272 0.0000 -0.9996
vn -0.5993 0.0000 -0.8005
vn 0.8499 0.0000 -0.5269
vn 0.0272 0.0000 0.9996
vn -0.5993 0.0000 0.8005
vn 0.8499 0.0000 0.5269
vn 0.3827 0.0000 -0.9239
vn -0.0000 0.0000 -1.0000
vn 0.7071 0.0000 -0.7071
vn 0.9239 0.0000 -0.3827
vn 1.0000 0.0000 0.0000
vn 0.9239 0.0000 0.3827
vn 0.7071 0.0000 0.7071
vn 0.3827 0.0000 0.9239
vn -0.0000 0.0000 1.0000
vn -0.3827 0.0000 0.9239
vn -0.7071 0.0000 0.7071
vn -0.9239 0.0000 0.3827
vn -1.0000 0.0000 0.0000
vn -0.9239 0.0000 -0.3827
vn -0.7071 0.0000 -0.7071
vn -0.3827 0.0000 -0.9239
vn 0.0000 0.7071 -0.7071
vn 0.0000 0.7071 0.7071
vn 0.0000 0.1232 -0.9924
vn 0.3552 -0.3721 -0.8575
vn 0.0000 -0.3721 -0.9282
vn 0.3797 0.1232 -0.9168
vn 0.6563 -0.3721 -0.6563
vn 0.7017 0.1232 -0.7017
vn 0.8575 -0.3721 -0.3552
vn 0.9168 0.1232 -0.3797
vn 0.9282 -0.3721 -0.0000
vn 0.9924 0.1232 -0.0000
vn 0.8575 -0.3721 0.3552
vn 0.9168 0.1232 0.3797
vn 0.6563 -0.3721 0.6563
vn 0.7017 0.1232 0.7017
vn 0.3552 -0.3721 0.8575
vn 0.3797 0.1232 0.9168
vn 0.0000 -0.3721 0.9282
vn 0.0000 0.1232 0.9924
vn -0.3552 -0.3721 0.8575
vn -0.3797 0.1232 0.9168
vn -0.6563 -0.3721 0.6563
vn -0.7017 0.1232 0.7017
vn -0.8575 -0.3721 0.3552
vn -0.9168 0.1232 0.3797
vn -0.9282 -0.3721 -0.0000
vn -0.9924 0.1232 -0.0000
vn -0.8575 -0.3721 -0.3552
vn -0.9168 0.1232 -0.3797
vn -0.6563 -0.3721 -0.6563
vn 0.9687 0.2482 -0.0000
vn -0.7017 0.1232 -0.7017
vn -0.3552 -0.3721 -0.8575
vn -0.3797 0.1232 -0.9168
vn -0.3842 -0.9094 -0.1591
vn 0.1591 -0.9094 -0.3842
vn 0.1591 -0.9094 0.3842
vn 0.2940 -0.9094 0.2940
vn -0.4159 -0.9094 -0.0000
vn -0.3842 -0.9094 0.1591
vn 0.4159 -0.9094 -0.0000
vn -0.1591 -0.9094 0.3842
vn -0.2940 -0.9094 -0.2940
vn 0.2940 -0.9094 -0.2940
vn 0.0000 -0.9094 -0.4159
vn 0.3842 -0.9094 0.1591
vn -0.2940 -0.9094 0.2940
vn -0.1591 -0.9094 -0.3842
vn 0.3842 -0.9094 -0.1591
vn 0.0000 -0.9094 0.4159
vn -0.3707 0.2482 0.8949
vn -0.6850 0.2482 -0.6850
vn 0.6850 0.2482 -0.6850
vn 0.3707 0.2482 0.8949
vn -0.9687 0.2482 -0.0000
vn 0.8949 0.2482 0.3707
vn -0.6850 0.2482 0.6850
vn -0.3707 0.2482 -0.8949
vn 0.8949 0.2482 -0.3707
vn 0.0000 0.2482 0.9687
vn 0.0000 0.2482 -0.9687
vn 0.3707 0.2482 -0.8949
vn -0.8949 0.2482 -0.3707
vn 0.6850 0.2482 0.6850
vn -0.8949 0.2482 0.3707
# 96 vertex normals

vt 0.7624 0.9298 0.0000
vt 0.8054 0.7979 0.0000
vt 0.9094 0.8524 0.0000
vt 0.7969 0.4653 0.0000
vt 0.8047 0.4554 0.0000
vt 0.8047 0.4653 0.0000
vt 0.7891 0.4554 0.0000
vt 0.7969 0.4455 0.0000
vt 0.7969 0.4554 0.0000
vt 0.7813 0.4653 0.0000
vt 0.7813 0.4554 0.0000
vt 0.7500 0.4653 0.0000
vt 0.7578 0.4455 0.0000
vt 0.7578 0.4653 0.0000
vt 0.7656 0.4455 0.0000
vt 0.7578 0.4356 0.0000
vt 0.7656 0.4356 0.0000
vt 0.7656 0.4653 0.0000
vt 0.7734 0.4455 0.0000
vt 0.7734 0.4653 0.0000
vt 0.7891 0.4455 0.0000
vt 0.7813 0.4455 0.0000
vt 0.7891 0.4356 0.0000
vt 0.8047 0.4455 0.0000
vt 0.8125 0.4455 0.0000
vt 0.8125 0.4554 0.0000
vt 0.7969 0.4356 0.0000
vt 0.8047 0.4158 0.0000
vt 0.8047 0.4356 0.0000
vt 0.7969 0.4059 0.0000
vt 0.7891 0.4158 0.0000
vt 0.7891 0.4059 0.0000
vt 0.8125 0.4158 0.0000
vt 0.8125 0.4356 0.0000
vt 0.7813 0.4356 0.0000
vt 0.7969 0.4158 0.0000
vt 0.8203 0.4554 0.0000
vt 0.8281 0.4653 0.0000
vt 0.8203 0.4653 0.0000
vt 0.8516 0.4455 0.0000
vt 0.8438 0.4554 0.0000
vt 0.8438 0.4455 0.0000
vt 0.8516 0.4554 0.0000
vt 0.8438 0.4653 0.0000
vt 0.8281 0.4356 0.0000
vt 0.8203 0.4257 0.0000
vt 0.8203 0.4356 0.0000
vt 0.8281 0.4554 0.0000
vt 0.8203 0.4455 0.0000
vt 0.8281 0.4455 0.0000
vt 0.8438 0.4356 0.0000
vt 0.8516 0.4257 0.0000
vt 0.8516 0.4356 0.0000
vt 0.8359 0.4653 0.0000
vt 0.8359 0.4455 0.0000
vt 0.8359 0.4356 0.0000
vt 0.8281 0.4257 0.0000
vt 1.0000 0.3267 0.0000
vt 0.9375 0.3168 0.0000
vt 1.0000 0.3168 0.0000
vt 0.9375 0.3267 0.0000
vt 0.8125 0.3168 0.0000
vt 0.8125 0.3267 0.0000
vt 0.7500 0.3168 0.0000
vt 0.9375 0.1881 0.0000
vt 0.8125 0.1089 0.0000
vt 0.9375 0.1089 0.0000
vt 0.9375 0.4059 0.0000
vt 0.8125 0.1980 0.0000
vt 0.7500 0.1881 0.0000
vt 0.8125 0.1881 0.0000
vt 0.7500 0.2772 0.0000
vt 0.8125 0.2772 0.0000
vt 0.9375 0.1980 0.0000
vt 0.9844 0.4059 0.0000
vt 0.8750 0.4257 0.0000
vt 0.8750 0.4059 0.0000
vt 1.0000 0.1980 0.0000
vt 1.0000 0.1881 0.0000
vt 0.9375 0.2772 0.0000
vt 1.0000 0.2772 0.0000
vt 1.0000 0.2376 0.0000
vt 0.9375 0.2376 0.0000
vt 0.8750 0.4653 0.0000
vt 0.9844 0.4455 0.0000
vt 0.9844 0.4653 0.0000
vt 0.8594 0.4257 0.0000
vt 0.8750 0.4455 0.0000
vt 0.8594 0.4455 0.0000
vt 0.8125 0.2376 0.0000
vt 0.7500 0.1980 0.0000
vt 0.7500 0.2376 0.0000
vt 0.9297 0.2871 0.0000
vt 0.9297 0.3069 0.0000
vt 0.8203 0.3069 0.0000
vt 0.8203 0.2871 0.0000
vt 0.9297 0.2079 0.0000
vt 0.9297 0.2277 0.0000
vt 0.8203 0.2277 0.0000
vt 0.8203 0.2079 0.0000
vt 0.9297 0.2673 0.0000
vt 0.9297 0.2475 0.0000
vt 0.8203 0.2673 0.0000
vt 0.8203 0.2475 0.0000
vt 0.9844 0.4257 0.0000
vt 1.0000 0.4455 0.0000
vt 1.0000 0.4257 0.0000
vt 0.5625 0.0396 0.0000
vt 0.5156 0.0297 0.0000
vt 0.5625 0.0297 0.0000
vt 0.5156 0.0396 0.0000
vt 0.4688 0.0297 0.0000
vt 0.4688 0.0396 0.0000
vt 0.4219 0.0297 0.0000
vt 0.4219 0.0396 0.0000
vt 0.3750 0.0297 0.0000
vt 0.3750 0.0396 0.0000
vt 0.3281 0.0297 0.0000
vt 0.3281 0.0396 0.0000
vt 0.2813 0.0297 0.0000
vt 0.2813 0.0396 0.0000
vt 0.2344 0.0297 0.0000
vt 0.2344 0.0396 0.0000
vt 0.1875 0.0297 0.0000
vt 0.1875 0.0396 0.0000
vt 0.1406 0.0297 0.0000
vt 0.1406 0.0396 0.0000
vt 0.0938 0.0297 0.0000
vt 0.0938 0.0396 0.0000
vt 0.0469 0.0297 0.0000
vt 0.0469 0.0396 0.0000
vt 0.0000 0.0297 0.0000
vt 0.7500 0.0396 0.0000
vt 0.7031 0.0297 0.0000
vt 0.7500 0.0297 0.0000
vt 0.7031 0.0396 0.0000
vt 0.6563 0.0297 0.0000
vt 0.9596 0.7310 0.0000
vt 0.7904 0.7310 0.0000
vt 0.7904 0.5166 0.0000
vt 0.6563 0.0396 0.0000
vt 0.6094 0.0297 0.0000
vt 0.6094 0.0396 0.0000
vt 0.5578 0.0000 0.0000
vt 0.5203 0.0000 0.0000
vt 0.5110 0.0000 0.0000
vt 0.4734 0.0000 0.0000
vt 0.4266 0.0000 0.0000
vt 0.4172 0.0000 0.0000
vt 0.3797 0.0000 0.0000
vt 0.3328 0.0000 0.0000
vt 0.3235 0.0000 0.0000
vt 0.2859 0.0001 0.0000
vt 0.2766 0.0001 0.0000
vt 0.2391 0.0001 0.0000
vt 0.2297 0.0001 0.0000
vt 0.1922 0.0001 0.0000
vt 0.1829 0.0001 0.0000
vt 0.1453 0.0001 0.0000
vt 0.1360 0.0001 0.0000
vt 0.0984 0.0001 0.0000
vt 0.0891 0.0001 0.0000
vt 0.0516 0.0001 0.0000
vt 0.0047 0.0001 0.0000
vt 0.7453 0.0001 0.0000
vt 0.7078 0.0000 0.0000
vt 0.6985 0.0000 0.0000
vt 0.6609 0.0000 0.0000
vt 0.6516 0.0000 0.0000
vt 0.6140 0.0000 0.0000
vt 0.6047 0.0000 0.0000
vt 0.5672 0.0000 0.0000
vt 0.7969 0.1881 0.0000
vt 0.8047 0.1782 0.0000
vt 0.8047 0.1881 0.0000
vt 0.7891 0.1782 0.0000
vt 0.7969 0.1683 0.0000
vt 0.7969 0.1782 0.0000
vt 0.7813 0.1881 0.0000
vt 0.7813 0.1782 0.0000
vt 0.7578 0.1683 0.0000
vt 0.7578 0.1881 0.0000
vt 0.7656 0.1683 0.0000
vt 0.7578 0.1584 0.0000
vt 0.7656 0.1584 0.0000
vt 0.7656 0.1881 0.0000
vt 0.7734 0.1683 0.0000
vt 0.7734 0.1881 0.0000
vt 0.7891 0.1683 0.0000
vt 0.7813 0.1683 0.0000
vt 0.7891 0.1584 0.0000
vt 0.8047 0.1683 0.0000
vt 0.8125 0.1683 0.0000
vt 0.8125 0.1782 0.0000
vt 0.7969 0.1584 0.0000
vt 0.8047 0.1386 0.0000
vt 0.8047 0.1584 0.0000
vt 0.7969 0.1287 0.0000
vt 0.7891 0.1386 0.0000
vt 0.7891 0.1287 0.0000
vt 0.8125 0.1386 0.0000
vt 0.8125 0.1584 0.0000
vt 0.7813 0.1584 0.0000
vt 0.7969 0.1386 0.0000
vt 0.8047 0.3960 0.0000
vt 0.8047 0.4059 0.0000
vt 0.7969 0.3861 0.0000
vt 0.7891 0.3960 0.0000
vt 0.7969 0.3960 0.0000
vt 0.7813 0.4059 0.0000
vt 0.7813 0.3960 0.0000
vt 0.7578 0.3861 0.0000
vt 0.7500 0.4059 0.0000
vt 0.7578 0.4059 0.0000
vt 0.7578 0.3762 0.0000
vt 0.7656 0.3861 0.0000
vt 0.7656 0.3762 0.0000
vt 0.7734 0.3861 0.0000
vt 0.7656 0.4059 0.0000
vt 0.7734 0.4059 0.0000
vt 0.7891 0.3861 0.0000
vt 0.7891 0.3762 0.0000
vt 0.7813 0.3861 0.0000
vt 0.8047 0.3861 0.0000
vt 0.8125 0.3861 0.0000
vt 0.8125 0.3960 0.0000
vt 0.8047 0.3564 0.0000
vt 0.7969 0.3762 0.0000
vt 0.8047 0.3762 0.0000
vt 0.7891 0.3564 0.0000
vt 0.7969 0.3465 0.0000
vt 0.7891 0.3465 0.0000
vt 0.8125 0.3564 0.0000
vt 0.8125 0.3762 0.0000
vt 0.7813 0.3762 0.0000
vt 0.7969 0.3564 0.0000
vt 0.9155 0.8910 0.0000
vt 0.9095 0.9296 0.0000
vt 0.8923 0.9624 0.0000
vt 0.8665 0.9842 0.0000
vt 0.8360 0.9920 0.0000
vt 0.8055 0.9843 0.0000
vt 0.7797 0.9625 0.0000
vt 0.7564 0.8912 0.0000
vt 0.7624 0.8526 0.0000
vt 0.7796 0.8198 0.0000
vt 0.8359 0.7902 0.0000
vt 0.8663 0.7979 0.0000
vt 0.8922 0.8197 0.0000
vt 0.7891 0.4653 0.0000
vt 0.7500 0.4455 0.0000
vt 0.7813 0.4158 0.0000
vt 0.8516 0.4653 0.0000
vt 0.8438 0.4257 0.0000
vt 0.8359 0.4554 0.0000
vt 0.7500 0.3267 0.0000
vt 0.8125 0.4059 0.0000
vt 0.0000 0.0396 0.0000
vt 0.9596 0.5166 0.0000
vt 0.9855 0.5657 0.0000
vt 0.9946 0.6237 0.0000
vt 0.9855 0.6818 0.0000
vt 0.9208 0.7638 0.0000
vt 0.8750 0.7754 0.0000
vt 0.8292 0.7638 0.0000
vt 0.7645 0.6818 0.0000
vt 0.7554 0.6238 0.0000
vt 0.7645 0.5658 0.0000
vt 0.8292 0.4837 0.0000
vt 0.8750 0.4722 0.0000
vt 0.9208 0.4837 0.0000
vt 0.4641 0.0000 0.0000
vt 0.3704 0.0000 0.0000
vt 0.0423 0.0001 0.0000
vt 0.7891 0.1881 0.0000
vt 0.7500 0.1683 0.0000
vt 0.7813 0.1386 0.0000
vt 0.7500 0.3861 0.0000
vt 0.7813 0.3564 0.0000
vt 0.5625 0.9010 0.0000
vt 0.5156 0.1089 0.0000
vt 0.5625 0.1089 0.0000
vt 0.5156 0.9010 0.0000
vt 0.4688 0.1089 0.0000
vt 0.4688 0.9010 0.0000
vt 0.4219 0.1089 0.0000
vt 0.4219 0.9010 0.0000
vt 0.3750 0.1089 0.0000
vt 0.3750 0.9010 0.0000
vt 0.3281 0.1089 0.0000
vt 0.3281 0.9010 0.0000
vt 0.2813 0.1089 0.0000
vt 0.2813 0.9010 0.0000
vt 0.2344 0.1089 0.0000
vt 0.2344 0.9010 0.0000
vt 0.1875 0.1089 0.0000
vt 0.1875 0.9010 0.0000
vt 0.1406 0.1089 0.0000
vt 0.1406 0.9010 0.0000
vt 0.0938 0.1089 0.0000
vt 0.0938 0.9010 0.0000
vt 0.0469 0.1089 0.0000
vt 0.0469 0.9010 0.0000
vt 0.0000 0.1089 0.0000
vt 0.7500 0.9010 0.0000
vt 0.7031 0.1089 0.0000
vt 0.7500 0.1089 0.0000
vt 0.7031 0.9010 0.0000
vt 0.6563 0.1089 0.0000
vt 0.3789 0.9999 0.0000
vt 0.6563 0.9010 0.0000
vt 0.6094 0.1089 0.0000
vt 0.6094 0.9010 0.0000
vt 0.6953 0.0397 0.0000
vt 0.5078 0.0397 0.0000
vt 0.2422 0.0397 0.0000
vt 0.2735 0.0397 0.0000
vt 0.0079 0.0397 0.0000
vt 0.0392 0.0397 0.0000
vt 0.3672 0.0397 0.0000
vt 0.1329 0.0397 0.0000
vt 0.6484 0.0397 0.0000
vt 0.4610 0.0397 0.0000
vt 0.2266 0.0397 0.0000
vt 0.5235 0.0397 0.0000
vt 0.5547 0.0397 0.0000
vt 0.7422 0.0397 0.0000
vt 0.3204 0.0397 0.0000
vt 0.0860 0.0397 0.0000
vt 0.6016 0.0397 0.0000
vt 0.4141 0.0397 0.0000
vt 0.1485 0.0397 0.0000
vt 0.1798 0.0397 0.0000
vt 0.1446 0.9999 0.0000
vt 0.6601 0.9999 0.0000
vt 0.4727 0.9999 0.0000
vt 0.2383 0.9999 0.0000
vt 0.0040 0.9999 0.0000
vt 0.0000 0.9010 0.0000
vt 0.3321 0.9999 0.0000
vt 0.0977 0.9999 0.0000
vt 0.6133 0.9999 0.0000
vt 0.4258 0.9999 0.0000
vt 0.1915 0.9999 0.0000
vt 0.5586 0.9999 0.0000
vt 0.5195 0.9999 0.0000
vt 0.7461 0.9999 0.0000
vt 0.7070 0.9999 0.0000
vt 0.2852 0.9999 0.0000
vt 0.0509 0.9999 0.0000
vt 0.5664 0.9999 0.0000
vt 0.4180 0.9999 0.0000
vt 0.6641 0.0397 0.0000
vt 0.4766 0.0397 0.0000
vt 0.3360 0.0397 0.0000
vt 0.1016 0.0397 0.0000
vt 0.6172 0.0397 0.0000
vt 0.4297 0.0397 0.0000
vt 0.1954 0.0397 0.0000
vt 0.7109 0.0397 0.0000
vt 0.2891 0.0397 0.0000
vt 0.0548 0.0397 0.0000
vt 0.5703 0.0397 0.0000
vt 0.3829 0.0397 0.0000
vt 0.1837 0.9999 0.0000
vt 0.6992 0.9999 0.0000
vt 0.5117 0.9999 0.0000
vt 0.2774 0.9999 0.0000
vt 0.0431 0.9999 0.0000
vt 0.3711 0.9999 0.0000
vt 0.1368 0.9999 0.0000
vt 0.6523 0.9999 0.0000
vt 0.4649 0.9999 0.0000
vt 0.2305 0.9999 0.0000
vt 0.3243 0.9999 0.0000
vt 0.0899 0.9999 0.0000
vt 0.6055 0.9999 0.0000
# 377 texture coords

o Cylinder
g Cylinder
s off
f 1/1/1 2/2/1 3/3/1 
f 4/4/2 5/5/2 6/6/2 
f 7/7/3 8/8/3 9/9/3 
f 7/7/4 10/10/4 11/11/4 
f 10/12/4 12/13/4 11/14/4 
f 4/4/3 7/7/3 9/9/3 
f 13/15/1 14/16/1 15/17/1 
f 5/18/2 15/19/2 6/20/2 
f 11/14/5 13/15/5 5/18/5 
f 16/21/4 17/22/4 18/23/4 
f 9/9/2 19/24/2 5/5/2 
f 11/11/4 16/21/4 7/7/4 
f 5/5/1 17/25/1 11/26/1 
f 20/27/2 21/28/2 19/29/2 
f 16/21/6 20/27/6 8/8/6 
f 19/24/2 8/8/2 20/27/2 
f 21/30/1 22/31/1 23/32/1 
f 19/29/7 23/33/7 17/34/7 
f 17/35/4 22/31/4 18/23/4 
f 18/23/5 24/36/5 20/27/5 
f 25/4/2 26/5/2 27/6/2 
f 28/7/3 29/8/3 30/9/3 
f 28/7/4 31/10/4 32/11/4 
f 31/12/4 33/13/4 32/14/4 
f 25/4/3 28/7/3 30/9/3 
f 34/15/1 35/16/1 36/17/1 
f 26/18/2 36/19/2 27/20/2 
f 32/14/5 34/15/5 26/18/5 
f 37/21/4 38/22/4 39/23/4 
f 30/9/2 40/24/2 26/5/2 
f 32/11/4 37/21/4 28/7/4 
f 26/5/1 38/25/1 32/26/1 
f 41/27/2 42/28/2 40/29/2 
f 37/21/6 41/27/6 29/8/6 
f 40/24/2 29/8/2 41/27/2 
f 42/30/1 43/31/1 44/32/1 
f 40/29/7 44/33/7 38/34/7 
f 38/35/4 43/31/4 39/23/4 
f 39/23/5 45/36/5 41/27/5 
f 46/4/2 47/5/2 48/6/2 
f 49/7/3 50/8/3 51/9/3 
f 49/7/4 52/10/4 53/11/4 
f 52/12/4 54/13/4 53/14/4 
f 46/4/3 49/7/3 51/9/3 
f 55/15/1 56/16/1 57/17/1 
f 47/18/2 57/19/2 48/20/2 
f 53/14/5 55/15/5 47/18/5 
f 58/21/4 59/22/4 60/23/4 
f 51/9/2 61/24/2 47/5/2 
f 53/11/4 58/21/4 49/7/4 
f 47/5/1 59/25/1 53/26/1 
f 62/27/2 63/28/2 61/29/2 
f 58/21/6 62/27/6 50/8/6 
f 61/24/2 50/8/2 62/27/2 
f 63/30/1 64/31/1 65/32/1 
f 61/29/7 65/33/7 59/34/7 
f 59/35/4 64/31/4 60/23/4 
f 60/23/5 66/36/5 62/27/5 
f 67/4/2 68/5/2 69/6/2 
f 70/7/3 71/8/3 72/9/3 
f 70/7/4 73/10/4 74/11/4 
f 73/12/4 75/13/4 74/14/4 
f 67/4/3 70/7/3 72/9/3 
f 76/15/1 77/16/1 78/17/1 
f 68/18/2 78/19/2 69/20/2 
f 74/14/5 76/15/5 68/18/5 
f 79/21/4 80/22/4 81/23/4 
f 72/9/2 82/24/2 68/5/2 
f 74/11/4 79/21/4 70/7/4 
f 68/5/1 80/25/1 74/26/1 
f 83/27/2 84/28/2 82/29/2 
f 79/21/6 83/27/6 71/8/6 
f 82/24/2 71/8/2 83/27/2 
f 84/30/1 85/31/1 86/32/1 
f 82/29/7 86/33/7 80/34/7 
f 80/35/4 85/31/4 81/23/4 
f 81/23/5 87/36/5 83/27/5 
f 88/5/2 89/4/2 90/6/2 
f 91/8/3 92/7/3 93/9/3 
f 94/10/4 92/7/4 95/11/4 
f 96/13/4 94/12/4 95/14/4 
f 92/7/3 89/4/3 93/9/3 
f 97/16/1 98/15/1 99/17/1 
f 99/19/2 88/18/2 90/20/2 
f 98/15/7 95/14/7 88/18/7 
f 100/21/4 101/23/4 102/22/4 
f 103/24/2 93/9/2 88/5/2 
f 100/21/4 95/11/4 92/7/4 
f 102/25/1 88/5/1 95/26/1 
f 104/28/2 105/27/2 103/29/2 
f 105/27/8 100/21/8 91/8/8 
f 103/24/2 105/27/2 91/8/2 
f 106/31/1 104/30/1 107/32/1 
f 107/33/5 103/29/5 102/34/5 
f 106/31/4 102/35/4 101/23/4 
f 108/36/7 101/23/7 105/27/7 
f 109/5/2 110/4/2 111/6/2 
f 112/8/3 113/7/3 114/9/3 
f 115/10/4 113/7/4 116/11/4 
f 117/13/4 115/12/4 116/14/4 
f 113/7/3 110/4/3 114/9/3 
f 118/16/1 119/15/1 120/17/1 
f 120/19/2 109/18/2 111/20/2 
f 119/15/7 116/14/7 109/18/7 
f 121/21/4 122/23/4 123/22/4 
f 124/24/2 114/9/2 109/5/2 
f 121/21/4 116/11/4 113/7/4 
f 123/25/1 109/5/1 116/26/1 
f 125/28/2 126/27/2 124/29/2 
f 126/27/8 121/21/8 112/8/8 
f 124/24/2 126/27/2 112/8/2 
f 127/31/1 125/30/1 128/32/1 
f 128/33/5 124/29/5 123/34/5 
f 127/31/4 123/35/4 122/23/4 
f 129/36/7 122/23/7 126/27/7 
f 130/5/2 131/4/2 132/6/2 
f 133/8/3 134/7/3 135/9/3 
f 136/10/4 134/7/4 137/11/4 
f 138/13/4 136/12/4 137/14/4 
f 134/7/3 131/4/3 135/9/3 
f 139/16/1 140/15/1 141/17/1 
f 141/19/2 130/18/2 132/20/2 
f 140/15/7 137/14/7 130/18/7 
f 142/21/4 143/23/4 144/22/4 
f 145/24/2 135/9/2 130/5/2 
f 142/21/4 137/11/4 134/7/4 
f 144/25/1 130/5/1 137/26/1 
f 146/28/2 147/27/2 145/29/2 
f 147/27/8 142/21/8 133/8/8 
f 145/24/2 147/27/2 133/8/2 
f 148/31/1 146/30/1 149/32/1 
f 149/33/5 145/29/5 144/34/5 
f 148/31/4 144/35/4 143/23/4 
f 150/36/7 143/23/7 147/27/7 
f 151/5/2 152/4/2 153/6/2 
f 154/8/3 155/7/3 156/9/3 
f 157/10/4 155/7/4 158/11/4 
f 159/13/4 157/12/4 158/14/4 
f 155/7/3 152/4/3 156/9/3 
f 160/16/1 161/15/1 162/17/1 
f 162/19/2 151/18/2 153/20/2 
f 161/15/7 158/14/7 151/18/7 
f 163/21/4 164/23/4 165/22/4 
f 166/24/2 156/9/2 151/5/2 
f 163/21/4 158/11/4 155/7/4 
f 165/25/1 151/5/1 158/26/1 
f 167/28/2 168/27/2 166/29/2 
f 168/27/8 163/21/8 154/8/8 
f 166/24/2 168/27/2 154/8/2 
f 169/31/1 167/30/1 170/32/1 
f 170/33/5 166/29/5 165/34/5 
f 169/31/4 165/35/4 164/23/4 
f 171/36/7 164/23/7 168/27/7 
f 172/37/3 173/38/3 174/39/3 
f 175/40/9 176/41/9 177/42/9 
f 178/43/5 179/44/5 176/41/5 
f 177/45/1 179/46/1 180/47/1 
f 175/48/3 181/49/3 178/50/3 
f 180/47/1 182/50/1 177/45/1 
f 183/51/10 184/52/10 185/53/10 
f 175/48/3 184/54/3 173/38/3 
f 177/42/11 185/53/11 175/40/11 
f 177/45/1 186/55/1 183/56/1 
f 187/37/3 188/38/3 189/39/3 
f 190/40/9 191/41/9 192/42/9 
f 193/43/5 194/44/5 191/41/5 
f 192/45/1 194/46/1 195/47/1 
f 190/48/3 196/49/3 193/50/3 
f 195/47/1 197/50/1 192/45/1 
f 198/51/10 199/52/10 200/53/10 
f 190/48/3 199/54/3 188/38/3 
f 192/42/11 200/53/11 190/40/11 
f 192/45/1 201/55/1 198/56/1 
f 202/37/3 203/38/3 204/48/3 
f 205/41/12 204/40/12 206/42/12 
f 207/44/5 208/43/5 205/41/5 
f 206/45/1 207/46/1 205/57/1 
f 209/49/3 204/48/3 208/50/3 
f 210/50/1 211/47/1 206/45/1 
f 212/52/13 213/51/13 214/53/13 
f 212/54/3 204/48/3 203/38/3 
f 214/53/14 206/42/14 204/40/14 
f 206/45/1 215/55/1 210/50/1 
f 216/37/3 217/38/3 218/48/3 
f 219/41/12 218/40/12 220/42/12 
f 221/44/5 222/43/5 219/41/5 
f 220/45/1 221/46/1 219/57/1 
f 223/49/3 218/48/3 222/50/3 
f 224/50/1 225/47/1 220/45/1 
f 226/52/13 227/51/13 228/53/13 
f 226/54/3 218/48/3 217/38/3 
f 228/53/14 220/42/14 218/40/14 
f 220/45/1 229/55/1 224/50/1 
f 230/58/2 231/59/2 232/60/2 
f 233/61/5 234/62/5 231/59/5 
f 235/63/4 236/64/4 234/62/4 
f 237/65/1 238/66/1 239/67/1 
f 230/68/3 235/63/3 233/61/3 
f 240/69/4 238/70/4 241/71/4 
f 234/62/4 242/72/4 243/73/4 
f 244/74/5 241/71/5 237/65/5 
f 245/75/3 246/76/3 247/77/3 
f 248/78/2 237/65/2 239/79/2 
f 232/60/2 249/80/2 250/81/2 
f 251/82/2 244/74/2 248/78/2 
f 250/81/2 252/83/2 251/82/2 
f 253/84/1 254/85/1 255/86/1 
f 256/87/2 257/88/2 258/89/2 
f 259/90/4 260/91/4 240/69/4 
f 243/73/4 261/92/4 259/90/4 
f 231/59/5 245/93/5 249/80/5 
f 234/62/5 262/94/5 231/59/5 
f 243/73/5 263/95/5 234/62/5 
f 249/80/5 247/96/5 243/73/5 
f 252/83/5 264/97/5 244/74/5 
f 259/90/5 265/98/5 252/83/5 
f 240/69/5 258/99/5 259/90/5 
f 244/74/5 256/100/5 240/69/5 
f 252/83/5 255/101/5 266/102/5 
f 243/73/5 255/101/5 249/80/5 
f 259/90/5 253/103/5 243/73/5 
f 252/83/5 267/104/5 259/90/5 
f 268/85/5 246/76/5 269/105/5 
f 270/85/5 271/76/5 272/105/5 
f 254/85/5 273/76/5 274/105/5 
f 265/106/4 272/105/4 264/107/4 
f 267/87/2 275/88/2 253/89/2 
f 263/84/1 268/85/1 262/86/1 
f 264/75/3 271/76/3 256/77/3 
f 255/106/4 274/105/4 266/107/4 
f 247/87/2 276/88/2 263/89/2 
f 258/84/1 270/85/1 265/86/1 
f 266/75/3 273/76/3 267/77/3 
f 262/106/4 269/105/4 245/107/4 
f 277/108/2 278/109/15 279/110/16 
f 280/111/15 281/112/17 278/109/15 
f 282/113/17 283/114/18 281/112/17 
f 284/115/18 285/116/5 283/114/18 
f 286/117/19 287/118/20 285/116/5 
f 288/119/20 289/120/21 287/118/20 
f 290/121/21 291/122/22 289/120/21 
f 292/123/22 293/124/23 291/122/22 
f 294/125/23 295/126/24 293/124/23 
f 296/127/24 297/128/25 295/126/24 
f 298/129/25 299/130/26 297/128/25 
f 300/131/26 301/132/7 299/130/26 
f 302/133/27 303/134/28 301/135/7 
f 304/136/28 305/137/29 303/134/28 
f 306/138/3 298/139/3 290/140/3 
f 306/141/29 307/142/30 305/137/29 
f 308/143/30 279/110/16 307/142/30 
f 309/144/1 278/109/1 310/145/1 
f 310/146/1 281/112/1 311/147/1 
f 312/148/1 281/112/1 283/114/1 
f 312/149/1 285/116/1 313/150/1 
f 314/151/1 285/116/1 287/118/1 
f 314/152/1 289/120/1 315/153/1 
f 315/154/1 291/122/1 316/155/1 
f 316/156/1 293/124/1 317/157/1 
f 317/158/1 295/126/1 318/159/1 
f 318/160/1 297/128/1 319/161/1 
f 319/162/1 299/130/1 320/163/1 
f 321/164/1 299/130/1 301/132/1 
f 321/165/1 303/134/1 322/166/1 
f 322/167/1 305/137/1 323/168/1 
f 323/169/1 307/142/1 324/170/1 
f 324/171/1 279/110/1 309/172/1 
f 325/173/7 326/174/7 327/175/7 
f 328/176/3 329/177/3 330/178/3 
f 328/176/5 331/179/5 332/180/5 
f 331/70/5 333/181/5 332/182/5 
f 325/173/3 328/176/3 330/178/3 
f 334/183/1 335/184/1 336/185/1 
f 326/186/7 336/187/7 327/188/7 
f 332/182/2 334/183/2 326/186/2 
f 337/189/5 338/190/5 339/191/5 
f 330/178/7 340/192/7 326/174/7 
f 332/180/5 337/189/5 328/176/5 
f 326/174/1 338/193/1 332/194/1 
f 341/195/7 342/196/7 340/197/7 
f 337/189/31 341/195/31 329/177/31 
f 340/192/7 329/177/7 341/195/7 
f 342/198/1 343/199/1 344/200/1 
f 340/197/4 344/201/4 338/202/4 
f 338/203/5 343/199/5 339/191/5 
f 339/191/2 345/204/2 341/195/2 
f 346/173/7 347/174/7 348/175/7 
f 349/176/3 350/177/3 351/178/3 
f 349/176/5 352/179/5 353/180/5 
f 352/70/5 354/181/5 353/182/5 
f 346/173/3 349/176/3 351/178/3 
f 355/183/1 356/184/1 357/185/1 
f 347/186/7 357/187/7 348/188/7 
f 353/182/2 355/183/2 347/186/2 
f 358/189/5 359/190/5 360/191/5 
f 351/178/7 361/192/7 347/174/7 
f 353/180/5 358/189/5 349/176/5 
f 347/174/1 359/193/1 353/194/1 
f 362/195/7 363/196/7 361/197/7 
f 358/189/31 362/195/31 350/177/31 
f 361/192/7 350/177/7 362/195/7 
f 363/198/1 364/199/1 365/200/1 
f 361/197/4 365/201/4 359/202/4 
f 359/203/5 364/199/5 360/191/5 
f 360/191/2 366/204/2 362/195/2 
f 367/173/7 368/174/7 369/175/7 
f 370/176/3 371/177/3 372/178/3 
f 370/176/5 373/179/5 374/180/5 
f 373/70/5 375/181/5 374/182/5 
f 367/173/3 370/176/3 372/178/3 
f 376/183/1 377/184/1 378/185/1 
f 368/186/7 378/187/7 369/188/7 
f 374/182/2 376/183/2 368/186/2 
f 379/189/5 380/190/5 381/191/5 
f 372/178/7 382/192/7 368/174/7 
f 374/180/5 379/189/5 370/176/5 
f 368/174/1 380/193/1 374/194/1 
f 383/195/7 384/196/7 382/197/7 
f 379/189/31 383/195/31 371/177/31 
f 382/192/7 371/177/7 383/195/7 
f 384/198/1 385/199/1 386/200/1 
f 382/197/4 386/201/4 380/202/4 
f 380/203/5 385/199/5 381/191/5 
f 381/191/2 387/204/2 383/195/2 
f 388/173/7 389/174/7 390/175/7 
f 391/176/3 392/177/3 393/178/3 
f 391/176/5 394/179/5 395/180/5 
f 394/70/5 396/181/5 395/182/5 
f 388/173/3 391/176/3 393/178/3 
f 397/183/1 398/184/1 399/185/1 
f 389/186/7 399/187/7 390/188/7 
f 395/182/2 397/183/2 389/186/2 
f 400/189/5 401/190/5 402/191/5 
f 393/178/7 403/192/7 389/174/7 
f 395/180/5 400/189/5 391/176/5 
f 389/174/1 401/193/1 395/194/1 
f 404/195/7 405/196/7 403/197/7 
f 400/189/31 404/195/31 392/177/31 
f 403/192/7 392/177/7 404/195/7 
f 405/198/1 406/199/1 407/200/1 
f 403/197/4 407/201/4 401/202/4 
f 401/203/5 406/199/5 402/191/5 
f 402/191/2 408/204/2 404/195/2 
f 409/205/7 410/30/7 411/206/7 
f 412/207/3 413/208/3 414/209/3 
f 415/210/5 413/208/5 416/211/5 
f 417/212/5 415/213/5 416/214/5 
f 414/209/3 418/32/3 410/30/3 
f 419/215/1 420/216/1 421/217/1 
f 421/218/7 409/219/7 411/220/7 
f 420/216/4 416/214/4 409/219/4 
f 422/221/5 423/222/5 424/223/5 
f 425/224/7 414/209/7 409/205/7 
f 422/221/5 416/211/5 413/208/5 
f 424/225/1 409/205/1 416/226/1 
f 426/227/7 427/228/7 425/229/7 
f 427/228/32 422/221/32 412/207/32 
f 425/224/7 427/228/7 412/207/7 
f 428/230/1 426/231/1 429/232/1 
f 429/233/2 425/229/2 424/234/2 
f 428/230/5 424/235/5 423/222/5 
f 430/236/4 423/222/4 427/228/4 
f 431/205/7 432/30/7 433/206/7 
f 434/207/3 435/208/3 436/209/3 
f 437/210/5 435/208/5 438/211/5 
f 439/212/5 437/213/5 438/214/5 
f 436/209/3 440/32/3 432/30/3 
f 441/215/1 442/216/1 443/217/1 
f 443/218/7 431/219/7 433/220/7 
f 442/216/4 438/214/4 431/219/4 
f 444/221/5 445/222/5 446/223/5 
f 447/224/7 436/209/7 431/205/7 
f 444/221/5 438/211/5 435/208/5 
f 446/225/1 431/205/1 438/226/1 
f 448/227/7 449/228/7 447/229/7 
f 449/228/32 444/221/32 434/207/32 
f 447/224/7 449/228/7 434/207/7 
f 450/230/1 448/231/1 451/232/1 
f 451/233/2 447/229/2 446/234/2 
f 450/230/5 446/235/5 445/222/5 
f 452/236/4 445/222/4 449/228/4 
f 453/205/7 454/30/7 455/206/7 
f 456/207/3 457/208/3 458/209/3 
f 459/210/5 457/208/5 460/211/5 
f 461/212/5 459/213/5 460/214/5 
f 458/209/3 462/32/3 454/30/3 
f 463/215/1 464/216/1 465/217/1 
f 465/218/7 453/219/7 455/220/7 
f 464/216/4 460/214/4 453/219/4 
f 466/221/5 467/222/5 468/223/5 
f 469/224/7 458/209/7 453/205/7 
f 466/221/5 460/211/5 457/208/5 
f 468/225/1 453/205/1 460/226/1 
f 470/227/7 471/228/7 469/229/7 
f 471/228/32 466/221/32 456/207/32 
f 469/224/7 471/228/7 456/207/7 
f 472/230/1 470/231/1 473/232/1 
f 473/233/2 469/229/2 468/234/2 
f 472/230/5 468/235/5 467/222/5 
f 474/236/4 467/222/4 471/228/4 
f 475/205/7 476/30/7 477/206/7 
f 478/207/3 479/208/3 480/209/3 
f 481/210/5 479/208/5 482/211/5 
f 483/212/5 481/213/5 482/214/5 
f 480/209/3 484/32/3 476/30/3 
f 485/215/1 486/216/1 487/217/1 
f 487/218/7 475/219/7 477/220/7 
f 486/216/4 482/214/4 475/219/4 
f 488/221/5 489/222/5 490/223/5 
f 491/224/7 480/209/7 475/205/7 
f 488/221/5 482/211/5 479/208/5 
f 490/225/1 475/205/1 482/226/1 
f 492/227/7 493/228/7 491/229/7 
f 493/228/32 488/221/32 478/207/32 
f 491/224/7 493/228/7 478/207/7 
f 494/230/1 492/231/1 495/232/1 
f 495/233/2 491/229/2 490/234/2 
f 494/230/5 490/235/5 489/222/5 
f 496/236/4 489/222/4 493/228/4 
f 3/3/1 497/237/1 498/238/1 
f 498/238/1 499/239/1 500/240/1 
f 500/240/1 501/241/1 502/242/1 
f 502/242/1 503/243/1 1/1/1 
f 1/1/1 504/244/1 505/245/1 
f 505/245/1 506/246/1 1/1/1 
f 506/246/1 2/2/1 1/1/1 
f 2/2/1 507/247/1 508/248/1 
f 508/248/1 509/249/1 3/3/1 
f 3/3/1 498/238/1 500/240/1 
f 500/240/1 502/242/1 3/3/1 
f 502/242/1 1/1/1 3/3/1 
f 2/2/1 508/248/1 3/3/1 
f 4/4/2 9/9/2 5/5/2 
f 7/7/3 16/21/3 8/8/3 
f 7/7/4 510/250/4 10/10/4 
f 10/12/4 14/251/4 12/13/4 
f 4/4/3 510/250/3 7/7/3 
f 13/15/1 12/13/1 14/16/1 
f 5/18/2 13/15/2 15/19/2 
f 11/14/5 12/13/5 13/15/5 
f 9/9/2 8/8/2 19/24/2 
f 11/11/4 17/22/4 16/21/4 
f 5/5/1 19/24/1 17/25/1 
f 20/27/2 24/36/2 21/28/2 
f 16/21/6 18/23/6 20/27/6 
f 21/30/1 24/36/1 22/31/1 
f 19/29/7 21/28/7 23/33/7 
f 17/35/4 23/252/4 22/31/4 
f 18/23/5 22/31/5 24/36/5 
f 25/4/2 30/9/2 26/5/2 
f 28/7/3 37/21/3 29/8/3 
f 28/7/4 511/250/4 31/10/4 
f 31/12/4 35/251/4 33/13/4 
f 25/4/3 511/250/3 28/7/3 
f 34/15/1 33/13/1 35/16/1 
f 26/18/2 34/15/2 36/19/2 
f 32/14/5 33/13/5 34/15/5 
f 30/9/2 29/8/2 40/24/2 
f 32/11/4 38/22/4 37/21/4 
f 26/5/1 40/24/1 38/25/1 
f 41/27/2 45/36/2 42/28/2 
f 37/21/6 39/23/6 41/27/6 
f 42/30/1 45/36/1 43/31/1 
f 40/29/7 42/28/7 44/33/7 
f 38/35/4 44/252/4 43/31/4 
f 39/23/5 43/31/5 45/36/5 
f 46/4/2 51/9/2 47/5/2 
f 49/7/3 58/21/3 50/8/3 
f 49/7/4 512/250/4 52/10/4 
f 52/12/4 56/251/4 54/13/4 
f 46/4/3 512/250/3 49/7/3 
f 55/15/1 54/13/1 56/16/1 
f 47/18/2 55/15/2 57/19/2 
f 53/14/5 54/13/5 55/15/5 
f 51/9/2 50/8/2 61/24/2 
f 53/11/4 59/22/4 58/21/4 
f 47/5/1 61/24/1 59/25/1 
f 62/27/2 66/36/2 63/28/2 
f 58/21/6 60/23/6 62/27/6 
f 63/30/1 66/36/1 64/31/1 
f 61/29/7 63/28/7 65/33/7 
f 59/35/4 65/252/4 64/31/4 
f 60/23/5 64/31/5 66/36/5 
f 67/4/2 72/9/2 68/5/2 
f 70/7/3 79/21/3 71/8/3 
f 70/7/4 513/250/4 73/10/4 
f 73/12/4 77/251/4 75/13/4 
f 67/4/3 513/250/3 70/7/3 
f 76/15/1 75/13/1 77/16/1 
f 68/18/2 76/15/2 78/19/2 
f 74/14/5 75/13/5 76/15/5 
f 72/9/2 71/8/2 82/24/2 
f 74/11/4 80/22/4 79/21/4 
f 68/5/1 82/24/1 80/25/1 
f 83/27/2 87/36/2 84/28/2 
f 79/21/6 81/23/6 83/27/6 
f 84/30/1 87/36/1 85/31/1 
f 82/29/7 84/28/7 86/33/7 
f 80/35/4 86/252/4 85/31/4 
f 81/23/5 85/31/5 87/36/5 
f 88/5/2 93/9/2 89/4/2 
f 91/8/3 100/21/3 92/7/3 
f 94/10/4 514/250/4 92/7/4 
f 96/13/4 97/251/4 94/12/4 
f 92/7/3 514/250/3 89/4/3 
f 97/16/1 96/13/1 98/15/1 
f 99/19/2 98/15/2 88/18/2 
f 98/15/7 96/13/7 95/14/7 
f 103/24/2 91/8/2 93/9/2 
f 100/21/4 102/22/4 95/11/4 
f 102/25/1 103/24/1 88/5/1 
f 104/28/2 108/36/2 105/27/2 
f 105/27/8 101/23/8 100/21/8 
f 106/31/1 108/36/1 104/30/1 
f 107/33/5 104/28/5 103/29/5 
f 106/31/4 107/252/4 102/35/4 
f 108/36/7 106/31/7 101/23/7 
f 109/5/2 114/9/2 110/4/2 
f 112/8/3 121/21/3 113/7/3 
f 115/10/4 515/250/4 113/7/4 
f 117/13/4 118/251/4 115/12/4 
f 113/7/3 515/250/3 110/4/3 
f 118/16/1 117/13/1 119/15/1 
f 120/19/2 119/15/2 109/18/2 
f 119/15/7 117/13/7 116/14/7 
f 124/24/2 112/8/2 114/9/2 
f 121/21/4 123/22/4 116/11/4 
f 123/25/1 124/24/1 109/5/1 
f 125/28/2 129/36/2 126/27/2 
f 126/27/8 122/23/8 121/21/8 
f 127/31/1 129/36/1 125/30/1 
f 128/33/5 125/28/5 124/29/5 
f 127/31/4 128/252/4 123/35/4 
f 129/36/7 127/31/7 122/23/7 
f 130/5/2 135/9/2 131/4/2 
f 133/8/3 142/21/3 134/7/3 
f 136/10/4 516/250/4 134/7/4 
f 138/13/4 139/251/4 136/12/4 
f 134/7/3 516/250/3 131/4/3 
f 139/16/1 138/13/1 140/15/1 
f 141/19/2 140/15/2 130/18/2 
f 140/15/7 138/13/7 137/14/7 
f 145/24/2 133/8/2 135/9/2 
f 142/21/4 144/22/4 137/11/4 
f 144/25/1 145/24/1 130/5/1 
f 146/28/2 150/36/2 147/27/2 
f 147/27/8 143/23/8 142/21/8 
f 148/31/1 150/36/1 146/30/1 
f 149/33/5 146/28/5 145/29/5 
f 148/31/4 149/252/4 144/35/4 
f 150/36/7 148/31/7 143/23/7 
f 151/5/2 156/9/2 152/4/2 
f 154/8/3 163/21/3 155/7/3 
f 157/10/4 517/250/4 155/7/4 
f 159/13/4 160/251/4 157/12/4 
f 155/7/3 517/250/3 152/4/3 
f 160/16/1 159/13/1 161/15/1 
f 162/19/2 161/15/2 151/18/2 
f 161/15/7 159/13/7 158/14/7 
f 166/24/2 154/8/2 156/9/2 
f 163/21/4 165/22/4 158/11/4 
f 165/25/1 166/24/1 151/5/1 
f 167/28/2 171/36/2 168/27/2 
f 168/27/8 164/23/8 163/21/8 
f 169/31/1 171/36/1 167/30/1 
f 170/33/5 167/28/5 166/29/5 
f 169/31/4 170/252/4 165/35/4 
f 171/36/7 169/31/7 164/23/7 
f 172/37/3 175/48/3 173/38/3 
f 175/40/9 178/43/9 176/41/9 
f 178/43/5 181/253/5 179/44/5 
f 177/45/1 176/57/1 179/46/1 
f 175/48/3 172/37/3 181/49/3 
f 180/47/1 518/49/1 182/50/1 
f 183/51/10 186/254/10 184/52/10 
f 175/48/3 185/255/3 184/54/3 
f 177/42/11 183/51/11 185/53/11 
f 177/45/1 182/50/1 186/55/1 
f 187/37/3 190/48/3 188/38/3 
f 190/40/9 193/43/9 191/41/9 
f 193/43/5 196/253/5 194/44/5 
f 192/45/1 191/57/1 194/46/1 
f 190/48/3 187/37/3 196/49/3 
f 195/47/1 519/49/1 197/50/1 
f 198/51/10 201/254/10 199/52/10 
f 190/48/3 200/255/3 199/54/3 
f 192/42/11 198/51/11 200/53/11 
f 192/45/1 197/50/1 201/55/1 
f 202/37/3 520/39/3 203/38/3 
f 205/41/12 208/43/12 204/40/12 
f 207/44/5 209/253/5 208/43/5 
f 206/45/1 211/47/1 207/46/1 
f 209/49/3 202/37/3 204/48/3 
f 210/50/1 521/49/1 211/47/1 
f 212/52/13 215/254/13 213/51/13 
f 212/54/3 214/255/3 204/48/3 
f 214/53/14 213/51/14 206/42/14 
f 206/45/1 213/56/1 215/55/1 
f 216/37/3 522/39/3 217/38/3 
f 219/41/12 222/43/12 218/40/12 
f 221/44/5 223/253/5 222/43/5 
f 220/45/1 225/47/1 221/46/1 
f 223/49/3 216/37/3 218/48/3 
f 224/50/1 523/49/1 225/47/1 
f 226/52/13 229/254/13 227/51/13 
f 226/54/3 228/255/3 218/48/3 
f 228/53/14 227/51/14 220/42/14 
f 220/45/1 227/56/1 229/55/1 
f 230/58/2 233/61/2 231/59/2 
f 233/61/5 235/63/5 234/62/5 
f 235/63/4 524/256/4 236/64/4 
f 237/65/1 241/71/1 238/66/1 
f 230/68/3 524/257/3 235/63/3 
f 240/69/4 260/91/4 238/70/4 
f 234/62/4 236/64/4 242/72/4 
f 244/74/5 240/69/5 241/71/5 
f 245/75/3 269/105/3 246/76/3 
f 248/78/2 244/74/2 237/65/2 
f 232/60/2 231/59/2 249/80/2 
f 251/82/2 252/83/2 244/74/2 
f 250/81/2 249/80/2 252/83/2 
f 253/84/1 275/88/1 254/85/1 
f 256/87/2 271/76/2 257/88/2 
f 259/90/4 261/92/4 260/91/4 
f 243/73/4 242/72/4 261/92/4 
f 231/59/5 262/94/5 245/93/5 
f 234/62/5 263/95/5 262/94/5 
f 243/73/5 247/96/5 263/95/5 
f 249/80/5 245/93/5 247/96/5 
f 252/83/5 265/98/5 264/97/5 
f 259/90/5 258/99/5 265/98/5 
f 240/69/5 256/100/5 258/99/5 
f 244/74/5 264/97/5 256/100/5 
f 252/83/5 249/80/5 255/101/5 
f 243/73/5 253/103/5 255/101/5 
f 259/90/5 267/104/5 253/103/5 
f 252/83/5 266/102/5 267/104/5 
f 268/85/5 276/88/5 246/76/5 
f 270/85/5 257/88/5 271/76/5 
f 254/85/5 275/88/5 273/76/5 
f 265/106/4 270/85/4 272/105/4 
f 267/87/2 273/76/2 275/88/2 
f 263/84/1 276/88/1 268/85/1 
f 264/75/3 272/105/3 271/76/3 
f 255/106/4 254/85/4 274/105/4 
f 247/87/2 246/76/2 276/88/2 
f 258/84/1 257/88/1 270/85/1 
f 266/75/3 274/105/3 273/76/3 
f 262/106/4 268/85/4 269/105/4 
f 277/108/2 280/111/15 278/109/15 
f 280/111/15 282/113/17 281/112/17 
f 282/113/17 284/115/18 283/114/18 
f 284/115/18 286/117/19 285/116/5 
f 286/117/19 288/119/20 287/118/20 
f 288/119/20 290/121/21 289/120/21 
f 290/121/21 292/123/22 291/122/22 
f 292/123/22 294/125/23 293/124/23 
f 294/125/23 296/127/24 295/126/24 
f 296/127/24 298/129/25 297/128/25 
f 298/129/25 300/131/26 299/130/26 
f 300/131/26 302/258/27 301/132/7 
f 302/133/27 304/136/28 303/134/28 
f 304/136/28 306/141/29 305/137/29 
f 282/259/3 280/260/3 306/138/3 
f 280/260/3 277/261/3 306/138/3 
f 277/261/3 308/262/3 306/138/3 
f 306/138/3 304/263/3 302/264/3 
f 302/264/3 300/265/3 298/139/3 
f 298/139/3 296/266/3 294/267/3 
f 294/267/3 292/268/3 290/140/3 
f 290/140/3 288/269/3 286/270/3 
f 286/270/3 284/271/3 282/259/3 
f 306/138/3 302/264/3 298/139/3 
f 298/139/3 294/267/3 290/140/3 
f 290/140/3 286/270/3 282/259/3 
f 282/259/3 306/138/3 290/140/3 
f 306/141/29 308/143/30 307/142/30 
f 308/143/30 277/108/2 279/110/16 
f 309/144/1 279/110/1 278/109/1 
f 310/146/1 278/109/1 281/112/1 
f 312/148/1 311/272/1 281/112/1 
f 312/149/1 283/114/1 285/116/1 
f 314/151/1 313/273/1 285/116/1 
f 314/152/1 287/118/1 289/120/1 
f 315/154/1 289/120/1 291/122/1 
f 316/156/1 291/122/1 293/124/1 
f 317/158/1 293/124/1 295/126/1 
f 318/160/1 295/126/1 297/128/1 
f 319/162/1 297/128/1 299/130/1 
f 321/164/1 320/274/1 299/130/1 
f 321/165/1 301/135/1 303/134/1 
f 322/167/1 303/134/1 305/137/1 
f 323/169/1 305/137/1 307/142/1 
f 324/171/1 307/142/1 279/110/1 
f 325/173/7 330/178/7 326/174/7 
f 328/176/3 337/189/3 329/177/3 
f 328/176/5 525/275/5 331/179/5 
f 331/70/5 335/276/5 333/181/5 
f 325/173/3 525/275/3 328/176/3 
f 334/183/1 333/181/1 335/184/1 
f 326/186/7 334/183/7 336/187/7 
f 332/182/2 333/181/2 334/183/2 
f 330/178/7 329/177/7 340/192/7 
f 332/180/5 338/190/5 337/189/5 
f 326/174/1 340/192/1 338/193/1 
f 341/195/7 345/204/7 342/196/7 
f 337/189/31 339/191/31 341/195/31 
f 342/198/1 345/204/1 343/199/1 
f 340/197/4 342/196/4 344/201/4 
f 338/203/5 344/277/5 343/199/5 
f 339/191/2 343/199/2 345/204/2 
f 346/173/7 351/178/7 347/174/7 
f 349/176/3 358/189/3 350/177/3 
f 349/176/5 526/275/5 352/179/5 
f 352/70/5 356/276/5 354/181/5 
f 346/173/3 526/275/3 349/176/3 
f 355/183/1 354/181/1 356/184/1 
f 347/186/7 355/183/7 357/187/7 
f 353/182/2 354/181/2 355/183/2 
f 351/178/7 350/177/7 361/192/7 
f 353/180/5 359/190/5 358/189/5 
f 347/174/1 361/192/1 359/193/1 
f 362/195/7 366/204/7 363/196/7 
f 358/189/31 360/191/31 362/195/31 
f 363/198/1 366/204/1 364/199/1 
f 361/197/4 363/196/4 365/201/4 
f 359/203/5 365/277/5 364/199/5 
f 360/191/2 364/199/2 366/204/2 
f 367/173/7 372/178/7 368/174/7 
f 370/176/3 379/189/3 371/177/3 
f 370/176/5 527/275/5 373/179/5 
f 373/70/5 377/276/5 375/181/5 
f 367/173/3 527/275/3 370/176/3 
f 376/183/1 375/181/1 377/184/1 
f 368/186/7 376/183/7 378/187/7 
f 374/182/2 375/181/2 376/183/2 
f 372/178/7 371/177/7 382/192/7 
f 374/180/5 380/190/5 379/189/5 
f 368/174/1 382/192/1 380/193/1 
f 383/195/7 387/204/7 384/196/7 
f 379/189/31 381/191/31 383/195/31 
f 384/198/1 387/204/1 385/199/1 
f 382/197/4 384/196/4 386/201/4 
f 380/203/5 386/277/5 385/199/5 
f 381/191/2 385/199/2 387/204/2 
f 388/173/7 393/178/7 389/174/7 
f 391/176/3 400/189/3 392/177/3 
f 391/176/5 528/275/5 394/179/5 
f 394/70/5 398/276/5 396/181/5 
f 388/173/3 528/275/3 391/176/3 
f 397/183/1 396/181/1 398/184/1 
f 389/186/7 397/183/7 399/187/7 
f 395/182/2 396/181/2 397/183/2 
f 393/178/7 392/177/7 403/192/7 
f 395/180/5 401/190/5 400/189/5 
f 389/174/1 403/192/1 401/193/1 
f 404/195/7 408/204/7 405/196/7 
f 400/189/31 402/191/31 404/195/31 
f 405/198/1 408/204/1 406/199/1 
f 403/197/4 405/196/4 407/201/4 
f 401/203/5 407/277/5 406/199/5 
f 402/191/2 406/199/2 408/204/2 
f 409/205/7 414/209/7 410/30/7 
f 412/207/3 422/221/3 413/208/3 
f 415/210/5 418/32/5 413/208/5 
f 417/212/5 419/278/5 415/213/5 
f 414/209/3 413/208/3 418/32/3 
f 419/215/1 417/212/1 420/216/1 
f 421/218/7 420/216/7 409/219/7 
f 420/216/4 417/212/4 416/214/4 
f 425/224/7 412/207/7 414/209/7 
f 422/221/5 424/223/5 416/211/5 
f 424/225/1 425/224/1 409/205/1 
f 426/227/7 430/236/7 427/228/7 
f 427/228/32 423/222/32 422/221/32 
f 428/230/1 430/236/1 426/231/1 
f 429/233/2 426/227/2 425/229/2 
f 428/230/5 429/279/5 424/235/5 
f 430/236/4 428/230/4 423/222/4 
f 431/205/7 436/209/7 432/30/7 
f 434/207/3 444/221/3 435/208/3 
f 437/210/5 440/32/5 435/208/5 
f 439/212/5 441/278/5 437/213/5 
f 436/209/3 435/208/3 440/32/3 
f 441/215/1 439/212/1 442/216/1 
f 443/218/7 442/216/7 431/219/7 
f 442/216/4 439/212/4 438/214/4 
f 447/224/7 434/207/7 436/209/7 
f 444/221/5 446/223/5 438/211/5 
f 446/225/1 447/224/1 431/205/1 
f 448/227/7 452/236/7 449/228/7 
f 449/228/32 445/222/32 444/221/32 
f 450/230/1 452/236/1 448/231/1 
f 451/233/2 448/227/2 447/229/2 
f 450/230/5 451/279/5 446/235/5 
f 452/236/4 450/230/4 445/222/4 
f 453/205/7 458/209/7 454/30/7 
f 456/207/3 466/221/3 457/208/3 
f 459/210/5 462/32/5 457/208/5 
f 461/212/5 463/278/5 459/213/5 
f 458/209/3 457/208/3 462/32/3 
f 463/215/1 461/212/1 464/216/1 
f 465/218/7 464/216/7 453/219/7 
f 464/216/4 461/212/4 460/214/4 
f 469/224/7 456/207/7 458/209/7 
f 466/221/5 468/223/5 460/211/5 
f 468/225/1 469/224/1 453/205/1 
f 470/227/7 474/236/7 471/228/7 
f 471/228/32 467/222/32 466/221/32 
f 472/230/1 474/236/1 470/231/1 
f 473/233/2 470/227/2 469/229/2 
f 472/230/5 473/279/5 468/235/5 
f 474/236/4 472/230/4 467/222/4 
f 475/205/7 480/209/7 476/30/7 
f 478/207/3 488/221/3 479/208/3 
f 481/210/5 484/32/5 479/208/5 
f 483/212/5 485/278/5 481/213/5 
f 480/209/3 479/208/3 484/32/3 
f 485/215/1 483/212/1 486/216/1 
f 487/218/7 486/216/7 475/219/7 
f 486/216/4 483/212/4 482/214/4 
f 491/224/7 478/207/7 480/209/7 
f 488/221/5 490/223/5 482/211/5 
f 490/225/1 491/224/1 475/205/1 
f 492/227/7 496/236/7 493/228/7 
f 493/228/32 489/222/32 488/221/32 
f 494/230/1 496/236/1 492/231/1 
f 495/233/2 492/227/2 491/229/2 
f 494/230/5 495/279/5 490/235/5 
f 496/236/4 494/230/4 489/222/4 
s 1
f 529/280/33 530/281/34 531/282/35 
f 532/283/36 533/284/37 530/281/34 
f 534/285/38 535/286/39 533/284/37 
f 536/287/40 537/288/41 535/286/39 
f 538/289/42 539/290/43 537/288/41 
f 540/291/44 541/292/45 539/290/43 
f 542/293/46 543/294/47 541/292/45 
f 544/295/48 545/296/49 543/294/47 
f 546/297/50 547/298/51 545/296/49 
f 548/299/52 549/300/53 547/298/51 
f 550/301/54 551/302/55 549/300/53 
f 552/303/56 553/304/57 551/302/55 
f 554/305/58 555/306/59 553/307/57 
f 556/308/60 557/309/61 555/306/59 
f 536/287/40 558/310/62 538/289/42 
f 559/311/63 560/312/64 557/309/61 
f 561/313/65 531/282/35 560/312/64 
f 557/309/61 508/314/66 555/306/59 
f 533/284/37 498/315/67 530/281/34 
f 541/292/45 1/316/68 503/317/69 
f 551/302/55 507/318/70 2/319/71 
f 539/290/43 501/320/72 537/288/41 
f 549/300/53 505/321/73 547/298/51 
f 560/312/64 509/322/74 557/309/61 
f 535/286/39 499/323/75 533/284/37 
f 545/296/49 1/324/68 543/294/47 
f 531/282/35 498/325/67 497/326/76 
f 555/306/59 507/327/70 553/307/57 
f 541/292/45 502/328/77 539/290/43 
f 551/302/55 506/329/78 549/300/53 
f 531/282/35 3/330/79 560/312/64 
f 537/288/41 500/331/80 535/286/39 
f 545/296/49 505/332/73 504/333/81 
f 546/297/50 562/334/82 548/299/52 
f 556/308/60 563/335/83 559/311/63 
f 532/283/36 564/336/84 534/285/38 
f 542/293/46 565/337/85 544/295/48 
f 552/303/56 566/338/86 554/339/58 
f 538/289/42 567/340/87 540/291/44 
f 548/299/52 568/341/88 550/301/54 
f 559/311/63 569/342/89 561/313/65 
f 534/285/38 570/343/90 536/287/40 
f 544/295/48 571/344/91 546/297/50 
f 532/283/36 572/345/92 573/346/93 
f 556/308/60 566/347/86 574/348/94 
f 540/291/44 575/349/95 542/293/46 
f 550/301/54 576/350/96 552/303/56 
f 561/313/65 572/351/92 529/280/33 
f 529/280/33 532/283/36 530/281/34 
f 532/283/36 534/285/38 533/284/37 
f 534/285/38 536/287/40 535/286/39 
f 536/287/40 538/289/42 537/288/41 
f 538/289/42 540/291/44 539/290/43 
f 540/291/44 542/293/46 541/292/45 
f 542/293/46 544/295/48 543/294/47 
f 544/295/48 546/297/50 545/296/49 
f 546/297/50 548/299/52 547/298/51 
f 548/299/52 550/301/54 549/300/53 
f 550/301/54 552/303/56 551/302/55 
f 552/303/56 554/339/58 553/304/57 
f 554/305/58 556/308/60 555/306/59 
f 556/308/60 559/311/63 557/309/61 
f 536/287/40 570/352/90 558/310/62 
f 559/311/63 561/313/65 560/312/64 
f 561/313/65 529/280/33 531/282/35 
f 557/309/61 509/353/74 508/314/66 
f 533/284/37 499/354/75 498/315/67 
f 541/292/45 543/294/47 1/316/68 
f 551/302/55 553/304/57 507/318/70 
f 539/290/43 502/355/77 501/320/72 
f 549/300/53 506/356/78 505/321/73 
f 560/312/64 3/357/79 509/322/74 
f 535/286/39 500/358/80 499/323/75 
f 545/296/49 504/359/81 1/324/68 
f 531/282/35 530/281/34 498/325/67 
f 555/306/59 508/360/66 507/327/70 
f 541/292/45 503/361/69 502/328/77 
f 551/302/55 2/362/71 506/329/78 
f 531/282/35 497/363/76 3/330/79 
f 537/288/41 501/364/72 500/331/80 
f 545/296/49 547/298/51 505/332/73 
f 546/297/50 571/365/91 562/334/82 
f 556/308/60 574/366/94 563/335/83 
f 532/283/36 573/367/93 564/336/84 
f 542/293/46 575/368/95 565/337/85 
f 552/303/56 576/369/96 566/338/86 
f 538/289/42 558/370/62 567/340/87 
f 548/299/52 562/371/82 568/341/88 
f 559/311/63 563/372/83 569/342/89 
f 534/285/38 564/373/84 570/343/90 
f 544/295/48 565/374/85 571/344/91 
f 532/283/36 529/280/33 572/345/92 
f 556/308/60 554/305/58 566/347/86 
f 540/291/44 567/375/87 575/349/95 
f 550/301/54 568/376/88 576/350/96 
f 561/313/65 569/377/89 572/351/92 
# 926 faces

