# 3ds Max Wavefront OBJ Exporter v0.97b - (c)2007 guruware
# 创建的文件:17.01.2026 22:58:18

#
# object Cylinder_Cylinder_002
#

v  1.0616 0.1475 -0.1088
v  1.0616 0.0025 -0.1088
v  1.0616 0.0025 0.1088
v  2.6384 0.1475 -0.1088
v  2.6384 0.0025 -0.1088
v  2.6384 0.1475 0.1088
v  2.6384 0.0025 0.1088
v  1.0616 0.1475 0.1088
v  -0.2625 0.3748 0.1213
v  -0.2625 0.5463 0.0502
v  -0.2625 0.4752 -0.1213
v  0.3500 0.1406 -0.2844
v  -0.2625 0.1406 -0.2844
v  -0.2625 0.1406 -0.0000
v  -0.2625 0.7969 0.3719
v  -0.2625 0.0531 0.3719
v  0.3500 0.0531 0.3719
v  -0.2625 0.7969 -0.3719
v  0.3500 0.7969 -0.3719
v  0.3500 0.0531 -0.3719
v  0.3500 0.4250 -0.2844
v  -0.2625 0.4250 -0.2844
v  0.3500 0.4250 -0.1313
v  0.3500 0.3748 -0.1213
v  -0.2625 0.3748 -0.1213
v  0.3500 0.3322 -0.0928
v  -0.2625 0.3322 -0.0928
v  0.3500 0.3037 -0.0502
v  -0.2625 0.3037 -0.0502
v  0.3500 0.2937 -0.0000
v  -0.2625 0.2937 -0.0000
v  0.3500 0.3037 0.0502
v  -0.2625 0.3037 0.0502
v  0.3500 0.3322 0.0928
v  -0.2625 0.3322 0.0928
v  0.3500 0.3748 0.1213
v  0.3500 0.4250 0.1313
v  -0.2625 0.4250 0.1313
v  0.3500 0.4752 0.1213
v  -0.2625 0.4752 0.1213
v  0.3500 0.5178 0.0928
v  -0.2625 0.5178 0.0928
v  0.3500 0.5463 0.0502
v  0.3500 0.5562 -0.0000
v  -0.2625 0.5562 -0.0000
v  0.3500 0.5463 -0.0502
v  -0.2625 0.5463 -0.0502
v  0.3500 0.5178 -0.0928
v  -0.2625 0.5178 -0.0928
v  0.3500 0.4752 -0.1213
v  -0.2625 0.4250 -0.1313
v  1.0500 0.7484 0.1339
v  1.0500 0.7750 -0.0000
v  1.0500 0.6725 0.2475
v  1.0500 0.5589 0.3234
v  1.0500 0.4250 0.3500
v  1.0500 0.2911 0.3234
v  1.0500 0.1775 0.2475
v  1.0500 0.1016 0.1339
v  1.0500 0.1016 -0.1339
v  1.0500 0.0750 -0.0000
v  1.0500 0.1775 -0.2475
v  1.0500 0.2911 -0.3234
v  1.0500 0.4250 -0.3500
v  1.0500 0.5589 -0.3234
v  1.0500 0.6725 -0.2475
v  1.0500 0.7484 -0.1339
v  -0.2625 0.0531 -0.3719
v  2.8500 0.4250 0.1750
v  2.8500 0.2500 -0.0000
v  2.8500 0.4250 -0.1750
v  2.1250 0.2129 0.2121
v  2.3750 0.2129 0.2121
v  2.3750 0.0361 0.3889
v  2.8500 0.6000 -0.0000
v  2.6750 0.7750 -0.0000
v  2.6750 0.7484 0.1339
v  2.8500 0.5867 -0.0670
v  2.6750 0.7484 -0.1339
v  2.8500 0.5487 -0.1237
v  2.6750 0.6725 -0.2475
v  2.8500 0.4920 -0.1617
v  2.6750 0.5589 -0.3234
v  2.6750 0.4250 -0.3500
v  2.8500 0.3580 -0.1617
v  2.6750 0.2911 -0.3234
v  2.8500 0.3013 -0.1237
v  2.6750 0.1775 -0.2475
v  2.8500 0.2633 -0.0670
v  2.6750 0.1016 -0.1339
v  2.6750 0.0750 -0.0000
v  2.8500 0.2633 0.0670
v  2.6750 0.1016 0.1339
v  2.8500 0.3013 0.1237
v  2.6750 0.1775 0.2475
v  2.8500 0.3580 0.1617
v  2.6750 0.2911 0.3234
v  2.6750 0.4250 0.3500
v  2.8500 0.4920 0.1617
v  2.6750 0.5589 0.3234
v  2.8500 0.5487 0.1237
v  2.6750 0.6725 0.2475
v  2.8500 0.5867 0.0670
v  2.3750 0.6371 -0.2121
v  2.3750 0.8139 -0.3889
v  2.1250 0.8139 -0.3889
v  2.3750 0.0361 -0.3889
v  2.3750 0.2129 -0.2121
v  2.1250 0.2129 -0.2121
v  2.3750 0.6371 0.2121
v  2.3750 0.8139 0.3889
v  2.1250 0.8139 0.3889
v  0.3500 0.1406 -0.0000
v  -0.2625 0.4250 0.2844
v  0.3500 0.4250 0.2844
v  0.3500 0.7094 -0.0000
v  -0.2625 0.7094 -0.0000
v  -0.2625 0.7094 -0.2844
v  0.3500 0.7094 -0.2844
v  0.7000 0.5178 -0.0928
v  -0.2625 0.7094 0.2844
v  0.3500 0.7094 0.2844
v  0.7000 0.5178 0.0928
v  -0.2625 0.1406 0.2844
v  0.3500 0.1406 0.2844
v  0.3500 0.7969 0.3719
v  2.1250 0.0361 -0.3889
v  0.7000 0.3322 0.0928
v  0.7000 0.3322 -0.0928
v  2.1250 0.0361 0.3889
v  2.1250 0.6371 -0.2121
v  2.1250 0.6371 0.2121
# 132 vertices

vn -1.0000 0.0000 -0.0000
vn 0.0000 0.0000 -1.0000
vn 1.0000 0.0000 -0.0000
vn 0.0000 0.0000 1.0000
vn 0.0000 -1.0000 -0.0000
vn 0.0000 1.0000 -0.0000
vn 0.0000 -0.3831 -0.9237
vn 0.0000 -0.7071 -0.7071
vn 0.0000 -0.9237 -0.3831
vn 0.0000 -1.0000 0.0000
vn 0.0000 -0.9237 0.3831
vn 0.0000 -0.7071 0.7071
vn 0.0000 -0.3831 0.9237
vn 0.0000 0.3831 0.9237
vn 0.0000 0.7071 0.7071
vn 0.0000 0.9241 0.3822
vn 0.0000 1.0000 0.0000
vn 0.0000 0.9241 -0.3822
vn 0.0000 0.7071 -0.7071
vn 0.0000 0.3831 -0.9237
vn -0.2984 0.8820 0.3648
vn -0.2983 0.8819 0.3651
vn -0.2983 0.9545 -0.0000
vn -0.2983 0.6749 0.6749
vn -0.2983 0.3656 0.8817
vn -0.2983 0.3652 0.8819
vn -0.2983 -0.0000 0.9545
vn -0.2982 -0.0000 0.9545
vn -0.2982 -0.3656 0.8817
vn -0.2983 -0.3652 0.8819
vn -0.2983 -0.6749 0.6749
vn -0.2983 -0.8817 0.3656
vn -0.2983 -0.8819 0.3652
vn -0.2983 -0.9545 0.0000
vn -0.2983 -0.8819 -0.3652
vn -0.2982 -0.9545 -0.0000
vn -0.2983 -0.6749 -0.6749
vn -0.2983 -0.8817 -0.3656
vn -0.2983 -0.3652 -0.8819
vn -0.2982 -0.0000 -0.9545
vn -0.2982 -0.3656 -0.8817
vn -0.2983 0.3652 -0.8819
vn -0.2983 -0.0000 -0.9545
vn -0.2983 0.6749 -0.6749
vn -0.2983 0.3656 -0.8817
vn -0.2983 0.8819 -0.3652
vn -0.2984 0.8820 -0.3648
vn 0.7071 0.7071 -0.0000
vn 0.7071 0.6533 0.2705
vn 0.7071 0.6531 -0.2710
vn 0.7072 0.6532 -0.2705
vn 0.7070 0.5001 -0.5001
vn 0.7073 0.4999 -0.4999
vn 0.7071 0.2710 -0.6531
vn 0.7072 0.2705 -0.6532
vn 0.7071 -0.0000 -0.7071
vn 0.7071 -0.2710 -0.6531
vn 0.7072 -0.2705 -0.6532
vn 0.7070 -0.5001 -0.5001
vn 0.7073 -0.4999 -0.4999
vn 0.7071 -0.6531 -0.2710
vn 0.7072 -0.6532 -0.2705
vn 0.7071 -0.7071 -0.0000
vn 0.7071 -0.6531 0.2710
vn 0.7072 -0.6532 0.2705
vn 0.7071 -0.5001 0.4999
vn 0.7072 -0.5000 0.4999
vn 0.7072 -0.2708 0.6531
vn 0.7071 -0.2705 0.6533
vn 0.7071 -0.0000 0.7071
vn 0.7071 0.2710 0.6531
vn 0.7072 0.2705 0.6532
vn 0.7071 0.4999 0.5001
vn 0.7072 0.4999 0.5000
vn 0.7072 0.6531 0.2708
vn 0.0000 0.3826 0.9239
vn 0.0000 -0.3826 0.9239
vn 0.0000 -0.9239 0.3826
vn 0.0000 -0.9239 -0.3826
vn 0.0000 0.9239 -0.3826
vn 0.0000 0.3826 -0.9239
vn 0.0000 -0.3826 -0.9239
vn 0.0000 0.9239 0.3826
# 83 vertex normals

vt 0.6304 0.6071 0.0000
vt 0.6522 0.6071 0.0000
vt 0.6522 0.6786 0.0000
vt 0.9130 0.5714 0.0000
vt 0.9130 0.6071 0.0000
vt 0.9348 0.6786 0.0000
vt 0.9130 0.6786 0.0000
vt 0.6522 0.7143 0.0000
vt 0.6222 0.6076 0.0000
vt 0.6084 0.6650 0.0000
vt 0.5735 0.6424 0.0000
vt 0.1304 0.8571 0.0000
vt -0.0000 0.8571 0.0000
vt -0.0000 0.7500 0.0000
vt 0.2826 0.5000 0.0000
vt 0.2826 0.2500 0.0000
vt 0.4130 0.2500 0.0000
vt 0.2826 0.7500 0.0000
vt 0.4130 0.7500 0.0000
vt 0.4130 1.0000 0.0000
vt 0.1304 0.1071 0.0000
vt 0.0000 0.1071 0.0000
vt 0.0000 0.0000 0.0000
vt 0.5435 0.2143 0.0000
vt 0.5435 0.2321 0.0000
vt 0.4130 0.2321 0.0000
vt 0.5435 0.2500 0.0000
vt 0.5435 0.2679 0.0000
vt 0.4130 0.2679 0.0000
vt 0.5435 0.2857 0.0000
vt 0.4130 0.2857 0.0000
vt 0.5435 -0.0000 0.0000
vt 0.5435 0.0179 0.0000
vt 0.4130 0.0179 0.0000
vt 0.5435 0.0357 0.0000
vt 0.4130 0.0357 0.0000
vt 0.5435 0.0536 0.0000
vt 0.5435 0.0714 0.0000
vt 0.4130 0.0714 0.0000
vt 0.5435 0.0893 0.0000
vt 0.4130 0.0893 0.0000
vt 0.5435 0.1071 0.0000
vt 0.4130 0.1071 0.0000
vt 0.5435 0.1250 0.0000
vt 0.5435 0.1429 0.0000
vt 0.4130 0.1429 0.0000
vt 0.5435 0.1607 0.0000
vt 0.4130 0.1607 0.0000
vt 0.5435 0.1786 0.0000
vt 0.4130 0.1786 0.0000
vt 0.5435 0.1964 0.0000
vt 0.4130 0.2143 0.0000
vt 0.4130 0.1964 0.0000
vt 0.6739 0.2500 0.0000
vt 0.6739 0.2857 0.0000
vt 0.6739 0.2143 0.0000
vt 0.6739 0.1786 0.0000
vt 0.6739 0.1429 0.0000
vt 0.6739 0.1071 0.0000
vt 0.6739 0.0714 0.0000
vt 0.6739 0.0357 0.0000
vt 0.6739 0.5357 0.0000
vt 0.6739 0.5714 0.0000
vt 0.5435 0.5714 0.0000
vt 0.6739 0.5000 0.0000
vt 0.5435 0.5357 0.0000
vt 0.6739 0.4643 0.0000
vt 0.5435 0.5000 0.0000
vt 0.6739 0.4286 0.0000
vt 0.5435 0.4643 0.0000
vt 0.6739 0.3929 0.0000
vt 0.5435 0.4286 0.0000
vt 0.6739 0.3571 0.0000
vt 0.5435 0.3929 0.0000
vt 0.6739 0.3214 0.0000
vt 0.5435 0.3571 0.0000
vt 0.5435 0.3214 0.0000
vt 0.2826 -0.0000 0.0000
vt 0.4130 -0.0000 0.0000
vt 0.9378 0.6250 0.0000
vt 0.9674 0.5763 0.0000
vt 0.9970 0.6250 0.0000
vt 0.4783 0.2857 0.0000
vt 0.4130 0.3929 0.0000
vt 1.0000 0.2857 0.0000
vt 0.9565 0.2857 0.0000
vt 0.9565 0.2500 0.0000
vt 1.0000 0.3036 0.0000
vt 1.0000 0.3214 0.0000
vt 0.9565 0.3214 0.0000
vt 1.0000 0.3571 0.0000
vt 0.9565 0.3571 0.0000
vt 1.0000 0.3750 0.0000
vt 1.0000 0.3929 0.0000
vt 0.9565 0.3929 0.0000
vt 1.0000 0.4107 0.0000
vt 1.0000 0.4286 0.0000
vt 0.9565 0.4286 0.0000
vt 1.0000 0.4464 0.0000
vt 1.0000 0.4643 0.0000
vt 0.9565 0.4643 0.0000
vt 1.0000 0.5000 0.0000
vt 0.9565 0.5000 0.0000
vt 1.0000 0.5179 0.0000
vt 1.0000 0.5357 0.0000
vt 0.9565 0.5357 0.0000
vt 1.0000 0.5714 0.0000
vt 0.9565 0.5714 0.0000
vt 1.0000 0.0357 0.0000
vt 0.9565 0.0357 0.0000
vt 0.9565 0.0000 0.0000
vt 1.0000 0.0714 0.0000
vt 0.9565 0.0714 0.0000
vt 1.0000 0.1071 0.0000
vt 0.9565 0.1071 0.0000
vt 1.0000 0.1429 0.0000
vt 0.9565 0.1429 0.0000
vt 1.0000 0.1786 0.0000
vt 0.9565 0.1786 0.0000
vt 1.0000 0.2143 0.0000
vt 0.9565 0.2143 0.0000
vt 1.0000 0.2500 0.0000
vt 0.4783 0.3929 0.0000
vt 0.1413 0.5000 0.0000
vt 0.2717 0.5000 0.0000
vt 0.2717 0.6071 0.0000
vt 0.1413 0.6071 0.0000
vt 0.1304 0.2143 0.0000
vt 0.0000 0.2143 0.0000
vt 0.0000 0.3214 0.0000
vt 0.1304 0.4286 0.0000
vt 0.0000 0.4286 0.0000
vt 0.1304 0.5357 0.0000
vt 0.1304 0.6429 0.0000
vt -0.0000 0.6429 0.0000
vt 0.1304 0.7500 0.0000
vt 0.2065 0.2143 0.0000
vt 0.2609 0.2143 0.0000
vt 0.2609 0.1250 0.0000
vt 0.2609 0.0357 0.0000
vt 0.1522 0.1250 0.0000
vt 0.1522 0.2143 0.0000
vt 0.1304 0.2500 0.0000
vt 0.2065 0.0357 0.0000
vt 0.2065 0.2857 0.0000
vt 0.1522 0.2857 0.0000
vt 0.1522 0.3750 0.0000
vt 0.1522 0.4643 0.0000
vt 0.1304 0.5000 0.0000
vt 0.2065 0.4643 0.0000
vt 0.2609 0.3750 0.0000
vt 0.6304 0.6786 0.0000
vt 0.6522 0.5714 0.0000
vt 0.9348 0.6071 0.0000
vt 0.9130 0.7143 0.0000
vt 0.5713 0.6258 0.0000
vt 0.5731 0.6090 0.0000
vt 0.5787 0.5947 0.0000
vt 0.5872 0.5850 0.0000
vt 0.5974 0.5814 0.0000
vt 0.6075 0.5844 0.0000
vt 0.6163 0.5936 0.0000
vt 0.6244 0.6242 0.0000
vt 0.6225 0.6410 0.0000
vt 0.6169 0.6553 0.0000
vt 0.5983 0.6686 0.0000
vt 0.5881 0.6656 0.0000
vt 0.5794 0.6564 0.0000
vt 0.4130 0.5000 0.0000
vt 0.2826 1.0000 0.0000
vt 0.1304 0.0000 0.0000
vt 0.4130 0.0536 0.0000
vt 0.4130 0.1250 0.0000
vt 0.6739 -0.0000 0.0000
vt 0.5435 0.5536 0.0000
vt 0.5435 0.5179 0.0000
vt 0.5435 0.4821 0.0000
vt 0.5435 0.4464 0.0000
vt 0.5435 0.4107 0.0000
vt 0.5435 0.3750 0.0000
vt 0.5435 0.3393 0.0000
vt 0.5435 0.3036 0.0000
vt 0.9948 0.6436 0.0000
vt 0.9883 0.6594 0.0000
vt 0.9787 0.6700 0.0000
vt 0.9674 0.6737 0.0000
vt 0.9561 0.6700 0.0000
vt 0.9464 0.6594 0.0000
vt 0.9400 0.6436 0.0000
vt 0.9400 0.6064 0.0000
vt 0.9464 0.5906 0.0000
vt 0.9561 0.5800 0.0000
vt 0.9787 0.5800 0.0000
vt 0.9883 0.5906 0.0000
vt 0.9948 0.6064 0.0000
vt 1.0000 0.2679 0.0000
vt 1.0000 0.3393 0.0000
vt 1.0000 0.4821 0.0000
vt 1.0000 0.5536 0.0000
vt 1.0000 0.0179 0.0000
vt 1.0000 0.0536 0.0000
vt 1.0000 0.0893 0.0000
vt 1.0000 0.1250 0.0000
vt 1.0000 0.1607 0.0000
vt 1.0000 0.1964 0.0000
vt 1.0000 0.2321 0.0000
vt 0.1304 0.3214 0.0000
vt -0.0000 0.5357 0.0000
vt 0.1522 0.0357 0.0000
vt 0.2609 0.2857 0.0000
vt 0.2609 0.4643 0.0000
# 211 texture coords

o Cylinder_Cylinder_002
g Cylinder_Cylinder_002
s off
f 1/1/1 2/2/1 3/3/1 
f 4/4/2 5/5/2 2/2/2 
f 6/6/3 7/7/3 5/5/3 
f 8/8/4 3/3/4 7/7/4 
f 2/2/5 5/5/5 7/7/5 
f 9/9/1 10/10/1 11/11/1 
f 12/12/6 13/13/6 14/14/6 
f 15/15/4 16/16/4 17/17/4 
f 18/18/2 19/19/2 20/20/2 
f 19/19/6 18/18/6 15/15/6 
f 21/21/4 22/22/4 13/23/4 
f 23/24/2 24/25/7 25/26/7 
f 24/25/7 26/27/8 27/17/8 
f 26/27/8 28/28/9 29/29/9 
f 28/28/9 30/30/10 31/31/5 
f 30/32/10 32/33/11 33/34/11 
f 33/34/11 32/33/11 34/35/12 
f 35/36/12 34/35/12 36/37/13 
f 36/37/13 37/38/4 38/39/4 
f 37/38/4 39/40/14 40/41/14 
f 40/41/14 39/40/14 41/42/15 
f 42/43/15 41/42/15 43/44/16 
f 43/44/16 44/45/6 45/46/17 
f 44/45/6 46/47/18 47/48/18 
f 46/47/18 48/49/19 49/50/19 
f 50/51/20 23/24/2 51/52/2 
f 48/49/19 50/51/20 11/53/20 
f 43/28/21 52/54/22 53/55/23 
f 54/56/24 52/54/22 43/27/21 
f 54/56/24 41/24/24 39/51/25 
f 55/57/26 39/49/25 37/47/27 
f 56/58/28 37/45/27 36/44/29 
f 57/59/30 36/42/29 34/40/31 
f 58/60/31 34/38/31 32/37/32 
f 59/61/33 32/35/32 30/33/34 
f 60/62/35 61/63/36 30/64/34 
f 62/65/37 60/62/35 28/66/38 
f 63/67/39 62/65/37 26/68/37 
f 64/69/40 63/67/39 24/70/41 
f 65/71/42 64/69/40 23/72/43 
f 66/73/44 65/71/42 50/74/45 
f 67/75/46 66/73/44 48/76/44 
f 53/55/23 67/75/46 46/77/47 
f 68/78/5 20/79/5 17/17/5 
f 69/80/3 70/81/3 71/82/3 
f 72/83/8 73/31/8 74/84/8 
f 75/85/48 76/86/48 77/87/49 
f 75/88/48 78/89/50 79/90/51 
f 80/91/52 81/92/53 79/90/51 
f 80/93/52 82/94/54 83/95/55 
f 82/96/54 71/97/56 84/98/56 
f 71/99/56 85/100/57 86/101/58 
f 87/102/59 88/103/60 86/101/58 
f 87/104/59 89/105/61 90/106/62 
f 70/107/63 91/108/63 90/106/62 
f 92/109/64 93/110/65 91/111/63 
f 94/112/66 95/113/67 93/110/65 
f 96/114/68 97/115/69 95/113/67 
f 69/116/70 98/117/70 97/115/69 
f 99/118/71 100/119/72 98/117/70 
f 101/120/73 102/121/74 100/119/72 
f 103/122/75 77/87/49 102/121/74 
f 98/117/4 100/119/76 55/57/76 
f 97/115/77 98/117/4 56/58/4 
f 95/113/12 97/115/77 57/59/77 
f 93/110/78 95/113/12 58/60/12 
f 91/111/5 93/110/78 59/61/78 
f 61/63/5 60/62/79 90/106/79 
f 76/86/6 79/90/80 67/75/80 
f 79/90/80 81/92/19 66/73/19 
f 81/92/19 83/95/81 65/71/81 
f 83/95/81 84/98/2 64/69/2 
f 84/98/2 86/101/82 63/67/82 
f 88/103/8 90/106/79 60/62/79 
f 86/101/82 88/103/8 62/65/8 
f 100/119/76 102/121/15 54/56/15 
f 102/121/15 77/87/83 52/54/83 
f 77/87/83 76/86/6 53/55/6 
f 74/84/15 73/31/15 72/83/15 
f 104/83/15 105/123/15 106/84/15 
f 107/84/12 108/31/12 109/83/12 
f 110/83/12 111/123/12 112/84/12 
f 51/124/6 23/125/6 21/126/6 
f 31/125/4 14/126/4 113/127/4 
f 114/126/6 115/127/6 37/124/6 
f 44/125/4 116/126/4 117/127/4 
f 118/126/8 119/127/8 120/124/8 
f 121/126/19 122/127/19 123/124/19 
f 35/125/15 124/126/15 125/127/15 
f 27/125/12 13/126/12 12/127/12 
f 21/125/8 113/126/8 14/127/8 
f 114/125/12 14/126/12 113/127/12 
f 117/126/19 116/127/19 21/124/19 
f 114/124/15 115/125/15 116/126/15 
f 21/21/4 119/128/4 118/129/4 
f 117/130/5 118/129/5 119/128/5 
f 122/131/5 121/132/5 117/130/5 
f 121/132/2 122/131/2 115/133/2 
f 115/133/2 125/134/2 124/135/2 
f 124/135/6 125/134/6 113/136/6 
f 117/137/1 121/138/1 15/16/1 
f 114/139/1 124/140/1 16/78/1 
f 22/141/1 118/142/1 18/143/1 
f 16/78/1 124/140/1 14/144/1 
f 113/145/3 125/146/3 17/143/3 
f 115/147/3 122/148/3 126/149/3 
f 126/149/3 116/150/3 19/15/3 
f 19/15/3 21/151/3 20/16/3 
f 106/84/8 105/123/8 104/83/8 
f 127/123/19 109/83/19 108/31/19 
f 112/84/19 111/123/19 110/83/19 
f 21/126/5 23/125/5 51/124/5 
f 31/125/2 30/124/2 113/127/2 
f 37/124/5 115/127/5 114/126/5 
f 117/127/2 116/126/2 44/125/2 
f 120/124/15 119/127/15 118/126/15 
f 123/124/12 122/127/12 121/126/12 
f 35/125/8 128/124/8 125/127/8 
f 27/125/19 129/124/19 12/127/19 
f 14/127/15 113/126/15 21/125/15 
f 113/127/19 14/126/19 114/125/19 
f 21/124/12 116/127/12 117/126/12 
f 117/127/8 116/126/8 115/125/8 
f 8/152/1 1/1/1 3/3/1 
f 1/153/2 4/4/2 2/2/2 
f 4/154/3 6/6/3 5/5/3 
f 6/155/4 8/8/4 7/7/4 
f 3/3/5 2/2/5 7/7/5 
f 11/11/1 51/156/1 25/157/1 
f 25/157/1 27/158/1 29/159/1 
f 29/159/1 31/160/1 33/161/1 
f 33/161/1 35/162/1 29/159/1 
f 9/9/1 38/163/1 10/10/1 
f 40/164/1 42/165/1 10/10/1 
f 10/10/1 45/166/1 11/11/1 
f 47/167/1 49/168/1 11/11/1 
f 11/11/1 25/157/1 9/9/1 
f 29/159/1 35/162/1 9/9/1 
f 38/163/1 40/164/1 10/10/1 
f 45/166/1 47/167/1 11/11/1 
f 25/157/1 29/159/1 9/9/1 
f 113/136/6 12/12/6 14/14/6 
f 126/169/4 15/15/4 17/17/4 
f 68/170/2 18/18/2 20/20/2 
f 126/169/6 19/19/6 15/15/6 
f 12/171/4 21/21/4 13/23/4 
f 51/52/2 23/24/2 25/26/7 
f 25/26/7 24/25/7 27/17/8 
f 27/17/8 26/27/8 29/29/9 
f 29/29/9 28/28/9 31/31/5 
f 31/79/5 30/32/10 33/34/11 
f 35/36/12 33/34/11 34/35/12 
f 9/172/13 35/36/12 36/37/13 
f 9/172/13 36/37/13 38/39/4 
f 38/39/4 37/38/4 40/41/14 
f 42/43/15 40/41/14 41/42/15 
f 10/173/16 42/43/15 43/44/16 
f 10/173/16 43/44/16 45/46/17 
f 45/46/17 44/45/6 47/48/18 
f 47/48/18 46/47/18 49/50/19 
f 11/53/20 50/51/20 51/52/2 
f 49/50/19 48/49/19 11/53/20 
f 44/30/23 43/28/21 53/55/23 
f 41/25/24 54/56/24 43/27/21 
f 55/57/26 54/56/24 39/51/25 
f 56/58/28 55/57/26 37/47/27 
f 57/59/30 56/58/28 36/44/29 
f 58/60/31 57/59/30 34/40/31 
f 59/61/33 58/60/31 32/37/32 
f 61/174/36 59/61/33 30/33/34 
f 28/175/38 60/62/35 30/64/34 
f 26/176/37 62/65/37 28/66/38 
f 24/177/41 63/67/39 26/68/37 
f 23/178/43 64/69/40 24/70/41 
f 50/179/45 65/71/42 23/72/43 
f 48/180/44 66/73/44 50/74/45 
f 46/181/47 67/75/46 48/76/44 
f 44/182/23 53/55/23 46/77/47 
f 16/16/5 68/78/5 17/17/5 
f 71/82/3 82/183/3 80/184/3 
f 80/184/3 78/185/3 75/186/3 
f 75/186/3 103/187/3 101/188/3 
f 101/188/3 99/189/3 69/80/3 
f 69/80/3 96/190/3 70/81/3 
f 94/191/3 92/192/3 70/81/3 
f 70/81/3 89/193/3 87/194/3 
f 87/194/3 85/195/3 70/81/3 
f 71/82/3 80/184/3 75/186/3 
f 75/186/3 101/188/3 69/80/3 
f 96/190/3 94/191/3 70/81/3 
f 70/81/3 85/195/3 71/82/3 
f 71/82/3 75/186/3 69/80/3 
f 130/123/8 72/83/8 74/84/8 
f 103/196/75 75/85/48 77/87/49 
f 76/86/48 75/88/48 79/90/51 
f 78/197/50 80/91/52 79/90/51 
f 81/92/53 80/93/52 83/95/55 
f 83/95/55 82/96/54 84/98/56 
f 84/98/56 71/99/56 86/101/58 
f 85/198/57 87/102/59 86/101/58 
f 88/103/60 87/104/59 90/106/62 
f 89/199/61 70/107/63 90/106/62 
f 70/200/63 92/109/64 91/111/63 
f 92/201/64 94/112/66 93/110/65 
f 94/202/66 96/114/68 95/113/67 
f 96/203/68 69/116/70 97/115/69 
f 69/204/70 99/118/71 98/117/70 
f 99/205/71 101/120/73 100/119/72 
f 101/206/73 103/122/75 102/121/74 
f 56/58/4 98/117/4 55/57/76 
f 57/59/77 97/115/77 56/58/4 
f 58/60/12 95/113/12 57/59/77 
f 59/61/78 93/110/78 58/60/12 
f 61/174/5 91/111/5 59/61/78 
f 91/108/5 61/63/5 90/106/79 
f 53/55/6 76/86/6 67/75/80 
f 67/75/80 79/90/80 66/73/19 
f 66/73/19 81/92/19 65/71/81 
f 65/71/81 83/95/81 64/69/2 
f 64/69/2 84/98/2 63/67/82 
f 62/65/8 88/103/8 60/62/79 
f 63/67/82 86/101/82 62/65/8 
f 55/57/76 100/119/76 54/56/15 
f 54/56/15 102/121/15 52/54/83 
f 52/54/83 77/87/83 53/55/6 
f 130/123/15 74/84/15 72/83/15 
f 131/31/15 104/83/15 106/84/15 
f 127/123/12 107/84/12 109/83/12 
f 132/31/12 110/83/12 112/84/12 
f 22/127/6 51/124/6 21/126/6 
f 30/124/4 31/125/4 113/127/4 
f 38/125/6 114/126/6 37/124/6 
f 45/124/4 44/125/4 117/127/4 
f 49/125/8 118/126/8 120/124/8 
f 42/125/19 121/126/19 123/124/19 
f 128/124/15 35/125/15 125/127/15 
f 129/124/12 27/125/12 12/127/12 
f 22/124/8 21/125/8 14/127/8 
f 115/124/12 114/125/12 113/127/12 
f 22/125/19 117/126/19 21/124/19 
f 117/127/15 114/124/15 116/126/15 
f 22/22/4 21/21/4 118/129/4 
f 116/207/5 117/130/5 119/128/5 
f 116/207/5 122/131/5 117/130/5 
f 114/208/2 121/132/2 115/133/2 
f 114/208/2 115/133/2 124/135/2 
f 14/14/6 124/135/6 113/136/6 
f 15/16/1 18/143/1 117/137/1 
f 118/142/1 117/137/1 18/143/1 
f 16/78/1 15/16/1 114/139/1 
f 121/138/1 114/139/1 15/16/1 
f 18/143/1 68/171/1 22/141/1 
f 13/209/1 22/141/1 68/171/1 
f 14/144/1 13/209/1 68/171/1 
f 68/171/1 16/78/1 14/144/1 
f 17/143/3 20/16/3 113/145/3 
f 12/210/3 113/145/3 20/16/3 
f 126/149/3 17/143/3 115/147/3 
f 125/146/3 115/147/3 17/143/3 
f 119/211/3 19/15/3 116/150/3 
f 126/149/3 122/148/3 116/150/3 
f 12/210/3 20/16/3 21/151/3 
f 19/15/3 119/211/3 21/151/3 
f 131/31/8 106/84/8 104/83/8 
f 107/84/19 127/123/19 108/31/19 
f 132/31/19 112/84/19 110/83/19 
f 22/127/5 21/126/5 51/124/5 
f 14/126/2 31/125/2 113/127/2 
f 38/125/5 37/124/5 114/126/5 
f 45/124/2 117/127/2 44/125/2 
f 49/125/15 120/124/15 118/126/15 
f 42/125/12 123/124/12 121/126/12 
f 124/126/8 35/125/8 125/127/8 
f 13/126/19 27/125/19 12/127/19 
f 22/124/15 14/127/15 21/125/15 
f 115/124/19 113/127/19 114/125/19 
f 22/125/12 21/124/12 117/126/12 
f 114/124/8 117/127/8 115/125/8 
# 278 faces

