# Blender v2.76 (sub 0) OBJ File: 'n2.blend'
# www.blender.org
o Cylinder
v  0.2500 4.2500 -0.0000
v  0.1750 4.2933 -0.0000
v  0.1750 4.2067 -0.0000
v  0.1768 4.2500 -0.1768
v  0.1237 4.2933 -0.1237
v  0.1237 4.2067 -0.1237
v  0.0000 4.2500 -0.2500
v  0.0000 4.2933 -0.1750
v  0.0000 4.2067 -0.1750
v  -0.1768 4.2500 -0.1768
v  -0.1237 4.2933 -0.1237
v  -0.1237 4.2067 -0.1237
v  -0.2500 4.2500 -0.0000
v  -0.1750 4.2933 -0.0000
v  -0.1750 4.2067 -0.0000
v  -0.1768 4.2500 0.1768
v  -0.1237 4.2933 0.1237
v  -0.1237 4.2067 0.1237
v  0.0000 4.2500 0.2500
v  0.0000 4.2933 0.1750
v  0.0000 4.2067 0.1750
v  0.1768 4.2500 0.1768
v  0.1237 4.2933 0.1237
v  0.1237 4.2067 0.1237
v  0.0000 0.0000 -0.8500
v  0.0000 0.2500 -1.0000
v  0.3253 0.0000 -0.7853
v  0.3827 0.2500 -0.9239
v  0.6010 0.0000 -0.6010
v  0.7071 0.2500 -0.7071
v  0.7853 0.0000 -0.3253
v  0.9239 0.2500 -0.3827
v  0.8500 0.0000 -0.0000
v  1.0000 0.2500 -0.0000
v  0.7853 0.0000 0.3253
v  0.9239 0.2500 0.3827
v  0.6010 0.0000 0.6010
v  0.7071 0.2500 0.7071
v  0.3253 0.0000 0.7853
v  0.3827 0.2500 0.9239
v  0.0000 0.0000 0.8500
v  0.0000 0.2500 1.0000
v  -0.3253 0.0000 0.7853
v  -0.3827 0.2500 0.9239
v  -0.6010 0.0000 0.6010
v  -0.7071 0.2500 0.7071
v  -0.7853 0.0000 0.3253
v  -0.9239 0.2500 0.3827
v  -0.8500 0.0000 -0.0000
v  -1.0000 0.2500 -0.0000
v  -0.7853 0.0000 -0.3253
v  -0.9239 0.2500 -0.3827
v  -0.6010 0.0000 -0.6010
v  -0.7071 0.2500 -0.7071
v  -0.3253 0.0000 -0.7853
v  -0.3827 0.2500 -0.9239
v  0.3827 3.0000 -0.9239
v  0.0000 3.0000 -1.0000
v  0.7071 3.0000 -0.7071
v  0.9239 3.0000 -0.3827
v  1.0000 3.0000 -0.0000
v  0.9239 3.0000 0.3827
v  0.7071 3.0000 0.7071
v  0.3827 3.0000 0.9239
v  0.0000 3.0000 1.0000
v  -0.3827 3.0000 0.9239
v  -0.7071 3.0000 0.7071
v  -0.9239 3.0000 0.3827
v  -1.0000 3.0000 -0.0000
v  -0.9239 3.0000 -0.3827
v  -0.7071 3.0000 -0.7071
v  -0.3827 3.0000 -0.9239
v  0.0574 4.0000 -0.1386
v  0.0000 4.0000 -0.1500
v  0.1061 4.0000 -0.1061
v  0.1386 4.0000 -0.0574
v  0.1500 4.0000 -0.0000
v  0.1386 4.0000 0.0574
v  0.1061 4.0000 0.1061
v  0.0574 4.0000 0.1386
v  0.0000 4.0000 0.1500
v  -0.0574 4.0000 0.1386
v  -0.1061 4.0000 0.1061
v  -0.1386 4.0000 0.0574
v  -0.1500 4.0000 -0.0000
v  -0.1386 4.0000 -0.0574
v  -0.1061 4.0000 -0.1061
v  -0.0574 4.0000 -0.1386
v  0.0574 4.5000 -0.1386
v  0.0000 4.5000 -0.1500
v  0.1061 4.5000 -0.1061
v  0.1386 4.5000 -0.0574
v  0.1500 4.5000 -0.0000
v  0.1386 4.5000 0.0574
v  0.1061 4.5000 0.1061
v  0.0574 4.5000 0.1386
v  0.0000 4.5000 0.1500
v  -0.0574 4.5000 0.1386
v  -0.1061 4.5000 0.1061
v  -0.1386 4.5000 0.0574
v  -0.1500 4.5000 -0.0000
v  -0.1386 4.5000 -0.0574
v  -0.1061 4.5000 -0.1061
v  -0.0574 4.5000 -0.1386
v  0.0000 4.6500 -0.0000
vn 0.5000 0.8660 0.0000
vn 0.3536 0.8660 -0.3536
vn 0.3536 0.8660 -0.3536
vn -0.7071 0.0000 0.7071
vn -0.7071 0.0000 0.7071
vn -1.0000 0.0000 -0.0000
vn 0.5000 -0.8660 -0.0000
vn 0.3536 -0.8660 -0.3536
vn 0.3536 -0.8660 -0.3536
vn -0.0000 0.8660 -0.5000
vn -0.0000 0.8660 -0.5000
vn 0.3536 0.8660 -0.3536
vn 0.0000 0.0000 1.0000
vn 0.0000 0.0000 1.0000
vn -0.7071 0.0000 0.7071
vn 0.0000 -0.8660 -0.5000
vn 0.0000 -0.8660 -0.5000
vn 0.3536 -0.8660 -0.3536
vn -0.3536 0.8660 -0.3536
vn -0.3536 0.8660 -0.3536
vn -0.0000 0.8660 -0.5000
vn 0.7071 0.0000 0.7071
vn 0.7071 0.0000 0.7071
vn 0.0000 0.0000 1.0000
vn 0.0000 -0.8660 -0.5000
vn -0.3536 -0.8660 -0.3536
vn -0.3536 -0.8660 -0.3536
vn -0.5000 0.8660 -0.0000
vn -0.5000 0.8660 -0.0000
vn -0.3536 0.8660 -0.3536
vn 1.0000 0.0000 -0.0000
vn 1.0000 0.0000 -0.0000
vn 0.7071 0.0000 0.7071
vn -0.5000 -0.8660 -0.0000
vn -0.5000 -0.8660 -0.0000
vn -0.3536 -0.8660 -0.3536
vn -0.5000 0.8660 -0.0000
vn -0.3536 0.8660 0.3536
vn -0.3536 0.8660 0.3536
vn 0.7071 0.0000 -0.7071
vn 0.7071 0.0000 -0.7071
vn 1.0000 0.0000 -0.0000
vn -0.3536 -0.8660 0.3536
vn -0.3536 -0.8660 0.3536
vn -0.5000 -0.8660 -0.0000
vn -0.0000 0.8660 0.5000
vn -0.0000 0.8660 0.5000
vn -0.3536 0.8660 0.3536
vn 0.0000 0.0000 -1.0000
vn 0.0000 0.0000 -1.0000
vn 0.7071 0.0000 -0.7071
vn -0.0000 -0.8660 0.5000
vn -0.0000 -0.8660 0.5000
vn -0.3536 -0.8660 0.3536
vn -0.0000 0.8660 0.5000
vn 0.3536 0.8660 0.3536
vn 0.3536 0.8660 0.3536
vn -0.7071 0.0000 -0.7071
vn -0.7071 0.0000 -0.7071
vn 0.0000 0.0000 -1.0000
vn 0.3536 -0.8660 0.3536
vn 0.3536 -0.8660 0.3536
vn -0.0000 -0.8660 0.5000
vn 0.5000 0.8660 0.0000
vn 0.5000 0.8660 0.0000
vn 0.3536 0.8660 0.3536
vn -1.0000 0.0000 -0.0000
vn -1.0000 0.0000 -0.0000
vn -0.7071 0.0000 -0.7071
vn 0.3536 -0.8660 0.3536
vn 0.5000 -0.8660 -0.0000
vn 0.5000 -0.8660 -0.0000
vn -0.0000 -0.5145 -0.8575
vn 0.3281 -0.5145 -0.7922
vn 0.3281 -0.5145 -0.7922
vn 0.3281 -0.5145 -0.7922
vn 0.6063 -0.5145 -0.6063
vn 0.6063 -0.5145 -0.6063
vn 0.6063 -0.5145 -0.6063
vn 0.6063 -0.5145 -0.6063
vn 0.7922 -0.5145 -0.3281
vn 0.7922 -0.5145 -0.3281
vn 0.8575 -0.5145 -0.0000
vn 0.8575 -0.5145 -0.0000
vn 0.8575 -0.5145 -0.0000
vn 0.7922 -0.5145 0.3281
vn 0.7922 -0.5145 0.3281
vn 0.7922 -0.5145 0.3281
vn 0.6063 -0.5145 0.6063
vn 0.6063 -0.5145 0.6063
vn 0.6063 -0.5145 0.6063
vn 0.3281 -0.5145 0.7922
vn 0.3281 -0.5145 0.7922
vn 0.3281 -0.5145 0.7922
vn 0.0000 -0.5145 0.8575
vn 0.0000 -0.5145 0.8575
vn 0.0000 -0.5145 0.8575
vn -0.3281 -0.5145 0.7922
vn -0.3281 -0.5145 0.7922
vn -0.3281 -0.5145 0.7922
vn -0.3281 -0.5145 0.7922
vn -0.6063 -0.5145 0.6063
vn -0.6063 -0.5145 0.6063
vn -0.7922 -0.5145 0.3281
vn -0.7922 -0.5145 0.3281
vn -0.7922 -0.5145 0.3281
vn -0.8575 -0.5145 -0.0000
vn -0.8575 -0.5145 -0.0000
vn -0.8575 -0.5145 -0.0000
vn -0.8575 -0.5145 -0.0000
vn -0.7922 -0.5145 -0.3281
vn -0.7922 -0.5145 -0.3281
vn -0.6063 -0.5145 -0.6063
vn -0.6063 -0.5145 -0.6063
vn 0.7071 0.0000 -0.7071
vn 0.7071 0.0000 -0.7071
vn 0.9239 0.0000 -0.3827
vn -0.3281 -0.5145 -0.7922
vn -0.0000 -0.5145 -0.8575
vn -0.0000 -0.5145 -0.8575
vn -0.6063 -0.5145 -0.6063
vn -0.6063 -0.5145 -0.6063
vn -0.3281 -0.5145 -0.7922
vn 0.0000 -1.0000 0.0000
vn 0.0000 -1.0000 0.0000
vn 0.0000 -1.0000 0.0000
vn 0.7039 0.6476 0.2916
vn 0.7619 0.6476 -0.0000
vn 0.7619 0.6476 -0.0000
vn 0.3827 0.0000 0.9239
vn 0.3827 0.0000 0.9239
vn 0.0000 0.0000 1.0000
vn 0.0000 0.0000 -1.0000
vn -0.0000 0.0000 -1.0000
vn 0.3827 0.0000 -0.9239
vn -1.0000 0.0000 -0.0000
vn -1.0000 0.0000 -0.0000
vn -0.9239 0.0000 -0.3827
vn 0.9239 0.0000 0.3827
vn 0.9239 0.0000 0.3827
vn 0.7071 0.0000 0.7071
vn -0.7071 0.0000 0.7071
vn -0.7071 0.0000 0.7071
vn -0.9239 0.0000 0.3827
vn -0.3827 0.0000 -0.9239
vn -0.3827 0.0000 -0.9239
vn -0.0000 0.0000 -1.0000
vn 0.9239 0.0000 -0.3827
vn 0.9239 0.0000 -0.3827
vn 1.0000 0.0000 -0.0000
vn -0.0000 0.0000 1.0000
vn 0.0000 0.0000 1.0000
vn -0.3827 0.0000 0.9239
vn -0.9239 0.0000 -0.3827
vn -0.9239 0.0000 -0.3827
vn -0.7071 0.0000 -0.7071
vn 0.3827 0.0000 -0.9239
vn 0.3827 0.0000 -0.9239
vn 0.7071 0.0000 -0.7071
vn 0.7071 0.0000 0.7071
vn 0.7071 0.0000 0.7071
vn 0.3827 0.0000 0.9239
vn -0.9239 0.0000 0.3827
vn -0.9239 0.0000 0.3827
vn -1.0000 0.0000 -0.0000
vn 1.0000 0.0000 -0.0000
vn 1.0000 0.0000 -0.0000
vn 0.9239 0.0000 0.3827
vn -0.3827 0.0000 0.9239
vn -0.3827 0.0000 0.9239
vn -0.7071 0.0000 0.7071
vn -0.7071 0.0000 -0.7071
vn -0.7071 0.0000 -0.7071
vn -0.3827 0.0000 -0.9239
vn -0.3827 0.0000 0.9239
vn -0.3827 0.0000 0.9239
vn -0.7071 0.0000 0.7071
vn -0.7039 0.6476 -0.2916
vn -0.7619 0.6476 -0.0000
vn -0.7619 0.6476 -0.0000
vn 0.7039 0.6476 0.2916
vn 0.7039 0.6476 0.2916
vn 0.5388 0.6476 0.5388
vn -0.7039 0.6476 -0.2916
vn -0.7039 0.6476 -0.2916
vn -0.5388 0.6476 -0.5388
vn 0.2916 0.6476 0.7039
vn 0.5388 0.6476 0.5388
vn 0.5388 0.6476 0.5388
vn -0.5388 0.6476 -0.5388
vn -0.5388 0.6476 -0.5388
vn -0.2916 0.6476 -0.7039
vn -0.0000 0.6476 0.7619
vn 0.2916 0.6476 0.7039
vn 0.2916 0.6476 0.7039
vn 0.2916 0.6476 -0.7039
vn -0.0000 0.6476 -0.7619
vn -0.0000 0.6476 -0.7619
vn -0.0000 0.6476 -0.7619
vn -0.2916 0.6476 -0.7039
vn -0.2916 0.6476 -0.7039
vn -0.0000 0.6476 0.7619
vn -0.0000 0.6476 0.7619
vn -0.2916 0.6476 0.7039
vn 0.5388 0.6476 -0.5388
vn 0.2916 0.6476 -0.7039
vn 0.2916 0.6476 -0.7039
vn -0.5388 0.6476 0.5388
vn -0.2916 0.6476 0.7039
vn -0.2916 0.6476 0.7039
vn 0.7039 0.6476 -0.2916
vn 0.5388 0.6476 -0.5388
vn 0.5388 0.6476 -0.5388
vn -0.5388 0.6476 0.5388
vn -0.5388 0.6476 0.5388
vn -0.7039 0.6476 0.2916
vn 0.7039 0.6476 -0.2916
vn 0.7039 0.6476 -0.2916
vn 0.7619 0.6476 -0.0000
vn -0.7039 0.6476 0.2916
vn -0.7039 0.6476 0.2916
vn -0.7619 0.6476 -0.0000
vn -0.0000 0.7071 0.7071
vn 0.0000 1.0000 -0.0000
vn -0.2706 0.7071 0.6533
vn 0.7071 0.0000 -0.7071
vn 0.7071 0.0000 -0.7071
vn 0.9239 0.0000 -0.3827
vn -0.7071 0.0000 0.7071
vn -0.7071 0.0000 0.7071
vn -0.9239 0.0000 0.3827
vn 0.9239 0.0000 -0.3827
vn 0.9239 0.0000 -0.3827
vn 1.0000 0.0000 0.0000
vn -0.9239 0.0000 0.3827
vn -0.9239 0.0000 0.3827
vn -1.0000 0.0000 -0.0000
vn 1.0000 0.0000 -0.0000
vn 1.0000 0.0000 0.0000
vn 0.9239 0.0000 0.3827
vn -1.0000 0.0000 0.0000
vn -1.0000 0.0000 -0.0000
vn -0.9239 0.0000 -0.3827
vn 0.9239 0.0000 0.3827
vn 0.9239 0.0000 0.3827
vn 0.7071 0.0000 0.7071
vn -0.9239 0.0000 -0.3827
vn -0.9239 0.0000 -0.3827
vn -0.7071 0.0000 -0.7071
vn 0.7071 0.0000 0.7071
vn 0.7071 0.0000 0.7071
vn 0.3827 0.0000 0.9239
vn -0.7071 0.0000 -0.7071
vn -0.7071 0.0000 -0.7071
vn -0.3827 0.0000 -0.9239
vn 0.3827 0.0000 0.9239
vn 0.3827 0.0000 0.9239
vn -0.0000 0.0000 1.0000
vn -0.0000 0.0000 -1.0000
vn -0.0000 0.0000 -1.0000
vn 0.3827 0.0000 -0.9239
vn -0.3827 0.0000 -0.9239
vn -0.3827 0.0000 -0.9239
vn -0.0000 0.0000 -1.0000
vn -0.0000 0.0000 1.0000
vn -0.0000 0.0000 1.0000
vn -0.3827 0.0000 0.9239
vn 0.3827 0.0000 -0.9239
vn 0.3827 0.0000 -0.9239
vn 0.7071 0.0000 -0.7071
vn -0.0000 0.7071 0.7071
vn 0.2706 0.7071 0.6533
vn 0.0000 1.0000 -0.0000
vn -0.6533 0.7071 0.2706
vn 0.0000 1.0000 -0.0000
vn -0.7071 0.7071 -0.0000
vn -0.7071 0.7071 -0.0000
vn 0.0000 1.0000 -0.0000
vn -0.6533 0.7071 -0.2706
vn -0.2706 0.7071 0.6533
vn 0.0000 1.0000 -0.0000
vn -0.5000 0.7071 0.5000
vn -0.2706 0.7071 -0.6533
vn 0.0000 1.0000 -0.0000
vn -0.0000 0.7071 -0.7071
vn -0.6533 0.7071 -0.2706
vn 0.0000 1.0000 -0.0000
vn -0.5000 0.7071 -0.5000
vn -0.5000 0.7071 -0.5000
vn 0.0000 1.0000 -0.0000
vn -0.2706 0.7071 -0.6533
vn -0.0000 0.7071 -0.7071
vn 0.0000 1.0000 -0.0000
vn 0.2706 0.7071 -0.6533
vn 0.2706 0.7071 -0.6533
vn 0.0000 1.0000 -0.0000
vn 0.5000 0.7071 -0.5000
vn 0.5000 0.7071 -0.5000
vn 0.0000 1.0000 -0.0000
vn 0.6533 0.7071 -0.2706
vn 0.6533 0.7071 -0.2706
vn 0.0000 1.0000 -0.0000
vn 0.7071 0.7071 -0.0000
vn 0.7071 0.7071 -0.0000
vn 0.0000 1.0000 -0.0000
vn 0.6533 0.7071 0.2706
vn 0.6533 0.7071 0.2706
vn 0.0000 1.0000 -0.0000
vn 0.5000 0.7071 0.5000
vn 0.5000 0.7071 0.5000
vn 0.0000 1.0000 -0.0000
vn 0.2706 0.7071 0.6533
vn -0.5000 0.7071 0.5000
vn 0.0000 1.0000 -0.0000
vn -0.6533 0.7071 0.2706
vn 0.5000 0.8660 0.0000
vn 0.5000 0.8660 0.0000
vn 0.3536 0.8660 -0.3536
vn -1.0000 0.0000 -0.0000
vn -0.7071 0.0000 0.7071
vn -1.0000 0.0000 -0.0000
vn 0.5000 -0.8660 -0.0000
vn 0.5000 -0.8660 -0.0000
vn 0.3536 -0.8660 -0.3536
vn 0.3536 0.8660 -0.3536
vn -0.0000 0.8660 -0.5000
vn 0.3536 0.8660 -0.3536
vn -0.7071 0.0000 0.7071
vn 0.0000 0.0000 1.0000
vn -0.7071 0.0000 0.7071
vn 0.3536 -0.8660 -0.3536
vn 0.0000 -0.8660 -0.5000
vn 0.3536 -0.8660 -0.3536
vn -0.0000 0.8660 -0.5000
vn -0.3536 0.8660 -0.3536
vn -0.0000 0.8660 -0.5000
vn 0.0000 0.0000 1.0000
vn 0.7071 0.0000 0.7071
vn 0.0000 0.0000 1.0000
vn 0.0000 -0.8660 -0.5000
vn 0.0000 -0.8660 -0.5000
vn -0.3536 -0.8660 -0.3536
vn -0.3536 0.8660 -0.3536
vn -0.5000 0.8660 -0.0000
vn -0.3536 0.8660 -0.3536
vn 0.7071 0.0000 0.7071
vn 1.0000 0.0000 -0.0000
vn 0.7071 0.0000 0.7071
vn -0.3536 -0.8660 -0.3536
vn -0.5000 -0.8660 -0.0000
vn -0.3536 -0.8660 -0.3536
vn -0.5000 0.8660 -0.0000
vn -0.5000 0.8660 -0.0000
vn -0.3536 0.8660 0.3536
vn 1.0000 0.0000 -0.0000
vn 0.7071 0.0000 -0.7071
vn 1.0000 0.0000 -0.0000
vn -0.5000 -0.8660 -0.0000
vn -0.3536 -0.8660 0.3536
vn -0.5000 -0.8660 -0.0000
vn -0.3536 0.8660 0.3536
vn -0.0000 0.8660 0.5000
vn -0.3536 0.8660 0.3536
vn 0.7071 0.0000 -0.7071
vn 0.0000 0.0000 -1.0000
vn 0.7071 0.0000 -0.7071
vn -0.3536 -0.8660 0.3536
vn -0.0000 -0.8660 0.5000
vn -0.3536 -0.8660 0.3536
vn -0.0000 0.8660 0.5000
vn -0.0000 0.8660 0.5000
vn 0.3536 0.8660 0.3536
vn 0.0000 0.0000 -1.0000
vn -0.7071 0.0000 -0.7071
vn 0.0000 0.0000 -1.0000
vn -0.0000 -0.8660 0.5000
vn 0.3536 -0.8660 0.3536
vn -0.0000 -0.8660 0.5000
vn 0.3536 0.8660 0.3536
vn 0.5000 0.8660 0.0000
vn 0.3536 0.8660 0.3536
vn -0.7071 0.0000 -0.7071
vn -1.0000 0.0000 -0.0000
vn -0.7071 0.0000 -0.7071
vn 0.3536 -0.8660 0.3536
vn 0.3536 -0.8660 0.3536
vn 0.5000 -0.8660 -0.0000
vn -0.0000 -0.5145 -0.8575
vn -0.0000 -0.5145 -0.8575
vn 0.3281 -0.5145 -0.7922
vn 0.3281 -0.5145 -0.7922
vn 0.3281 -0.5145 -0.7922
vn 0.6063 -0.5145 -0.6063
vn 0.7922 -0.5145 -0.3281
vn 0.6063 -0.5145 -0.6063
vn 0.7922 -0.5145 -0.3281
vn 0.7922 -0.5145 -0.3281
vn 0.7922 -0.5145 -0.3281
vn 0.8575 -0.5145 -0.0000
vn 0.8575 -0.5145 -0.0000
vn 0.8575 -0.5145 -0.0000
vn 0.7922 -0.5145 0.3281
vn 0.7922 -0.5145 0.3281
vn 0.7922 -0.5145 0.3281
vn 0.6063 -0.5145 0.6063
vn 0.6063 -0.5145 0.6063
vn 0.6063 -0.5145 0.6063
vn 0.3281 -0.5145 0.7922
vn 0.3281 -0.5145 0.7922
vn 0.3281 -0.5145 0.7922
vn 0.0000 -0.5145 0.8575
vn 0.0000 -0.5145 0.8575
vn 0.0000 -0.5145 0.8575
vn -0.3281 -0.5145 0.7922
vn -0.6063 -0.5145 0.6063
vn -0.3281 -0.5145 0.7922
vn -0.6063 -0.5145 0.6063
vn -0.6063 -0.5145 0.6063
vn -0.6063 -0.5145 0.6063
vn -0.7922 -0.5145 0.3281
vn -0.7922 -0.5145 0.3281
vn -0.7922 -0.5145 0.3281
vn -0.8575 -0.5145 -0.0000
vn -0.7922 -0.5145 -0.3281
vn -0.8575 -0.5145 -0.0000
vn -0.7922 -0.5145 -0.3281
vn -0.7922 -0.5145 -0.3281
vn -0.7922 -0.5145 -0.3281
vn -0.6063 -0.5145 -0.6063
vn 0.9239 0.0000 -0.3827
vn 0.7071 0.0000 -0.7071
vn 0.9239 0.0000 -0.3827
vn -0.3281 -0.5145 -0.7922
vn -0.3281 -0.5145 -0.7922
vn -0.0000 -0.5145 -0.8575
vn -0.3281 -0.5145 -0.7922
vn -0.6063 -0.5145 -0.6063
vn -0.3281 -0.5145 -0.7922
vn 0.0000 -1.0000 0.0000
vn 0.0000 -1.0000 0.0000
vn 0.0000 -1.0000 0.0000
vn 0.0000 -1.0000 0.0000
vn 0.0000 -1.0000 0.0000
vn 0.0000 -1.0000 0.0000
vn 0.0000 -1.0000 0.0000
vn 0.0000 -1.0000 0.0000
vn 0.0000 -1.0000 0.0000
vn 0.0000 -1.0000 0.0000
vn 0.0000 -1.0000 0.0000
vn 0.0000 -1.0000 0.0000
vn 0.0000 -1.0000 0.0000
vn 0.0000 -1.0000 0.0000
vn 0.0000 -1.0000 0.0000
vn 0.0000 -1.0000 0.0000
vn 0.0000 -1.0000 0.0000
vn 0.0000 -1.0000 0.0000
vn 0.0000 -1.0000 0.0000
vn 0.0000 -1.0000 0.0000
vn 0.0000 -1.0000 0.0000
vn 0.0000 -1.0000 0.0000
vn 0.0000 -1.0000 0.0000
vn 0.0000 -1.0000 0.0000
vn 0.0000 -1.0000 0.0000
vn 0.0000 -1.0000 0.0000
vn 0.0000 -1.0000 0.0000
vn 0.0000 -1.0000 0.0000
vn 0.0000 -1.0000 0.0000
vn 0.0000 -1.0000 0.0000
vn 0.0000 -1.0000 0.0000
vn 0.0000 -1.0000 0.0000
vn 0.0000 -1.0000 0.0000
vn 0.0000 -1.0000 0.0000
vn 0.0000 -1.0000 0.0000
vn 0.0000 -1.0000 0.0000
vn 0.0000 -1.0000 0.0000
vn 0.0000 -1.0000 0.0000
vn 0.0000 -1.0000 0.0000
vn 0.7039 0.6476 0.2916
vn 0.7039 0.6476 0.2916
vn 0.7619 0.6476 -0.0000
vn -0.0000 0.0000 1.0000
vn 0.3827 0.0000 0.9239
vn 0.0000 0.0000 1.0000
vn 0.3827 0.0000 -0.9239
vn 0.0000 0.0000 -1.0000
vn 0.3827 0.0000 -0.9239
vn -0.9239 0.0000 -0.3827
vn -1.0000 0.0000 -0.0000
vn -0.9239 0.0000 -0.3827
vn 0.7071 0.0000 0.7071
vn 0.9239 0.0000 0.3827
vn 0.7071 0.0000 0.7071
vn -0.9239 0.0000 0.3827
vn -0.7071 0.0000 0.7071
vn -0.9239 0.0000 0.3827
vn 0.0000 0.0000 -1.0000
vn -0.3827 0.0000 -0.9239
vn -0.0000 0.0000 -1.0000
vn 1.0000 0.0000 -0.0000
vn 0.9239 0.0000 -0.3827
vn 1.0000 0.0000 -0.0000
vn -0.3827 0.0000 0.9239
vn -0.0000 0.0000 1.0000
vn -0.3827 0.0000 0.9239
vn -0.7071 0.0000 -0.7071
vn -0.9239 0.0000 -0.3827
vn -0.7071 0.0000 -0.7071
vn 0.7071 0.0000 -0.7071
vn 0.3827 0.0000 -0.9239
vn 0.7071 0.0000 -0.7071
vn 0.3827 0.0000 0.9239
vn 0.7071 0.0000 0.7071
vn 0.3827 0.0000 0.9239
vn -1.0000 0.0000 -0.0000
vn -0.9239 0.0000 0.3827
vn -1.0000 0.0000 -0.0000
vn 0.9239 0.0000 0.3827
vn 1.0000 0.0000 -0.0000
vn 0.9239 0.0000 0.3827
vn -0.7071 0.0000 0.7071
vn -0.3827 0.0000 0.9239
vn -0.7071 0.0000 0.7071
vn -0.3827 0.0000 -0.9239
vn -0.7071 0.0000 -0.7071
vn -0.3827 0.0000 -0.9239
vn -0.7071 0.0000 0.7071
vn -0.3827 0.0000 0.9239
vn -0.7071 0.0000 0.7071
vn -0.7039 0.6476 -0.2916
vn -0.7039 0.6476 -0.2916
vn -0.7619 0.6476 -0.0000
vn 0.5388 0.6476 0.5388
vn 0.7039 0.6476 0.2916
vn 0.5388 0.6476 0.5388
vn -0.5388 0.6476 -0.5388
vn -0.7039 0.6476 -0.2916
vn -0.5388 0.6476 -0.5388
vn 0.2916 0.6476 0.7039
vn 0.2916 0.6476 0.7039
vn 0.5388 0.6476 0.5388
vn -0.2916 0.6476 -0.7039
vn -0.5388 0.6476 -0.5388
vn -0.2916 0.6476 -0.7039
vn -0.0000 0.6476 0.7619
vn -0.0000 0.6476 0.7619
vn 0.2916 0.6476 0.7039
vn 0.2916 0.6476 -0.7039
vn 0.2916 0.6476 -0.7039
vn -0.0000 0.6476 -0.7619
vn -0.0000 0.6476 -0.7619
vn -0.0000 0.6476 -0.7619
vn -0.2916 0.6476 -0.7039
vn -0.2916 0.6476 0.7039
vn -0.0000 0.6476 0.7619
vn -0.2916 0.6476 0.7039
vn 0.5388 0.6476 -0.5388
vn 0.5388 0.6476 -0.5388
vn 0.2916 0.6476 -0.7039
vn -0.5388 0.6476 0.5388
vn -0.5388 0.6476 0.5388
vn -0.2916 0.6476 0.7039
vn 0.7039 0.6476 -0.2916
vn 0.7039 0.6476 -0.2916
vn 0.5388 0.6476 -0.5388
vn -0.7039 0.6476 0.2916
vn -0.5388 0.6476 0.5388
vn -0.7039 0.6476 0.2916
vn 0.7619 0.6476 -0.0000
vn 0.7039 0.6476 -0.2916
vn 0.7619 0.6476 -0.0000
vn -0.7619 0.6476 -0.0000
vn -0.7039 0.6476 0.2916
vn -0.7619 0.6476 -0.0000
vn 0.9239 0.0000 -0.3827
vn 0.7071 0.0000 -0.7071
vn 0.9239 0.0000 -0.3827
vn -0.9239 0.0000 0.3827
vn -0.7071 0.0000 0.7071
vn -0.9239 0.0000 0.3827
vn 1.0000 0.0000 -0.0000
vn 0.9239 0.0000 -0.3827
vn 1.0000 0.0000 0.0000
vn -1.0000 0.0000 0.0000
vn -0.9239 0.0000 0.3827
vn -1.0000 0.0000 -0.0000
vn 0.9239 0.0000 0.3827
vn 1.0000 0.0000 -0.0000
vn 0.9239 0.0000 0.3827
vn -0.9239 0.0000 -0.3827
vn -1.0000 0.0000 0.0000
vn -0.9239 0.0000 -0.3827
vn 0.7071 0.0000 0.7071
vn 0.9239 0.0000 0.3827
vn 0.7071 0.0000 0.7071
vn -0.7071 0.0000 -0.7071
vn -0.9239 0.0000 -0.3827
vn -0.7071 0.0000 -0.7071
vn 0.3827 0.0000 0.9239
vn 0.7071 0.0000 0.7071
vn 0.3827 0.0000 0.9239
vn -0.3827 0.0000 -0.9239
vn -0.7071 0.0000 -0.7071
vn -0.3827 0.0000 -0.9239
vn -0.0000 0.0000 1.0000
vn 0.3827 0.0000 0.9239
vn -0.0000 0.0000 1.0000
vn 0.3827 0.0000 -0.9239
vn -0.0000 0.0000 -1.0000
vn 0.3827 0.0000 -0.9239
vn -0.0000 0.0000 -1.0000
vn -0.3827 0.0000 -0.9239
vn -0.0000 0.0000 -1.0000
vn -0.3827 0.0000 0.9239
vn -0.0000 0.0000 1.0000
vn -0.3827 0.0000 0.9239
vn 0.7071 0.0000 -0.7071
vn 0.3827 0.0000 -0.9239
vn 0.7071 0.0000 -0.7071
vt 0.7638 0.8258 0.0000
vt 0.7924 0.8258 0.0000
vt 0.7881 0.8381 0.0000
vt 0.7881 0.8510 0.0000
vt 0.7681 0.8510 0.0000
vt 0.7681 0.8136 0.0000
vt 0.7881 0.8136 0.0000
vt 0.7638 0.7505 0.0000
vt 0.7681 0.7383 0.0000
vt 0.7881 0.7383 0.0000
vt 0.7681 0.7253 0.0000
vt 0.7881 0.7253 0.0000
vt 0.7681 0.7627 0.0000
vt 0.7924 0.7505 0.0000
vt 0.5165 0.7505 0.0000
vt 0.5208 0.7383 0.0000
vt 0.5408 0.7383 0.0000
vt 0.5208 0.7253 0.0000
vt 0.5408 0.7253 0.0000
vt 0.5408 0.7627 0.0000
vt 0.5208 0.7627 0.0000
vt 0.6843 0.8388 0.0000
vt 0.6886 0.8266 0.0000
vt 0.7086 0.8266 0.0000
vt 0.6886 0.8136 0.0000
vt 0.7086 0.8136 0.0000
vt 0.6886 0.8510 0.0000
vt 0.7129 0.8388 0.0000
vt 0.5451 0.8388 0.0000
vt 0.5165 0.8388 0.0000
vt 0.5208 0.8266 0.0000
vt 0.5208 0.8136 0.0000
vt 0.5408 0.8136 0.0000
vt 0.5208 0.8510 0.0000
vt 0.7129 0.7376 0.0000
vt 0.7086 0.7498 0.0000
vt 0.6886 0.7498 0.0000
vt 0.7086 0.7627 0.0000
vt 0.6886 0.7627 0.0000
vt 0.7086 0.7253 0.0000
vt 0.6843 0.7376 0.0000
vt 0.5960 0.8171 0.0000
vt 0.6246 0.8171 0.0000
vt 0.6203 0.8293 0.0000
vt 0.6203 0.8422 0.0000
vt 0.6003 0.8422 0.0000
vt 0.6203 0.8049 0.0000
vt 0.6082 0.7253 0.0000
vt 0.6204 0.7296 0.0000
vt 0.6204 0.7496 0.0000
vt 0.6334 0.7296 0.0000
vt 0.6334 0.7496 0.0000
vt 0.5960 0.7496 0.0000
vt 0.5960 0.7296 0.0000
vt 0.7253 0.0688 0.0000
vt 0.6669 0.0688 0.0000
vt 0.6713 0.0255 0.0000
vt 0.6086 0.0688 0.0000
vt 0.6130 0.0255 0.0000
vt 0.6043 0.0255 0.0000
vt 0.5503 0.0688 0.0000
vt 0.4920 0.0688 0.0000
vt 0.4964 0.0255 0.0000
vt 0.4337 0.0688 0.0000
vt 0.4380 0.0255 0.0000
vt 0.3754 0.0688 0.0000
vt 0.3797 0.0255 0.0000
vt 0.3170 0.0688 0.0000
vt 0.3214 0.0255 0.0000
vt 0.2587 0.0688 0.0000
vt 0.2631 0.0255 0.0000
vt 0.2004 0.0688 0.0000
vt 0.2048 0.0255 0.0000
vt 0.1960 0.0255 0.0000
vt 0.1421 0.0688 0.0000
vt 0.0838 0.0688 0.0000
vt 0.0882 0.0255 0.0000
vt 0.0255 0.0688 0.0000
vt 0.0298 0.0255 0.0000
vt 0.9541 0.0255 0.0000
vt 0.9585 0.0688 0.0000
vt 0.9002 0.0688 0.0000
vt 0.8419 0.0688 0.0000
vt 0.8463 0.0255 0.0000
vt 0.6086 0.4798 0.0000
vt 0.5503 0.4798 0.0000
vt 0.7836 0.0688 0.0000
vt 0.7296 0.0255 0.0000
vt 0.8375 0.0255 0.0000
vt 0.2557 0.9205 0.0000
vt 0.0795 0.9556 0.0000
vt 0.2206 0.7443 0.0000
vt 0.4337 0.4798 0.0000
vt 0.4920 0.4798 0.0000
vt 0.4672 0.6744 0.0000
vt 0.3170 0.4798 0.0000
vt 0.2587 0.4798 0.0000
vt 0.7253 0.4798 0.0000
vt 0.6669 0.4798 0.0000
vt 0.9585 0.4798 0.0000
vt 0.9002 0.4798 0.0000
vt 0.3754 0.4798 0.0000
vt 0.1421 0.4798 0.0000
vt 0.0838 0.4798 0.0000
vt 0.7836 0.4798 0.0000
vt 0.2004 0.4798 0.0000
vt 0.8419 0.4798 0.0000
vt 0.0255 0.4798 0.0000
vt 0.3518 0.7253 0.0000
vt 0.3518 0.8001 0.0000
vt 0.3431 0.8001 0.0000
vt 0.9337 0.6744 0.0000
vt 0.4089 0.6744 0.0000
vt 0.4001 0.6744 0.0000
vt 0.8754 0.6744 0.0000
vt 0.8667 0.6744 0.0000
vt 0.3506 0.6744 0.0000
vt 0.8171 0.6744 0.0000
vt 0.8084 0.6744 0.0000
vt 0.2923 0.6744 0.0000
vt 0.7005 0.6744 0.0000
vt 0.7588 0.6744 0.0000
vt 0.2339 0.6744 0.0000
vt 0.2252 0.6744 0.0000
vt 0.6422 0.6744 0.0000
vt 0.1756 0.6744 0.0000
vt 0.5838 0.6744 0.0000
vt 0.1173 0.6744 0.0000
vt 0.1086 0.6744 0.0000
vt 0.5255 0.6744 0.0000
vt 0.5168 0.6744 0.0000
vt 0.0590 0.6744 0.0000
vt 0.0502 0.6744 0.0000
vt 0.3606 0.8001 0.0000
vt 0.3562 0.8315 0.0000
vt 0.4131 0.7253 0.0000
vt 0.4131 0.8001 0.0000
vt 0.4043 0.8001 0.0000
vt 0.3431 0.7253 0.0000
vt 0.3343 0.8001 0.0000
vt 0.4043 0.7253 0.0000
vt 0.3956 0.8001 0.0000
vt 0.3343 0.7253 0.0000
vt 0.3256 0.8001 0.0000
vt 0.3956 0.7253 0.0000
vt 0.3868 0.8001 0.0000
vt 0.4655 0.7253 0.0000
vt 0.4655 0.8001 0.0000
vt 0.4568 0.8001 0.0000
vt 0.3868 0.7253 0.0000
vt 0.3781 0.8001 0.0000
vt 0.4568 0.7253 0.0000
vt 0.4480 0.8001 0.0000
vt 0.3781 0.7253 0.0000
vt 0.3693 0.8001 0.0000
vt 0.4480 0.7253 0.0000
vt 0.4393 0.8001 0.0000
vt 0.3693 0.7253 0.0000
vt 0.4306 0.7253 0.0000
vt 0.4306 0.8001 0.0000
vt 0.4218 0.8001 0.0000
vt 0.4393 0.7253 0.0000
vt 0.3606 0.7253 0.0000
vt 0.4218 0.7253 0.0000
vt 0.3649 0.8315 0.0000
vt 0.3300 0.8315 0.0000
vt 0.4612 0.8315 0.0000
vt 0.3475 0.8315 0.0000
vt 0.4349 0.8315 0.0000
vt 0.4524 0.8315 0.0000
vt 0.4437 0.8315 0.0000
vt 0.4262 0.8315 0.0000
vt 0.4174 0.8315 0.0000
vt 0.4087 0.8315 0.0000
vt 0.3999 0.8315 0.0000
vt 0.3912 0.8315 0.0000
vt 0.3824 0.8315 0.0000
vt 0.3737 0.8315 0.0000
vt 0.3387 0.8315 0.0000
vt 0.7681 0.8381 0.0000
vt 0.7881 0.7627 0.0000
vt 0.5451 0.7505 0.0000
vt 0.7086 0.8510 0.0000
vt 0.5408 0.8266 0.0000
vt 0.5408 0.8510 0.0000
vt 0.6886 0.7253 0.0000
vt 0.6003 0.8293 0.0000
vt 0.6003 0.8049 0.0000
vt 0.6082 0.7539 0.0000
vt 0.7209 0.0255 0.0000
vt 0.6626 0.0255 0.0000
vt 0.5547 0.0255 0.0000
vt 0.5459 0.0255 0.0000
vt 0.4876 0.0255 0.0000
vt 0.4293 0.0255 0.0000
vt 0.3710 0.0255 0.0000
vt 0.3127 0.0255 0.0000
vt 0.2544 0.0255 0.0000
vt 0.1465 0.0255 0.0000
vt 0.1377 0.0255 0.0000
vt 0.0794 0.0255 0.0000
vt 0.9046 0.0255 0.0000
vt 0.8958 0.0255 0.0000
vt 0.7792 0.0255 0.0000
vt 0.7879 0.0255 0.0000
vt 0.0444 0.7794 0.0000
vt 0.0795 0.7443 0.0000
vt 0.1253 0.7253 0.0000
vt 0.1748 0.7253 0.0000
vt 0.2557 0.7794 0.0000
vt 0.2747 0.8252 0.0000
vt 0.2747 0.8747 0.0000
vt 0.2206 0.9556 0.0000
vt 0.1748 0.9745 0.0000
vt 0.1253 0.9745 0.0000
vt 0.0444 0.9205 0.0000
vt 0.0255 0.8747 0.0000
vt 0.0255 0.8252 0.0000
vt 0.4585 0.6744 0.0000
vt 0.9250 0.6744 0.0000
vt 0.3418 0.6744 0.0000
vt 0.2835 0.6744 0.0000
vt 0.6917 0.6744 0.0000
vt 0.7500 0.6744 0.0000
vt 0.6334 0.6744 0.0000
vt 0.1669 0.6744 0.0000
vt 0.5751 0.6744 0.0000
vt 0.3256 0.7253 0.0000
s off
f 1/1/1 4/2/2 5/3/3 
f 5/3/4 6/4/5 3/5/6 
f 3/6/7 6/7/8 4/2/9 
f 7/8/10 8/9/11 5/10/12 
f 8/9/13 9/11/14 6/12/15 
f 9/13/16 7/8/17 4/14/18 
f 10/15/19 11/16/20 8/17/21 
f 11/16/22 12/18/23 9/19/24 
f 9/20/25 12/21/26 10/15/27 
f 13/22/28 14/23/29 11/24/30 
f 14/23/31 15/25/32 12/26/33 
f 15/27/34 13/22/35 10/28/36 
f 13/29/37 16/30/38 17/31/39 
f 17/31/40 18/32/41 15/33/42 
f 18/34/43 16/30/44 13/29/45 
f 19/35/46 20/36/47 17/37/48 
f 20/36/49 21/38/50 18/39/51 
f 21/40/52 19/35/53 16/41/54 
f 19/42/55 22/43/56 23/44/57 
f 23/44/58 24/45/59 21/46/60 
f 24/47/61 22/43/62 19/42/63 
f 1/48/64 2/49/65 23/50/66 
f 2/49/67 3/51/68 24/52/69 
f 24/53/70 3/54/71 1/48/72 
f 26/55/73 28/56/74 27/57/75 
f 28/56/76 30/58/77 29/59/78 
f 29/60/79 30/58/80 32/61/81 
f 32/61/82 34/62/83 33/63/84 
f 34/62/85 36/64/86 35/65/87 
f 36/64/88 38/66/89 37/67/90 
f 38/66/91 40/68/92 39/69/93 
f 40/68/94 42/70/95 41/71/96 
f 42/70/97 44/72/98 43/73/99 
f 43/74/100 44/72/101 46/75/102 
f 46/75/103 48/76/104 47/77/105 
f 48/76/106 50/78/107 49/79/108 
f 49/80/109 50/81/110 52/82/111 
f 52/82/112 54/83/113 53/84/114 
f 30/58/115 59/85/116 60/86/117 
f 56/87/118 26/55/119 25/88/120 
f 53/89/121 54/83/122 56/87/123 
f 39/90/124 47/91/125 31/92/126 
f 62/93/127 61/94/128 77/95/129 
f 40/68/130 64/96/131 65/97/132 
f 26/55/133 58/98/134 57/99/135 
f 50/81/136 69/100/137 70/101/138 
f 36/64/139 62/93/140 63/102/141 
f 46/75/142 67/103/143 68/104/144 
f 56/87/145 72/105/146 58/98/147 
f 32/61/148 60/86/149 61/94/150 
f 42/70/151 65/97/152 66/106/153 
f 52/82/154 70/101/155 71/107/156 
f 28/56/157 57/99/158 59/85/159 
f 38/66/160 63/102/161 64/96/162 
f 48/76/163 68/104/164 69/108/165 
f 34/62/166 61/94/167 62/93/168 
f 44/72/169 66/106/170 67/103/171 
f 54/83/172 71/107/173 72/105/174 
f 82/109/175 98/110/176 99/111/177 
f 70/101/178 69/100/179 85/112/180 
f 62/93/181 78/113/182 79/114/183 
f 70/101/184 86/115/185 87/116/186 
f 64/96/187 63/102/188 79/117/189 
f 71/107/190 87/118/191 88/119/192 
f 65/97/193 64/96/194 80/120/195 
f 57/99/196 58/98/197 74/121/198 
f 58/98/199 72/105/200 88/122/201 
f 65/97/202 81/123/203 82/124/204 
f 59/85/205 57/99/206 73/125/207 
f 67/103/208 66/106/209 82/126/210 
f 60/86/211 59/85/212 75/127/213 
f 67/103/214 83/128/215 84/129/216 
f 60/86/217 76/130/218 77/131/219 
f 68/104/220 84/132/221 85/133/222 
f 97/134/223 105/135/224 98/110/225 
f 75/136/226 91/137/227 92/138/228 
f 83/139/229 99/111/230 100/140/231 
f 76/141/232 92/138/233 93/142/234 
f 84/143/235 100/140/236 101/144/237 
f 77/145/238 93/142/239 94/146/240 
f 85/147/241 101/148/242 102/149/243 
f 78/150/244 94/146/245 95/151/246 
f 86/152/247 102/149/248 103/153/249 
f 79/154/250 95/151/251 96/155/252 
f 87/156/253 103/153/254 104/157/255 
f 80/158/256 96/155/257 97/134/258 
f 74/159/259 90/160/260 89/161/261 
f 88/162/262 104/157/263 90/160/264 
f 81/163/265 97/134/266 98/110/267 
f 73/164/268 89/161/269 91/137/270 
f 97/134/271 96/155/272 105/165/273 
f 100/140/274 105/166/275 101/144/276 
f 101/148/277 105/167/278 102/149/279 
f 98/110/280 105/168/281 99/111/282 
f 104/157/283 105/169/284 90/160/285 
f 102/149/286 105/170/287 103/153/288 
f 103/153/289 105/171/290 104/157/291 
f 90/160/292 105/172/293 89/161/294 
f 89/161/295 105/173/296 91/137/297 
f 91/137/298 105/174/299 92/138/300 
f 92/138/301 105/175/302 93/142/303 
f 93/142/304 105/176/305 94/146/306 
f 94/146/307 105/177/308 95/151/309 
f 95/151/310 105/178/311 96/155/312 
f 99/111/313 105/179/314 100/140/315 
f 2/180/316 1/1/317 5/3/318 
f 2/180/319 5/3/320 3/5/321 
f 1/1/322 3/6/323 4/2/324 
f 4/14/325 7/8/326 5/10/327 
f 5/10/328 8/9/329 6/12/330 
f 6/181/331 9/13/332 4/14/333 
f 7/182/334 10/15/335 8/17/336 
f 8/17/337 11/16/338 9/19/339 
f 7/182/340 9/20/341 10/15/342 
f 10/28/343 13/22/344 11/24/345 
f 11/24/346 14/23/347 12/26/348 
f 12/183/349 15/27/350 10/28/351 
f 14/184/352 13/29/353 17/31/354 
f 14/184/355 17/31/356 15/33/357 
f 15/185/358 18/34/359 13/29/360 
f 16/41/361 19/35/362 17/37/363 
f 17/37/364 20/36/365 18/39/366 
f 18/186/367 21/40/368 16/41/369 
f 20/187/370 19/42/371 23/44/372 
f 20/187/373 23/44/374 21/46/375 
f 21/188/376 24/47/377 19/42/378 
f 22/189/379 1/48/380 23/50/381 
f 23/50/382 2/49/383 24/52/384 
f 22/189/385 24/53/386 1/48/387 
f 25/190/388 26/55/389 27/57/390 
f 27/191/391 28/56/392 29/59/393 
f 31/192/394 29/60/395 32/61/396 
f 31/193/397 32/61/398 33/63/399 
f 33/194/400 34/62/401 35/65/402 
f 35/195/403 36/64/404 37/67/405 
f 37/196/406 38/66/407 39/69/408 
f 39/197/409 40/68/410 41/71/411 
f 41/198/412 42/70/413 43/73/414 
f 45/199/415 43/74/416 46/75/417 
f 45/200/418 46/75/419 47/77/420 
f 47/201/421 48/76/422 49/79/423 
f 51/202/424 49/80/425 52/82/426 
f 51/203/427 52/82/428 53/84/429 
f 32/61/430 30/58/431 60/86/432 
f 55/204/433 56/87/434 25/88/435 
f 55/205/436 53/89/437 56/87/438 
f 55/206/439 25/207/440 31/92/441 
f 27/208/442 29/209/443 31/92/444 
f 31/92/445 33/210/446 39/90/447 
f 35/211/448 37/212/449 39/90/450 
f 39/90/451 41/213/452 43/214/453 
f 43/214/454 45/215/455 39/90/456 
f 47/91/457 49/216/458 51/217/459 
f 51/217/460 53/218/461 47/91/462 
f 25/207/463 27/208/464 31/92/465 
f 33/210/466 35/211/467 39/90/468 
f 39/90/469 45/215/470 47/91/471 
f 47/91/472 53/218/473 55/206/474 
f 55/206/475 31/92/476 47/91/477 
f 78/219/478 62/93/479 77/95/480 
f 42/70/481 40/68/482 65/97/483 
f 28/56/484 26/55/485 57/99/486 
f 52/82/487 50/81/488 70/101/489 
f 38/66/490 36/64/491 63/102/492 
f 48/76/493 46/75/494 68/104/495 
f 26/55/496 56/87/497 58/98/498 
f 34/62/499 32/61/500 61/94/501 
f 44/72/502 42/70/503 66/106/504 
f 54/83/505 52/82/506 71/107/507 
f 30/58/508 28/56/509 59/85/510 
f 40/68/511 38/66/512 64/96/513 
f 50/78/514 48/76/515 69/108/516 
f 36/64/517 34/62/518 62/93/519 
f 46/75/520 44/72/521 67/103/522 
f 56/87/523 54/83/524 72/105/525 
f 83/139/526 82/109/527 99/111/528 
f 86/220/529 70/101/530 85/112/531 
f 63/102/532 62/93/533 79/114/534 
f 71/107/535 70/101/536 87/116/537 
f 80/221/538 64/96/539 79/117/540 
f 72/105/541 71/107/542 88/119/543 
f 81/222/544 65/97/545 80/120/546 
f 73/223/547 57/99/548 74/121/549 
f 74/224/550 58/98/551 88/122/552 
f 66/106/553 65/97/554 82/124/555 
f 75/225/556 59/85/557 73/125/558 
f 83/226/559 67/103/560 82/126/561 
f 76/227/562 60/86/563 75/127/564 
f 68/104/565 67/103/566 84/129/567 
f 61/94/568 60/86/569 77/131/570 
f 69/108/571 68/104/572 85/133/573 
f 76/141/574 75/136/575 92/138/576 
f 84/143/577 83/139/578 100/140/579 
f 77/145/580 76/141/581 93/142/582 
f 85/228/583 84/143/584 101/144/585 
f 78/150/586 77/145/587 94/146/588 
f 86/152/589 85/147/590 102/149/591 
f 79/154/592 78/150/593 95/151/594 
f 87/156/595 86/152/596 103/153/597 
f 80/158/598 79/154/599 96/155/600 
f 88/162/601 87/156/602 104/157/603 
f 81/163/604 80/158/605 97/134/606 
f 73/164/607 74/159/608 89/161/609 
f 74/159/610 88/162/611 90/160/612 
f 82/109/613 81/163/614 98/110/615 
f 75/136/616 73/164/617 91/137/618 